<svg xmlns="http://www.w3.org/2000/svg" viewBox="0 0 363 193"><path fill="#00578e" d="M20.44 107.57q-3.61.03-7.16-.61c-5.52-1-10.86-1.48-10.12-8.24.62-5.68 11.92-8.62 16.36-10.05a.87.86-2.4 0 0 .58-.63q.74-3.31 4.08-5.16c6.06-3.36 17.74-7.79 25.78-7.23q.53.04 0 .14c-2.04.41-28.36 6.24-24.07 11.02a.91.9 60.5 0 0 .91.26q2.81-.75 5.7-.85 1.97-.08.06.38-2.21.53-4.45.87a.62.62 0 0 0-.52.69c.2 1.57 18.86 1.06 21.45.9a.51.51 0 0 1 .54.51l-.03 5.6a.59.59 0 0 1-.5.58c-7.34 1.23-24.32 2.28-29.01-5.15a.68.68 0 0 0-.74-.3c-2.31.57-11.51 3.63-11.31 6.74a2.51 2.44 3.4 0 0 2.07 2.26q10.3 1.81 20.77.75a1.13 1.09 62.2 0 1 .85.28l.71.64a.98.98 0 0 0 .98.2q8.2-2.88 16.85-3.8a.27.26 35.5 0 1 .09.52q-8.54 1.83-17.01 4.72-2.1.71-1.05 3.42a.49.49 0 0 1-.39.66l-5.74.81a.81.81 0 0 0-.53 1.29c2.96 3.95 18.29 2.85 23.19 2.53a.85.85 0 0 1 .9.89l-.25 5.31a.56.55 87.6 0 1-.48.53c-7.02.91-32.78 2.97-28.19-10.02a.34.34 0 0 0-.32-.46Z"/><path fill="#67737a" d="M90.08 100.56c-.18 10.37 13 14.62 17.87 4.61a.76.76 0 0 1 .68-.42h8.32a.51.5-81.8 0 1 .48.65c-6.31 20.84-37.02 16.04-36.36-5.46.65-21.35 30.16-24.46 36.39-4.36a.52.51 81.3 0 1-.49.67h-8.32a.74.74 0 0 1-.67-.43c-4.63-10.31-17.72-6.09-17.9 4.74ZM136.09 110.5h9.82a.59.59 0 0 1 .59.59v7.03a.59.59 0 0 1-.59.59l-19.18.04a.59.59 0 0 1-.59-.59l-.18-34.83a.59.59 0 0 1 .59-.59l8.36.01a.59.59 0 0 1 .59.59v26.57a.59.59 0 0 0 .59.59ZM168.02 96.29l9.71-.06a.52.52 0 0 1 .52.52v7.03a.52.52 0 0 1-.52.52l-9.71-.08a.52.52 0 0 0-.52.52v5.24a.52.52 0 0 0 .52.52h10.1a.52.52 0 0 1 .52.54l-.21 7.23a.52.52 0 0 1-.52.51l-18.42-.08a.52.52 0 0 1-.52-.52l.04-34.91a.52.52 0 0 1 .52-.52h18.41a.52.52 0 0 1 .52.51l.15 7.04a.52.52 0 0 1-.53.53l-10.05-.12a.52.52 0 0 0-.53.52v4.54a.52.52 0 0 0 .52.52ZM192.34 82.88c9.52-.36 28.6-2.3 25.99 14.14-1.48 9.31-9.04 10.48-17.32 10.33a.5.5 0 0 0-.51.5v10.29a.58.58 0 0 1-.58.58h-7.47a.7.7 0 0 1-.7-.7V83.5a.62.62 0 0 1 .59-.62Zm8.63 16.33c12.2 1.61 11.35-10.23.12-8.38a.71.7-4.9 0 0-.59.69v7.15a.55.54-86.4 0 0 .47.54ZM244.6 113.25h-11.32a.59.59 0 0 0-.56.41l-1.54 4.55a.84.84 0 0 1-.79.56l-9.26-.06a.51.51 0 0 1-.27-.95l.55-.35a1.77 1.74-5.5 0 0 .68-.81l13.28-33.36a.79.77-78.7 0 1 .72-.49h5.98a.8.78 78.9 0 1 .73.5l13.92 35.13a.26.26 0 0 1-.24.36l-8.97.02a.62.62 0 0 1-.59-.43l-1.57-4.55a.8.8 0 0 0-.75-.53Zm-9.03-7.64a.31.31 0 0 0 .3.4l6.51-.01a.31.31 0 0 0 .3-.4l-3.28-11.18a.31.31 0 0 0-.59 0l-3.24 11.19ZM60.57 88.27l2.15-.55q1.15-.3.29.52-1.27 1.2-2.86 1.92a.76.76 0 0 0-.43.77l.3 2.39a.4.4 0 0 1-.55.42q-.63-.26-.72-.91a.61.61 0 0 0-.6-.52c-1.44.01-1.75 1.98-3.25 2.01q-.81.02-.27-.58l2.38-2.68a.5.49 40.7 0 0-.06-.71l-1.56-1.27q-1.35-1.11.38-.85l2.01.3a.76.74 13.3 0 0 .81-.49q.57-1.6 1.46-3.01.9-1.43.74.25-.13 1.31-.62 2.53-.25.63.4.46ZM71.23 98.53l2.21-.85q1.62-.62.4.62-1.33 1.35-3.02 2.19a.62.61-17.6 0 0-.33.63l.34 2.27a.48.48 0 0 1-.33.53l-.3.09a.15.14 59.7 0 1-.17-.05l-1.12-1.45a.51.51 0 0 0-.77-.04q-1.21 1.29-2.54 2.43-1.51 1.29-.46-.39 1.08-1.73 2.56-3.13a.59.58 43.1 0 0-.03-.87l-1.6-1.36q-.9-.75.27-.66l2.37.18a.72.72 0 0 0 .76-.57q.32-1.61 1.38-2.83.86-1 .68.31-.17 1.23-.82 2.35-.59 1.02.52.6ZM59.25 111.58l2.23-.79q1.19-.42.41.56-1.21 1.54-3.1 2.14a.56.55 69.1 0 0-.33.75q.6 1.36.07 2.76-.36.96-.78.03l-.66-1.42a.42.42 0 0 0-.67-.13l-2.16 2.07q-.91.88-.57-.34.48-1.66 1.96-2.64a.51.51 0 0 0 .07-.81l-1.69-1.52a.21.2-53.7 0 1-.03-.26l.14-.24a.55.55 0 0 1 .54-.25l1.87.28a.75.75 0 0 0 .78-.41l1.61-3.26q.79-1.62.62.18-.13 1.4-.85 2.66-.61 1.05.54.64Z"/><rect width="253.94" height="1.5" x="2.99" y="124.25" fill="#00578e" rx=".65"/><path fill="#67737a" d="m5.27 133.23 2.69.16a.57.57 0 0 1 .54.58c-.04 1.6-2.26.71-3.11.78a.73.73 0 0 0-.67.69l-.08 1.62a.67.67 0 0 0 .67.7l3.62-.01a.57.57 0 0 1 .56.69l-.09.4a.66.66 0 0 1-.67.52l-5.14-.15a.57.57 0 0 1-.55-.56l-.06-8.76a.58.58 0 0 1 .57-.59l5.37-.07a.66.66 0 0 1 .63.88c-.55 1.55-2.92.54-4.18.64a.69.68 87.3 0 0-.63.7l.04 1.27a.52.52 0 0 0 .49.51ZM78.5 134.25q-1.73-.19-3.2-1.17a.54.54 0 0 0-.78.2l-.24.48a.59.59 0 0 0 .33.82l3.51 1.28a.47.46-71.6 0 0 .61-.31q.19-.67-.23-1.3l1.89-1.97a1.4 1.4 0 0 1 .78-.42q2.65-.43 3.97 2.07.41.77.84 0l.53-.95a1.91 1.86-.4 0 1 .78-.77q2.5-1.31 3.97.99a.44.44 0 0 0 .69.07q1.49-1.59.04-3a.63.63 0 0 1 .62-1.05l1.22.36a.58.58 0 0 1 .25.95l-.49.52a.63.63 0 0 0-.15.56c.25 1.07 1.34 7.89-.45 7.91a.72.72 0 0 1-.71-.54l-.26-1.03q-.14-.56-.51-.12l-1.94 2.26a.74.74 0 0 1-.85.2q-1.92-.82-2.78-2.72a.43.43 0 0 0-.72-.11l-2.27 2.55a.94.93 28.1 0 1-.94.28q-1.83-.51-2.64-2.34-.4-.89-.88-.04-2.29 3.98-5.66.81a.71.7-40.6 0 0-.88-.06l-2.33 1.64a.69.69 0 0 1-.91-.11q-1.2-1.35-2.87-.68a.66.66 0 0 1-.88-.42l-.55-1.79a.74.74 0 0 0-.69-.52l-2.12-.04a.76.75-78 0 0-.69.45l-.82 1.8a.93.92-77.4 0 1-.86.55c-.83-.03-.92-.48-.63-1.13q1.9-4.3 3.14-8.7a.95.95 0 0 1 1.82-.02l1.96 6.22a1.41 1.38 6.9 0 0 .66.82l2.98 1.67a.81.8-52.5 0 0 .95-.13l.5-.5a.49.49 0 0 0-.14-.8l-3.42-1.51a1.55 1.54-53.4 0 1-.38-2.59q2.81-2.41 5.24.16a.49.48-44.6 0 0 .69 0c2.04-2.07 5.04-1.72 5.9 1.22Zm-16.12-1.81-.85 2.24a.42.42 0 0 0 .39.57h1.04a.58.57-7.3 0 0 .56-.72l-.53-2.05a.32.32 0 0 0-.61-.04Zm13.15 4.1c-1.41-.75-6.22-4.34-7.46-2.96a.64.64 0 0 0 .34 1.06q3.64.81 6.15 3.61a.86.85 59.4 0 0 .91.24l1.02-.34a.63.63 0 0 0 .3-.97c-.39-.52-.79-.39-1.26-.64Zm6.47 1.88a2.63 1.76 89.8 0 0 1.75-2.636 2.63 1.76 89.8 0 0-1.77-2.624 2.63 1.76 89.8 0 0-1.75 2.636A2.63 1.76 89.8 0 0 82 138.42Zm8.79-3.81-1.67-1.3a.78.78 0 0 0-1.05.08q-1.89 2-.29 4.25a1.3 1.3 0 0 0 2.18-.09q.58-.97 1.72-.94a.58.57-.5 0 0 .59-.59l-.02-.54a.75.75 0 0 0-.77-.73h-.27a.66.61 61.2 0 1-.42-.14ZM105.93 130.96l-.26-.57a.8.79-23.1 0 1 .43-1.06q1.1-.43 1.66.67a.78.77 67.5 0 1-.45 1.09l-.62.2a.62.62 0 0 1-.76-.33ZM132.16 133.75c-.72 2.73.93 4.81-2.87 6.38a1.05 1.05 0 0 1-.91-.06c-5.84-3.21-2.12-10.76 2.95-7.34a.58.57-51.5 0 0 .75-.09c1.09-1.19 3.28-4.77 5.19-2.84q.69.7-.27.94l-1.86.45a.3.3 0 0 0-.04.57l1.33.56q.93.39.08.94-.4.26-.86.25a.56.55 2.1 0 0-.57.52c-.08 1.19.36 5.8-.89 6.17a.77.77 0 0 1-.98-.86c.15-.97.84-5.93-.36-6.06a.64.64 0 0 0-.69.47Zm-3.14 4.66a2.63 1.76 89.8 0 0 1.75-2.636 2.63 1.76 89.8 0 0-1.77-2.624 2.63 1.76 89.8 0 0-1.75 2.636 2.63 1.76 89.8 0 0 1.77 2.624ZM211.77 135.62a.39.39 0 0 0 .69-.33q-.68-2.05.64-3.13a.84.84 0 0 1 1.37.64l.09 4.86a.77.77 0 0 0 .51.71c3.99 1.44.77-6.28 3.16-6.37a.63.63 0 0 1 .65.64l-.1 6.17a.61.6 83.9 0 1-.46.58l-2.96.73a.78.75 59 0 1-.71-.19l-2.01-1.87a.55.54 43.8 0 0-.76.01c-2.69 2.75-5.54 2.51-7.59-.71a.67.66-36.2 0 1 .14-.88l.24-.2a.58.58 0 0 1 .77.04l2.05 2.03a.93.92-34.6 0 0 1.04.18l1.71-.79a.97.97 0 0 0-.09-1.8l-4.01-1.36a1.62 1.61 83.8 0 1-.84-.68c-2.4-3.94 4.41-6.8 6.47-2.01a.45.45 0 0 1-.41.62h-.39a.99.98 73.8 0 1-.83-.46q-1.02-1.61-2.98-.87a1.03 1-5.1 0 0-.64.74c-.38 1.72 3.92 1.61 5.25 3.7ZM141.13 137.48l-.78 2.44a.6.6 0 0 1-.93.29l-.3-.22a.74.73 28.8 0 1-.25-.83l3.24-9.16a.76.75-80.1 0 1 .71-.51h.33a.83.82 81.1 0 1 .8.59c.39 1.33 3.67 9.64 2.43 10.09a.72.71 69 0 1-.91-.41l-.98-2.51a.65.63-11.2 0 0-.63-.41l-2.02.09a.8.79-82.4 0 0-.71.55Zm1.13-4.47-.3 1.64a.72.71-85 0 0 .71.85h.55a.6.6 0 0 0 .58-.73l-.43-1.79a.57.57 0 0 0-1.11.03ZM188.87 130.65q-1.28 1.38-2.2-.26a.59.59 0 0 1 .59-.88l1.25.16a.59.59 0 0 1 .36.98Z"/><rect width="1.66" height="10.52" x="-.83" y="-5.26" fill="#67737a" rx=".72" transform="rotate(-.4 19427.657 -33629.538)"/><path fill="#67737a" d="M237.12 130.95q-.36-.19-.54-.55a.58.58 0 0 1 .54-.82l1.4.02a.52.52 0 0 1 .44.78l-.53.9a1.11 1.1 53.3 0 0-.12.83c.3 1.24 1.4 8.15-.67 8.16a.62.62 0 0 1-.62-.62l-.03-6.28a1.13 1.1 72.3 0 1 .45-.9q.4-.31.27-.8a1.17 1.16-84.7 0 0-.59-.72ZM101.19 133.83l.25 5.7q.03.78-.59.32-1.7-1.26-3.13.43a.64.64 0 0 1-.99-.01l-2.11-2.63a.8.8 0 0 1 0-1.02q1.69-2.05 4.25-1.96a.58.58 0 0 0 .6-.57c.03-2.57-3.86.39-4.4.09a.46.45 33.5 0 1-.14-.67q2.5-3.36 5.66-.65a.42.42 0 0 0 .62-.09l1.7-2.59a.43.43 0 0 1 .78.13q.62 2.52 3.19 1.78a.55.55 0 0 1 .7.53l.04 5.97a.72.72 0 0 1-.46.67l-2.29.89a.84.84 0 0 1-.85-.15c-2.14-1.84-1.22-6.27-2.28-6.6a.43.43 0 0 0-.55.43Zm4.53.213a.76.76 0 0 0-.782-.738l-.44.012a.76.76 0 0 0-.738.781l.1 3.619a.76.76 0 0 0 .782.738l.44-.012a.76.76 0 0 0 .738-.781l-.1-3.619Zm-8.94 2.577a.99.99 0 0 0 .46 1.91q1.75-.17 2.29-1.91.39-1.22-.81-.76l-1.94.76ZM149.33 138.33c2.49.37 1.9-4.44 2.11-5.91a.52.51-80.3 0 1 .62-.44q2.07.42 2.53-1.54.19-.82.71-.17l1.76 2.15a.5.5 0 0 1-.14.74l-.54.31a1.11 1.09-6.4 0 0-.49.6q-1.11 3.33 1.54 4.75a.65.65 0 0 1 .04 1.12c-3.46 2.23-2.85-5.84-3.42-6.61a.44.44 0 0 0-.79.26l.01 5.66a.47.47 0 0 1-.58.46l-1.22-.29a.83.82 31.6 0 0-.73.17c-3.98 3.28-3.74-5.58-3.48-7.12a.61.6-71.7 0 1 .87-.44c.63.32.26 4.29.58 5.72a.76.75-1.7 0 0 .62.58Z"/><path fill="#67737a" d="M164.02 136.41q-.56 2.35-2.6 3.71a.85.84 40.6 0 1-.84.06c-4.01-1.93-4.65-7.95.63-8.52a1.08 1.06 66 0 1 .92.36l2.34 2.7q.29.34.29-.1l-.01-1.54a.65.65 0 0 1 .46-.62q2.42-.73 4.62.08a1.3 1.29 42.4 0 0 .98-.04q3.11-1.45 3.92 1.88a.45.45 0 0 0 .84.09q1.89-4.06 5.4-1.63a.63.62 36.1 0 0 .85-.13l1.72-2.22a.41.41 0 0 1 .69.07l.43.88a1.41 1.39-88.1 0 0 .58.63l.51.3a.42.41-47.8 0 1 .03.7q-2.32 1.64-.89 4.95.27.62 1.18.75a.57.57 0 0 0 .65-.56l.05-4.85a.77.76 82 0 1 .55-.74l2.1-.61a.66.66 0 0 1 .82.45l1.04 3.86a.6.6 0 0 0 .67.44c.39-.06 1.47-3.81 1.95-4.57a.49.49 0 0 1 .67-.16l.28.17a.51.5 26.3 0 1 .21.61l-2.57 6.83a.72.71 45.2 0 1-1.34-.01l-2-5.41q-.21-.59-.57-.07c-.18.27.22 4.32.01 5.31a.57.55 5.1 0 1-.54.44l-3.31.06a1.01.99 68.2 0 1-.77-.34q-1.82-2.09-.58-4.93a.65.64 22.9 0 0-.35-.85l-.92-.37q-.91-.37-.49.53c1.49 3.17-1.79 8.27-4.78 5.29-.63-.62-.84-1.57-1.52-2.26q-.59-.6-.59.24l.01 1.8a.64.63 90 0 1-.63.64l-.4.01a.62.61.5 0 1-.62-.62l.12-4.7a.83.83 0 0 0-.69-.84c-2.75-.46-1.95 4.13-2.16 5.69a.58.58 0 0 1-.66.5l-.31-.04a.46.46 0 0 1-.39-.44l-.03-4.98a.78.77-83.1 0 0-.57-.74c-2.76-.75-1.96 3.34-1.57 4.88a1.1 1.1 0 0 1-1.1 1.37l-.42-.01a.65.64-85.5 0 1-.61-.73q.17-1.33-.08-2.63-.27-1.41-.61-.02Zm-3.13 2.04a2.64 1.75 88.5 0 0 1.68-2.686 2.64 1.75 88.5 0 0-1.82-2.593 2.64 1.75 88.5 0 0-1.68 2.685 2.64 1.75 88.5 0 0 1.82 2.593Zm17.97.118a2.59 1.75 88 0 0 1.659-2.65 2.59 1.75 88 0 0-1.84-2.526 2.59 1.75 88 0 0-1.658 2.65 2.59 1.75 88 0 0 1.84 2.526ZM28.01 133.74l-.02-1.73a.5.49-90 0 1 .49-.5q.5-.01.97.34a.67.67 0 0 0 .74.03l1.26-.76a.83.81-34.6 0 1 1.06.18l2.02 2.51a.44.42-43.4 0 0 .65.01c1.35-1.49 3.14-4.63 5.24-1.28a1.23 1.22 51.3 0 0 1.9.21c5.72-5.75 5.84 3.22 5.81 6.03a.46.46 0 0 1-.59.44q-1.41-.42-2.76.33a1 .99 47 0 1-1.04-.04l-1.56-1.06a1.17 1.17 0 0 0-.85-.18q-.7.12-1.18.73a1.38 1.38 0 0 1-.96.51q-2.67.21-3.89-2.14a.57.57 0 0 0-1.04.05q-1.06 2.73-3.83 1.78a.49.48-79.9 0 0-.64.45l-.05 1.39a.74.74 0 0 1-.48.66c-2.2.83-1.44-2.95-1.25-3.82a.41.41 0 0 0-.2-.45l-.23-.14a.31.3 29.3 0 0-.43.12c-2.51 4.88-7.44.63-5.97-3.77a.38.37 9.7 0 0-.35-.49c-2.4-.04-1.85 4.02-1.85 5.6a.51.5-86.9 0 1-.55.5l-.33-.03a.66.66 0 0 1-.61-.67l.11-6.33a.51.5-3.2 0 1 .45-.5l2.88-.32a.52.51-3 0 1 .57.51v.4q0 .88.65.28l1.71-1.59a.69.69 0 0 1 .96.02l2.8 2.88q.39.4.39-.16Zm-3.756 4.33a2.6 1.76 89.9 0 0 1.756-2.603 2.6 1.76 89.9 0 0-1.765-2.597 2.6 1.76 89.9 0 0-1.755 2.603 2.6 1.76 89.9 0 0 1.765 2.597Zm7.147.01a2.6 1.68 90.2 0 0 1.689-2.594 2.6 1.68 90.2 0 0-1.67-2.606 2.6 1.68 90.2 0 0-1.69 2.594 2.6 1.68 90.2 0 0 1.67 2.606Zm7.789-3.52q.22.3.6.06a.65.65 0 0 0 .2-.92c-.74-1.08-3.04-1.51-3.02.23a.54.54 0 0 0 .53.54q.84.03 1.69.09Zm1.23 1.21-3.23.33a.48.47 71.8 0 0-.36.72l.43.7a1.34 1.33-32 0 0 1.87.43c2.25-1.45 3.99-3.29 6.88-3.62a.55.55 0 0 0 .44-.79l-.18-.37a.68.68 0 0 0-.7-.39q-2.69.31-4.26 2.48a1.28 1.26 14.8 0 1-.89.51Zm3.18 1.96q2.11.9 2.94-1.16a.68.68 0 0 0-.86-.89l-2.05.73a.71.71 0 0 0-.03 1.32ZM14.44 137.1l.08-4.71a.7.7 0 0 1 1-.62c1.25.6.7 5.44.62 6.8a.67.67 0 0 1-.61.62l-3.35.3a1.01 1.01 0 0 1-.93-.43q-2.05-3-1.09-6.83a.72.71 5.9 0 1 .67-.54c1.44-.04.93 4.48.91 5.42a.69.68 1.7 0 0 .67.7l1.25.03a.76.75 1.1 0 0 .78-.74ZM51.29 132.03c5.16-1.51 4.53 3.97 4.44 6.84a.66.65.9 0 1-.66.63h-.45a.63.62 90 0 1-.62-.63v-4.84a.65.64 86.6 0 0-.73-.65l-1.37.17a.74.73 86.5 0 0-.64.73l-.03 4.68a.67.67 0 0 1-1.11.51c-1.22-1.04-.39-4.73-.54-6.85a.62.62 0 0 1 .49-.64q.19-.04.4.03a1.37 1.34 45.7 0 0 .82.02ZM111.48 131.72c4.92.52 4.12 7.44.88 8.32a2.05 2.05 0 0 1-1.96-.49q-4.39-4.19.07-7.56a1.46 1.44 29.6 0 1 1.01-.27Zm.25 6.65a2.61 1.75 89.8 0 0 1.74-2.616 2.61 1.75 89.8 0 0-1.76-2.604 2.61 1.75 89.8 0 0-1.74 2.616 2.61 1.75 89.8 0 0 1.76 2.604Z"/><path fill="#67737a" d="M117.45 132.04c5.36-1.88 4.6 4.01 4.51 6.94a.63.63 0 0 1-.86.57c-1.31-.53-.38-4.08-.92-5.62a.91.89 85.8 0 0-.67-.59c-2.67-.58-2.04 4.15-2.03 5.6a.57.56 6.9 0 1-.7.54l-.59-.14a.62.61 8.1 0 1-.47-.62l.2-6.19a.58.57.5 0 1 .58-.56q.15 0 .29.06a.94.92 45.4 0 0 .66.01ZM197.03 138.03c.97.97 2.45.14 3.26-.56a.64.64 0 0 1 .87.05l.21.21a.45.44 51.8 0 1-.08.68l-2.48 1.62a1.2 1.18 38.8 0 1-1.06.11c-3.9-1.5-4.02-6.86.01-8.27a1.45 1.41 44.1 0 1 .93 0q2.35.79 2.95 3.25a.68.68 0 0 1-.57.84l-3.96.53a.57.56-1.3 0 0-.49.51q-.05.56.41 1.03Zm2.53-4.05c-1.15-.7-2.43-1.14-2.93.62a.54.53-84.2 0 0 .55.68l2.1-.16a.62.62 0 0 0 .28-1.14ZM221.5 139.9v1.44a.7.69-2.7 0 1-.63.69c-1.56.14-.73-7.97-.73-9.19a.55.54 7.8 0 1 .69-.52q1.27.35 2.53-.46a.69.69 0 0 1 .86.09l2.25 2.2q.56.55.55-.24l-.02-1.23a.45.45 0 0 1 .61-.43q1.35.49 2.59-.28a.99.97 42.6 0 1 .97-.03c3.96 2.05 2.78 9.29-1.8 7.67a.48.47-80.4 0 0-.63.45l.02 1.37a.59.58-84.7 0 1-.69.58l-.78-.15a.75.75 0 0 1-.61-.79l.24-3.29q.07-.98-.56-.23l-1.81 2.16a.9.9 0 0 1-.98.27l-1.46-.51a.46.46 0 0 0-.61.43Zm1.83-1.333a2.56 1.67 87.1 0 0 1.538-2.642 2.56 1.67 87.1 0 0-1.797-2.472 2.56 1.67 87.1 0 0-1.539 2.642 2.56 1.67 87.1 0 0 1.797 2.472Zm7.058-.067a2.52 1.64 89.6 0 0 1.622-2.531 2.52 1.64 89.6 0 0-1.658-2.509 2.52 1.64 89.6 0 0-1.622 2.531 2.52 1.64 89.6 0 0 1.658 2.509ZM247.01 134.85l-.01-1.82a.59.59 0 0 1 .48-.58c2.52-.44 7.36-1.36 9.04 1.08a.48.47 61.6 0 1-.2.7c-.45.2-2.21-.81-3.21-.72a.65.65 0 0 0-.6.71l.03.35a.55.55 0 0 0 .56.5q2.52-.04 3.76 1.97a.94.94 0 0 1 0 .98q-2.65 4.24-6.3.21a.53.53 0 0 1 .13-.82l.26-.15a.64.64 0 0 1 .8.14q1.16 1.37 2.83 1.17a.93.92 5.4 0 0 .77-.63c.14-.49-.24-.91-.7-.96q-3.13-.33-4.17-3.28a.42.42 0 0 0-.7-.15q-2.07 2.22-.9 5.26a.85.85 0 0 1-.75 1.16c-1.54.07-1.06-2.69-1.46-3.7a.58.57-13.9 0 0-.6-.36l-4.55.47q-.81.08-.29.7l1.17 1.4a.69.69 0 0 0 .89.15c.55-.33 2.1-2 2.58-1.01a.75.74 58.2 0 1-.21.92l-1.95 1.51a1.02.99 34.2 0 1-.92.16c-4.23-1.3-4.44-7.01-.25-8.39a1.28 1.26-42 0 1 .9.04q2.13.92 2.97 3.1.61 1.55.6-.11Zm-3.61.42q.33.07.66-.07a.6.59 69.5 0 0 .33-.74c-.54-1.6-2.47-1.31-3 .07a.53.52-79.7 0 0 .49.72l1.23-.01q.15 0 .29.03Z"/></svg>