<svg xmlns="http://www.w3.org/2000/svg" viewBox="0 0 350 195"><g fill="none" stroke-width="2"><path stroke="#82bfde" d="M284.4 63.74c-14.72-11.81-29.81-23.18-44.18-35.39a.41.4-80 0 0-.64.45c5.8 16.17 11.19 32.92 17.99 48.83a.42.41 64.6 0 0 .57.21l10.34-5.32a1.02 1.01-7.7 0 0 .53-.69l1.3-6.19a.84.83-67.6 0 1 1.28-.54q6.86 4.5 12.82-.56a.52.52 0 0 0-.01-.8" vector-effect="non-scaling-stroke"/><path stroke="#828f9c" d="M295.17 97.34c14.54-19.58 28.89-39.13 43.24-59.12q.29-.41-.15-.17c-18 9.85-36.05 19.59-54 29.52-7.05 3.9-15.77 7.32-22.02 12.24a.32.32 0 0 0 .02.51l3.41 2.36a1.66 1.63-25 0 0 .85.3q3.82.29 7.52-.78a1.99 1.99 0 0 1 2.44 1.29l1.46 4.44a1.53 1.49-85.5 0 0 .7.84l15.77 8.73a.59.59 0 0 0 .76-.16M233.98 116.61a.37.37 0 0 1 .69-.11l9.7 18.04q.27.49.53 0l9.73-18.15a.56.56 0 0 1 1.06.22q.7 8.24 2.3 15.98c.75 3.63 7.69 2.05 9.54 1.77a.49.49 0 0 0 .4-.58q-3.76-18.64-7.64-37.26c-.4-1.92-.48-4.16-.88-6.08q-.29-1.42-.99-.15l-13.44 24.46q-.38.68-.75 0l-13.48-24.37a.28.27-53.8 0 0-.51.08c-3.13 14.46-5.71 29.21-9.3 43.63a.5.5 0 0 0 .48.62l8.75.06a.83.83 0 0 0 .82-.69l2.99-17.47M36.05 113.43a.51.51 0 0 1-.96-.03q-3.79-11.79-8.54-23.24a.78.77 77.3 0 0-.74-.47l-8.75.26a.39.39 0 0 0-.35.54q6.15 14.9 12.64 29.65c1.9 4.33 4.2 8.63 5.46 13.65a.65.65 0 0 0 1.2.14c7.22-13.73 12.86-29.01 18.93-43.37a.56.56 0 0 0-.52-.78l-8.48-.01a.86.85 10.4 0 0-.8.55l-9.09 23.11M71.5 105.19v-5.44a.5.5 0 0 1 .5-.5h16.75a.5.5 0 0 0 .5-.5v-8.48a.48.47 0 0 0-.48-.47l-26.6.12a.42.42 0 0 0-.42.42v43.78a.62.61 0 0 0 .62.61l26.05.01a1.34 1.34 0 0 0 1.34-1.34l-.01-7.82a.66.65 0 0 0-.66-.65l-16.86.23a.69.69 0 0 1-.7-.68l-.11-9.29a.4.39-1.4 0 1 .39-.4l16-.14a.7.7 0 0 0 .69-.7v-7.17a.72.72 0 0 0-.59-.71c-4.92-.9-10.78-.04-15.92-.35a.53.52-88.3 0 1-.49-.53M111.52 122.74c4.3-.64 11.28.39 12.62 5.4q.79 2.96.63 6.13a.5.5 0 0 0 .52.52l7.6-.33a.73.73 0 0 0 .68-.6q1.48-8.97-4.71-15.26a.63.63 0 0 1-.05-.82c3.82-4.83 6.25-8.47 4.7-14.81-3.83-15.66-19.36-13.57-31.74-12.91a.5.49 89.4 0 0-.47.49l-.31 43.34a.66.66 0 0 0 .65.67l8.53.25a.72.72 0 0 0 .75-.72l.11-10.8a.57.57 0 0 1 .49-.55M164.18 118.25c1.91 2.16 1.29 6.2-2.22 6.48q-8.35.67-16.92.43a.71.71 0 0 0-.73.71l-.01 7.86a.71.7-88.3 0 0 .66.71q11.44.68 17.97-.06c12.48-1.42 17.21-17.62 6.17-24.59q-5.16-3.25-12.29-2.6-5.67.52-5.41-4.81a1.4 1.36 67.9 0 1 .36-.88c1.49-1.62 2.64-2.33 5.03-2.26q6.19.17 12.43-.26a.51.5-1.3 0 0 .48-.49l.18-8.25a.44.44 0 0 0-.43-.45c-5.55-.12-14.91-.97-19.81 1.5-11.05 5.58-9.52 20.33 1.82 24.51 3.73 1.38 10.11-.5 12.72 2.45M214.12 90.04c-2.68-.09-6.32-.67-8.88-.12a.63.62-6.4 0 0-.49.61q.1 13.34.02 26.67-.02 3.86-.76 5.47c-1.41 3.08-5.23 4.52-8.32 2.65-2.91-1.77-3.51-3.73-3.47-7.33q.16-13.78-.12-27.64a.67.67 0 0 0-.7-.66l-8.07.3a.63.63 0 0 0-.61.65q.24 14.79.36 29.52c.13 16.97 23.68 20.93 30.09 5.58q1.37-3.29 1.33-10.63-.07-12.28.11-24.55a.51.51 0 0 0-.49-.52" vector-effect="non-scaling-stroke"/><path stroke="#858d92" d="M204.059 103.243a.84.73 2.9 0 0-.802-.772.84.73 2.9 0 0-.876.686.84.73 2.9 0 0 .802.772.84.73 2.9 0 0 .876-.686M95.85 161.18q1.5 2.47 4.29 1.23a.48.47 69.5 0 0 .26-.58q-2.26-6.9-5.62-13.34a1.23 1.23 0 0 0-2.22.09l-5.57 13.15a.49.48 27.2 0 0 .2.61q2.96 1.72 4.17-1.09a.84.83-78 0 1 .76-.5h2.96a.88.87 74.1 0 1 .77.43M128.75 151.3l4.85-.2a.77.76-.8 0 0 .74-.75l.03-1.91a.69.69 0 0 0-.68-.7l-8.44-.16a.66.66 0 0 0-.67.66l.08 14.01a.75.75 0 0 0 .79.75l8.06-.4a1.02 1.01 7.7 0 0 .9-.68q.54-1.63-.65-2.6a1.38 1.35-24.9 0 0-.91-.32l-3.82.01a.66.65 3.8 0 1-.65-.74l.15-1.13a.62.61-80.6 0 1 .72-.52q3.14.58 4.83-1.67a.49.49 0 0 0-.13-.71c-1.6-1.01-5.72-.58-5.7-2.42a.52.52 0 0 1 .5-.52M153.6 159.22a1.17 1.16 31.3 0 1-.37-1.5c.36-.67 1.18-1.03 1.49-1.89 2.81-7.59-5.47-8.83-10.65-8a.67.67 0 0 0-.56.66l-.03 13.34a.75.75 0 0 0 .67.75l2.24.21a.79.78-83.7 0 0 .86-.69l.33-2.58a.59.59 0 0 1 .66-.52l.97.11a.81.81 0 0 1 .7.65q.74 3.99 4.73 3.04a.67.67 0 0 0 .51-.64q.02-1.87-1.55-2.94M169.8 159.16a1.29 1.28-79.3 0 1-.81-1.2l.02-5.64a1.13 1.11-19.5 0 1 .43-.88l1.19-.93a1.1 1.09-18.8 0 0 .43-.87c.04-2.64-4.5-1.99-6.32-2.13a.88.85 17.7 0 0-.78.39c-.95 1.47-.58 2.69.82 3.63a.89.88 15.6 0 1 .4.7l.29 5.55a.87.87 0 0 1-.47.82q-2.34 1.22-1.16 3.85a.91.9 75.8 0 0 .88.53l4.65-.29q2.19-.13 1.59-2.25-.27-.93-1.16-1.28M220.04 152.17c-.51-1.59 5.21-.85 5.99-.77a1.01 1 23.6 0 0 .85-.33c2.27-2.54-5.92-4.97-8.65-2.43-1.85 1.71-2.1 5.12-.04 6.69 1.33 1 3.91.97 5.72 1.46a.81.8-82.5 0 1 .59.78v.5a.71.71 0 0 1-.47.67c-2.81 1-4.94-1.66-6.93.02a.76.76 0 0 0-.24.82c3.25 9.95 22.4-3.93 3.85-6.83a.83.83 0 0 1-.67-.58M70.53 154.63q.82.23 1.1 1.21.39 1.38 1.27 2.17a1.4 1.39 40.4 0 0 2.01-.16l2.18-2.65q.66-.81.66.23v6.76a.63.62 86 0 0 .71.62l1.97-.28a.67.66 86 0 0 .57-.66v-13.13a.84.84 0 0 0-.44-.74c-1.44-.82-4.93 4.4-6.34 5.49a.6.6 0 0 1-.79-.06l-5.26-5.44a.94.94 0 0 0-1.61.67l.26 13.59a.59.58 83.4 0 0 .7.56l1.82-.35a.83.82 84.5 0 0 .66-.81v-6.62a.42.42 0 0 1 .53-.4M112.5 151.93a.67.67 0 0 1 .66-.67l2.93-.05a.67.67 0 0 0 .66-.67v-2.12a.67.67 0 0 0-.67-.67h-9.7a.67.67 0 0 0-.67.65l-.06 2.12a.67.67 0 0 0 .65.69l2.05.05a.67.67 0 0 1 .65.67v10.06a.67.67 0 0 0 .64.67l2.16.11a.67.67 0 0 0 .7-.67v-10.17M178.88 162.48l1.85.65a.8.79 24.9 0 0 .94-.34q1.78-2.88 5.3-1.89a1.33 1.32-9.2 0 1 .73.52q1.48 2.18 4.02 1.23a.65.65 0 0 0 .37-.85l-5.39-13.28a1.23 1.23 0 0 0-2.18-.2q-2.42 3.79-3.7 8.36c-.49 1.76-1.57 3.15-2.35 4.82a.72.72 0 0 0 .41.98M204 159a.75.75 0 0 1-.75-.75v-9.62a.75.75 0 0 0-.69-.75l-1.7-.13a.75.75 0 0 0-.81.74l-.08 13.54a.75.75 0 0 0 .77.76l8.66-.15a.75.75 0 0 0 .73-.83l-.23-2.14a.75.75 0 0 0-.74-.67H204" vector-effect="non-scaling-stroke"/><path stroke="#828f9c" d="M123.97 104.6c-1.01-5.51-8.08-6.56-12.49-5.66a.6.59-6 0 0-.48.58v13.68a.52.52 0 0 0 .48.52c6.65.43 14.09-.44 12.49-9.12" vector-effect="non-scaling-stroke"/><path stroke="#858d92" d="M93.19 156.44q-.32.3.05 1.09a.4.4 0 0 0 .72 0q.61-1.28.13-2.61-.26-.71-.65-.07-.43.7-.25 1.59M150.47 151.47l-2.24-.26a.59.58-81.9 0 0-.65.49c-.99 6.6 4.79 3.84 3.57.32a.83.82 83.7 0 0-.68-.55" vector-effect="non-scaling-stroke"/><path stroke="#084d70" d="M185.292 157.929a1.86.97 92.1 0 0 1.037-1.823 1.86.97 92.1 0 0-.9-1.895 1.86.97 92.1 0 0-1.038 1.823 1.86.97 92.1 0 0 .9 1.895" vector-effect="non-scaling-stroke"/></g><path fill="#fff" d="M0 0h350v195H0V0Zm284.4 63.74c-14.72-11.81-29.81-23.18-44.18-35.39a.41.4-80 0 0-.64.45c5.8 16.17 11.19 32.92 17.99 48.83a.42.41 64.6 0 0 .57.21l10.34-5.32a1.02 1.01-7.7 0 0 .53-.69l1.3-6.19a.84.83-67.6 0 1 1.28-.54q6.86 4.5 12.82-.56a.52.52 0 0 0-.01-.8Zm10.77 33.6c14.54-19.58 28.89-39.13 43.24-59.12q.29-.41-.15-.17c-18 9.85-36.05 19.59-54 29.52-7.05 3.9-15.77 7.32-22.02 12.24a.32.32 0 0 0 .02.51l3.41 2.36a1.66 1.63-25 0 0 .85.3q3.82.29 7.52-.78a1.99 1.99 0 0 1 2.44 1.29l1.46 4.44a1.53 1.49-85.5 0 0 .7.84l15.77 8.73a.59.59 0 0 0 .76-.16Zm-61.19 19.27a.37.37 0 0 1 .69-.11l9.7 18.04q.27.49.53 0l9.73-18.15a.56.56 0 0 1 1.06.22q.7 8.24 2.3 15.98c.75 3.63 7.69 2.05 9.54 1.77a.49.49 0 0 0 .4-.58q-3.76-18.64-7.64-37.26c-.4-1.92-.48-4.16-.88-6.08q-.29-1.42-.99-.15l-13.44 24.46q-.38.68-.75 0l-13.48-24.37a.28.27-53.8 0 0-.51.08c-3.13 14.46-5.71 29.21-9.3 43.63a.5.5 0 0 0 .48.62l8.75.06a.83.83 0 0 0 .82-.69l2.99-17.47Zm-197.93-3.18a.51.51 0 0 1-.96-.03q-3.79-11.79-8.54-23.24a.78.77 77.3 0 0-.74-.47l-8.75.26a.39.39 0 0 0-.35.54q6.15 14.9 12.64 29.65c1.9 4.33 4.2 8.63 5.46 13.65a.65.65 0 0 0 1.2.14c7.22-13.73 12.86-29.01 18.93-43.37a.56.56 0 0 0-.52-.78l-8.48-.01a.86.85 10.4 0 0-.8.55l-9.09 23.11Zm35.45-8.24v-5.44a.5.5 0 0 1 .5-.5h16.75a.5.5 0 0 0 .5-.5v-8.48a.48.47 0 0 0-.48-.47l-26.6.12a.42.42 0 0 0-.42.42v43.78a.62.61 0 0 0 .62.61l26.05.01a1.34 1.34 0 0 0 1.34-1.34l-.01-7.82a.66.65 0 0 0-.66-.65l-16.86.23a.69.69 0 0 1-.7-.68l-.11-9.29a.4.39-1.4 0 1 .39-.4l16-.14a.7.7 0 0 0 .69-.7v-7.17a.72.72 0 0 0-.59-.71c-4.92-.9-10.78-.04-15.92-.35a.53.52-88.3 0 1-.49-.53Zm40.02 17.55c4.3-.64 11.28.39 12.62 5.4q.79 2.96.63 6.13a.5.5 0 0 0 .52.52l7.6-.33a.73.73 0 0 0 .68-.6q1.48-8.97-4.71-15.26a.63.63 0 0 1-.05-.82c3.82-4.83 6.25-8.47 4.7-14.81-3.83-15.66-19.36-13.57-31.74-12.91a.5.49 89.4 0 0-.47.49l-.31 43.34a.66.66 0 0 0 .65.67l8.53.25a.72.72 0 0 0 .75-.72l.11-10.8a.57.57 0 0 1 .49-.55Zm52.66-4.49c1.91 2.16 1.29 6.2-2.22 6.48q-8.35.67-16.92.43a.71.71 0 0 0-.73.71l-.01 7.86a.71.7-88.3 0 0 .66.71q11.44.68 17.97-.06c12.48-1.42 17.21-17.62 6.17-24.59q-5.16-3.25-12.29-2.6-5.67.52-5.41-4.81a1.4 1.36 67.9 0 1 .36-.88c1.49-1.62 2.64-2.33 5.03-2.26q6.19.17 12.43-.26a.51.5-1.3 0 0 .48-.49l.18-8.25a.44.44 0 0 0-.43-.45c-5.55-.12-14.91-.97-19.81 1.5-11.05 5.58-9.52 20.33 1.82 24.51 3.73 1.38 10.11-.5 12.72 2.45Zm49.94-28.21c-2.68-.09-6.32-.67-8.88-.12a.63.62-6.4 0 0-.49.61q.1 13.34.02 26.67-.02 3.86-.76 5.47c-1.41 3.08-5.23 4.52-8.32 2.65-2.91-1.77-3.51-3.73-3.47-7.33q.16-13.78-.12-27.64a.67.67 0 0 0-.7-.66l-8.07.3a.63.63 0 0 0-.61.65q.24 14.79.36 29.52c.13 16.97 23.68 20.93 30.09 5.58q1.37-3.29 1.33-10.63-.07-12.28.11-24.55a.51.51 0 0 0-.49-.52Zm-10.061 13.203a.84.73 2.9 0 0-.802-.772.84.73 2.9 0 0-.876.686.84.73 2.9 0 0 .802.772.84.73 2.9 0 0 .876-.686ZM95.85 161.18q1.5 2.47 4.29 1.23a.48.47 69.5 0 0 .26-.58q-2.26-6.9-5.62-13.34a1.23 1.23 0 0 0-2.22.09l-5.57 13.15a.49.48 27.2 0 0 .2.61q2.96 1.72 4.17-1.09a.84.83-78 0 1 .76-.5h2.96a.88.87 74.1 0 1 .77.43Zm32.9-9.88 4.85-.2a.77.76-.8 0 0 .74-.75l.03-1.91a.69.69 0 0 0-.68-.7l-8.44-.16a.66.66 0 0 0-.67.66l.08 14.01a.75.75 0 0 0 .79.75l8.06-.4a1.02 1.01 7.7 0 0 .9-.68q.54-1.63-.65-2.6a1.38 1.35-24.9 0 0-.91-.32l-3.82.01a.66.65 3.8 0 1-.65-.74l.15-1.13a.62.61-80.6 0 1 .72-.52q3.14.58 4.83-1.67a.49.49 0 0 0-.13-.71c-1.6-1.01-5.72-.58-5.7-2.42a.52.52 0 0 1 .5-.52Zm24.85 7.92a1.17 1.16 31.3 0 1-.37-1.5c.36-.67 1.18-1.03 1.49-1.89 2.81-7.59-5.47-8.83-10.65-8a.67.67 0 0 0-.56.66l-.03 13.34a.75.75 0 0 0 .67.75l2.24.21a.79.78-83.7 0 0 .86-.69l.33-2.58a.59.59 0 0 1 .66-.52l.97.11a.81.81 0 0 1 .7.65q.74 3.99 4.73 3.04a.67.67 0 0 0 .51-.64q.02-1.87-1.55-2.94Zm16.2-.06a1.29 1.28-79.3 0 1-.81-1.2l.02-5.64a1.13 1.11-19.5 0 1 .43-.88l1.19-.93a1.1 1.09-18.8 0 0 .43-.87c.04-2.64-4.5-1.99-6.32-2.13a.88.85 17.7 0 0-.78.39c-.95 1.47-.58 2.69.82 3.63a.89.88 15.6 0 1 .4.7l.29 5.55a.87.87 0 0 1-.47.82q-2.34 1.22-1.16 3.85a.91.9 75.8 0 0 .88.53l4.65-.29q2.19-.13 1.59-2.25-.27-.93-1.16-1.28Zm50.24-6.99c-.51-1.59 5.21-.85 5.99-.77a1.01 1 23.6 0 0 .85-.33c2.27-2.54-5.92-4.97-8.65-2.43-1.85 1.71-2.1 5.12-.04 6.69 1.33 1 3.91.97 5.72 1.46a.81.8-82.5 0 1 .59.78v.5a.71.71 0 0 1-.47.67c-2.81 1-4.94-1.66-6.93.02a.76.76 0 0 0-.24.82c3.25 9.95 22.4-3.93 3.85-6.83a.83.83 0 0 1-.67-.58Zm-149.51 2.46q.82.23 1.1 1.21.39 1.38 1.27 2.17a1.4 1.39 40.4 0 0 2.01-.16l2.18-2.65q.66-.81.66.23v6.76a.63.62 86 0 0 .71.62l1.97-.28a.67.66 86 0 0 .57-.66v-13.13a.84.84 0 0 0-.44-.74c-1.44-.82-4.93 4.4-6.34 5.49a.6.6 0 0 1-.79-.06l-5.26-5.44a.94.94 0 0 0-1.61.67l.26 13.59a.59.58 83.4 0 0 .7.56l1.82-.35a.83.82 84.5 0 0 .66-.81v-6.62a.42.42 0 0 1 .53-.4Zm41.97-2.7a.67.67 0 0 1 .66-.67l2.93-.05a.67.67 0 0 0 .66-.67v-2.12a.67.67 0 0 0-.67-.67h-9.7a.67.67 0 0 0-.67.65l-.06 2.12a.67.67 0 0 0 .65.69l2.05.05a.67.67 0 0 1 .65.67v10.06a.67.67 0 0 0 .64.67l2.16.11a.67.67 0 0 0 .7-.67v-10.17Zm66.38 10.55 1.85.65a.8.79 24.9 0 0 .94-.34q1.78-2.88 5.3-1.89a1.33 1.32-9.2 0 1 .73.52q1.48 2.18 4.02 1.23a.65.65 0 0 0 .37-.85l-5.39-13.28a1.23 1.23 0 0 0-2.18-.2q-2.42 3.79-3.7 8.36c-.49 1.76-1.57 3.15-2.35 4.82a.72.72 0 0 0 .41.98ZM204 159a.75.75 0 0 1-.75-.75v-9.62a.75.75 0 0 0-.69-.75l-1.7-.13a.75.75 0 0 0-.81.74l-.08 13.54a.75.75 0 0 0 .77.76l8.66-.15a.75.75 0 0 0 .73-.83l-.23-2.14a.75.75 0 0 0-.74-.67H204Z"/><path fill="#047fbc" d="M240.22 28.35c14.37 12.21 29.46 23.58 44.18 35.39a.52.52 0 0 1 .01.8q-5.96 5.06-12.82.56a.84.83-67.6 0 0-1.28.54l-1.3 6.19a1.02 1.01-7.7 0 1-.53.69l-10.34 5.32a.42.41 64.6 0 1-.57-.21c-6.8-15.91-12.19-32.66-17.99-48.83a.41.4-80 0 1 .64-.45Z"/><path fill="#041f39" d="M338.41 38.22c-14.35 19.99-28.7 39.54-43.24 59.12a.59.59 0 0 1-.76.16l-15.77-8.73a1.53 1.49-85.5 0 1-.7-.84l-1.46-4.44a1.99 1.99 0 0 0-2.44-1.29q-3.7 1.07-7.52.78a1.66 1.63-25 0 1-.85-.3l-3.41-2.36a.32.32 0 0 1-.02-.51c6.25-4.92 14.97-8.34 22.02-12.24 17.95-9.93 36-19.67 54-29.52q.44-.24.15.17ZM233.98 116.61l-2.99 17.47a.83.83 0 0 1-.82.69l-8.75-.06a.5.5 0 0 1-.48-.62c3.59-14.42 6.17-29.17 9.3-43.63a.28.27-53.8 0 1 .51-.08l13.48 24.37q.37.68.75 0l13.44-24.46q.7-1.27.99.15c.4 1.92.48 4.16.88 6.08q3.88 18.62 7.64 37.26a.49.49 0 0 1-.4.58c-1.85.28-8.79 1.86-9.54-1.77q-1.6-7.74-2.3-15.98a.56.56 0 0 0-1.06-.22l-9.73 18.15q-.26.49-.53 0l-9.7-18.04a.37.37 0 0 0-.69.11ZM36.05 113.43l9.09-23.11a.86.85 10.4 0 1 .8-.55l8.48.01a.56.56 0 0 1 .52.78c-6.07 14.36-11.71 29.64-18.93 43.37a.65.65 0 0 1-1.2-.14c-1.26-5.02-3.56-9.32-5.46-13.65q-6.49-14.75-12.64-29.65a.39.39 0 0 1 .35-.54l8.75-.26a.78.77 77.3 0 1 .74.47q4.75 11.45 8.54 23.24a.51.51 0 0 0 .96.03ZM71.99 105.72c5.14.31 11-.55 15.92.35a.72.72 0 0 1 .59.71v7.17a.7.7 0 0 1-.69.7l-16 .14a.4.39-1.4 0 0-.39.4l.11 9.29a.69.69 0 0 0 .7.68l16.86-.23a.66.65 0 0 1 .66.65l.01 7.82a1.34 1.34 0 0 1-1.34 1.34l-26.05-.01a.62.61 0 0 1-.62-.61V90.34a.42.42 0 0 1 .42-.42l26.6-.12a.48.47 0 0 1 .48.47v8.48a.5.5 0 0 1-.5.5H72a.5.5 0 0 0-.5.5v5.44a.53.52-88.3 0 0 .49.53ZM111.03 123.29l-.11 10.8a.72.72 0 0 1-.75.72l-8.53-.25a.66.66 0 0 1-.65-.67l.31-43.34a.5.49 89.4 0 1 .47-.49c12.38-.66 27.91-2.75 31.74 12.91 1.55 6.34-.88 9.98-4.7 14.81a.63.63 0 0 0 .05.82q6.19 6.29 4.71 15.26a.73.73 0 0 1-.68.6l-7.6.33a.5.5 0 0 1-.52-.52q.16-3.17-.63-6.13c-1.34-5.01-8.32-6.04-12.62-5.4a.57.57 0 0 0-.49.55Zm12.94-18.69c-1.01-5.51-8.08-6.56-12.49-5.66a.6.59-6 0 0-.48.58v13.68a.52.52 0 0 0 .48.52c6.65.43 14.09-.44 12.49-9.12ZM161.96 124.73c3.51-.28 4.13-4.32 2.22-6.48-2.61-2.95-8.99-1.07-12.72-2.45-11.34-4.18-12.87-18.93-1.82-24.51 4.9-2.47 14.26-1.62 19.81-1.5a.44.44 0 0 1 .43.45l-.18 8.25a.51.5-1.3 0 1-.48.49q-6.24.43-12.43.26c-2.39-.07-3.54.64-5.03 2.26a1.4 1.36 67.9 0 0-.36.88q-.26 5.33 5.41 4.81 7.13-.65 12.29 2.6c11.04 6.97 6.31 23.17-6.17 24.59q-6.53.74-17.97.06a.71.7-88.3 0 1-.66-.71l.01-7.86a.71.71 0 0 1 .73-.71q8.57.24 16.92-.43ZM205.24 89.92c2.56-.55 6.2.03 8.88.12a.51.51 0 0 1 .49.52q-.18 12.27-.11 24.55.04 7.34-1.33 10.63c-6.41 15.35-29.96 11.39-30.09-5.58q-.12-14.73-.36-29.52a.63.63 0 0 1 .61-.65l8.07-.3a.67.67 0 0 1 .7.66q.28 13.86.12 27.64c-.04 3.6.56 5.56 3.47 7.33 3.09 1.87 6.91.43 8.32-2.65q.74-1.61.76-5.47.08-13.33-.02-26.67a.63.62-6.4 0 1 .49-.61Z"/><path fill="#fff" d="M111.48 98.94c4.41-.9 11.48.15 12.49 5.66 1.6 8.68-5.84 9.55-12.49 9.12a.52.52 0 0 1-.48-.52V99.52a.6.59-6 0 1 .48-.58Z"/><ellipse fill="#0b1b24" rx=".84" ry=".73" transform="rotate(2.9 -1936.894 4065.794)"/><path fill="#0b1b24" d="M95.08 160.75h-2.96a.84.83-78 0 0-.76.5q-1.21 2.81-4.17 1.09a.49.48 27.2 0 1-.2-.61l5.57-13.15a1.23 1.23 0 0 1 2.22-.09q3.36 6.44 5.62 13.34a.48.47 69.5 0 1-.26.58q-2.79 1.24-4.29-1.23a.88.87 74.1 0 0-.77-.43Zm-1.89-4.31q-.32.3.05 1.09a.4.4 0 0 0 .72 0q.61-1.28.13-2.61-.26-.71-.65-.07-.43.7-.25 1.59ZM128.25 151.82c-.02 1.84 4.1 1.41 5.7 2.42a.49.49 0 0 1 .13.71q-1.69 2.25-4.83 1.67a.62.61-80.6 0 0-.72.52l-.15 1.13a.66.65 3.8 0 0 .65.74l3.82-.01a1.38 1.35-24.9 0 1 .91.32q1.19.97.65 2.6a1.02 1.01 7.7 0 1-.9.68l-8.06.4a.75.75 0 0 1-.79-.75l-.08-14.01a.66.66 0 0 1 .67-.66l8.44.16a.69.69 0 0 1 .68.7l-.03 1.91a.77.76-.8 0 1-.74.75l-4.85.2a.52.52 0 0 0-.5.52ZM153.6 159.22q1.57 1.07 1.55 2.94a.67.67 0 0 1-.51.64q-3.99.95-4.73-3.04a.81.81 0 0 0-.7-.65l-.97-.11a.59.59 0 0 0-.66.52l-.33 2.58a.79.78-83.7 0 1-.86.69l-2.24-.21a.75.75 0 0 1-.67-.75l.03-13.34a.67.67 0 0 1 .56-.66c5.18-.83 13.46.41 10.65 8-.31.86-1.13 1.22-1.49 1.89a1.17 1.16 31.3 0 0 .37 1.5Zm-3.13-7.75-2.24-.26a.59.58-81.9 0 0-.65.49c-.99 6.6 4.79 3.84 3.57.32a.83.82 83.7 0 0-.68-.55ZM169.8 159.16q.89.35 1.16 1.28.6 2.12-1.59 2.25l-4.65.29a.91.9 75.8 0 1-.88-.53q-1.18-2.63 1.16-3.85a.87.87 0 0 0 .47-.82l-.29-5.55a.89.88 15.6 0 0-.4-.7c-1.4-.94-1.77-2.16-.82-3.63a.88.85 17.7 0 1 .78-.39c1.82.14 6.36-.51 6.32 2.13a1.1 1.09-18.8 0 1-.43.87l-1.19.93a1.13 1.11-19.5 0 0-.43.88l-.02 5.64a1.29 1.28-79.3 0 0 .81 1.2ZM220.71 152.75c18.55 2.9-.6 16.78-3.85 6.83a.76.76 0 0 1 .24-.82c1.99-1.68 4.12.98 6.93-.02a.71.71 0 0 0 .47-.67v-.5a.81.8-82.5 0 0-.59-.78c-1.81-.49-4.39-.46-5.72-1.46-2.06-1.57-1.81-4.98.04-6.69 2.73-2.54 10.92-.11 8.65 2.43a1.01 1 23.6 0 1-.85.33c-.78-.08-6.5-.82-5.99.77a.83.83 0 0 0 .67.58ZM70 155.03v6.62a.83.82 84.5 0 1-.66.81l-1.82.35a.59.58 83.4 0 1-.7-.56l-.26-13.59a.94.94 0 0 1 1.61-.67l5.26 5.44a.6.6 0 0 0 .79.06c1.41-1.09 4.9-6.31 6.34-5.49a.84.84 0 0 1 .44.74v13.13a.67.66 86 0 1-.57.66l-1.97.28a.63.62 86 0 1-.71-.62v-6.76q0-1.04-.66-.23l-2.18 2.65a1.4 1.39 40.4 0 1-2.01.16q-.88-.79-1.27-2.17-.28-.98-1.1-1.21a.42.42 0 0 0-.53.4ZM112.5 151.93v10.17a.67.67 0 0 1-.7.67l-2.16-.11a.67.67 0 0 1-.64-.67v-10.06a.67.67 0 0 0-.65-.67l-2.05-.05a.67.67 0 0 1-.65-.69l.06-2.12a.67.67 0 0 1 .67-.65h9.7a.67.67 0 0 1 .67.67v2.12a.67.67 0 0 1-.66.67l-2.93.05a.67.67 0 0 0-.66.67ZM178.88 162.48a.72.72 0 0 1-.41-.98c.78-1.67 1.86-3.06 2.35-4.82q1.28-4.57 3.7-8.36a1.23 1.23 0 0 1 2.18.2l5.39 13.28a.65.65 0 0 1-.37.85q-2.54.95-4.02-1.23a1.33 1.32-9.2 0 0-.73-.52q-3.52-.99-5.3 1.89a.8.79 24.9 0 1-.94.34l-1.85-.65Zm6.412-4.551a1.86.97 92.1 0 0 1.037-1.823 1.86.97 92.1 0 0-.9-1.895 1.86.97 92.1 0 0-1.038 1.823 1.86.97 92.1 0 0 .9 1.895ZM204 159h5.16a.75.75 0 0 1 .74.67l.23 2.14a.75.75 0 0 1-.73.83l-8.66.15a.75.75 0 0 1-.77-.76l.08-13.54a.75.75 0 0 1 .81-.74l1.7.13a.75.75 0 0 1 .69.75v9.62a.75.75 0 0 0 .75.75Z"/><path fill="#fff" d="M150.47 151.47a.83.82 83.7 0 1 .68.55c1.22 3.52-4.56 6.28-3.57-.32a.59.58-81.9 0 1 .65-.49l2.24.26Z"/><ellipse fill="#047fbc" rx="1.86" ry=".97" transform="rotate(92.1 17.454 167.379)"/><path fill="#fff" d="M93.19 156.44q-.18-.89.25-1.59.39-.64.65.07.48 1.33-.13 2.61a.4.4 0 0 1-.72 0q-.37-.79-.05-1.09Z"/></svg>