<svg xmlns="http://www.w3.org/2000/svg" viewBox="0 0 1448 1448"><g fill="none" stroke-width="2"><path stroke="#224a4f" d="m1448 1447.06-1446.71-.04" vector-effect="non-scaling-stroke"/><path stroke="#5c6f64" d="M1.29 1447.02c-.94-.35-.27-1.33-.27-2.03-.07-15.35.23-31.59.23-45.99V50.3c0-15.07-.69-32.41-.22-49.55Q1.05-.03 0 .19" vector-effect="non-scaling-stroke"/><path stroke="gray" d="M1446.5 1.77a.27.27 0 0 0-.27-.27H2.77a.27.27 0 0 0-.27.27v1443.46a.27.27 0 0 0 .27.27h1443.46a.27.27 0 0 0 .27-.27V1.77" vector-effect="non-scaling-stroke"/><path stroke="#7cb8b2" d="m1.29 1447.02-.1.98" vector-effect="non-scaling-stroke"/><path stroke="#5c6f64" d="M0 1446.94q.25-2.62.26-5.25Q.51 739 .26 36.31.26 19 0 1.69" vector-effect="non-scaling-stroke"/><path stroke="#dbeee3" d="M696.71 457.25c-.96.23-12.9-18.55-14.34-20.75-1.89-2.86-2.54-3.07-5.88-3.1q-29.4-.26-43.22.42" vector-effect="non-scaling-stroke"/><path stroke="#a1c9ce" d="M633.27 433.82c-.71-.14-73.66 111.16-80.57 121.67" vector-effect="non-scaling-stroke"/><path stroke="#9dd9e1" d="m552.7 555.49-19.07.3a.39.38 77 0 0-.34.55q3.97 8.58 4.32 18.04a.56.55-1.1 0 0 .56.53L724 573.54" vector-effect="non-scaling-stroke"/><path stroke="#dbeee3" d="m724 573.54 1.5 1.42" vector-effect="non-scaling-stroke"/><path stroke="#bde2d0" d="m725.5 574.96-2.5 2.58" vector-effect="non-scaling-stroke"/><path stroke="#9dd9e1" d="m723 577.54-184.56 1.38a.9.89 2.5 0 0-.88.8q-.84 8.56-4.51 16.31a.56.56 0 0 0 .55.8q10.73-.78 19.93.87" vector-effect="non-scaling-stroke"/><path stroke="#a1c9ce" d="m553.53 597.7 78.86 119.74a1.25 1.25 0 0 0 1.04.56q22.28.01 44.48-.01c.79 0 1.43-.45 1.59-1.2" vector-effect="non-scaling-stroke"/><path stroke="#bde2d0" d="M679.5 716.79c1.59-2.4 16.08-24.86 16.75-24.83" vector-effect="non-scaling-stroke"/><path stroke="#a1c9ce" d="m696.25 691.96 16.18 24.81" vector-effect="non-scaling-stroke"/><path stroke="#bde2d0" d="M712.43 716.77q23.18.85 45.76.48a1.97 1.96-73.8 0 0 1.6-.88q38.9-58.94 77.72-117.87.6-.91 1.49-1.54" vector-effect="non-scaling-stroke"/><path stroke="#9dd9e1" d="M839 596.96q52.71-.36 105.39-.21 13.26.04 19.58-1.36c50.9-11.22 50.47-82.91-.8-93.17q-6.04-1.2-19.92-1.25-21.68-.07-43.35-.24c-5.89-.04-15.02.4-22.58-.02q-4.2-.24-6.42-1.48c-8.14-4.52-6.66-16.97 1.97-19.93q2.31-.8 8-.78 65.39.22 130.85-.04a.52.52 0 0 1 .53.52v117.21a.49.49 0 0 0 .47.49c16.4.56 28.22-.47 42.28.27a.47.47 0 0 0 .5-.47V479a.5.5 0 0 1 .5-.5h69.49a.55.54-.5 0 0 .55-.55l-.06-16.25a1.44 1.44 0 0 0-1.44-1.44q-122.15-.03-242.48.25c-17.11.04-35.43 5.99-36.55 25.98-1.53 27.52 34.59 28.57 53.32 28.93q21.3.42 42.6.6c13.97.12 25.67 3.15 34.98 14.29 10.07 12.06 8.61 29.59-3.79 38.79-9.37 6.96-23.55 6.81-34.62 6.9q-42.6.36-85.21.5" vector-effect="non-scaling-stroke"/><path stroke="#bde2d0" d="m852.79 576.5-.58-1.25" vector-effect="non-scaling-stroke"/><path stroke="#dbeee3" d="m852.21 575.25.19-2.56" vector-effect="non-scaling-stroke"/><path stroke="#9dd9e1" d="M852.4 572.69q45.65-.34 91.04-.75c14.29-.13 29.94-1.87 34.66-17.82 5.33-17.98-12.27-31.82-28.1-33.64q-6.35-.73-12.75-.74c-22.01-.02-45.04 1.01-66.73-3.08-14.28-2.69-27.22-9.34-28.92-25.47-2.64-25.09 20.02-34.91 40.96-34.92q121.45-.04 242.9-.02a.52.52 0 0 0 .52-.52l.05-19.52a.45.45 0 0 0-.45-.46q-123.36-.01-246.66.01c-23.77.01-42.16 5.36-53.47 27.61-13.83 27.21 2.14 59.64 31.08 66.49q8.39 1.99 18.72 2.07 33.14.27 66.29.36 6.15.01 8.65 1.07c8.02 3.39 8.83 15.98 1.36 20.25-3.64 2.08-8.73 2.15-13.05 2.15q-48.7-.02-97.5.01" vector-effect="non-scaling-stroke"/><path stroke="#dbeee3" d="M841 555.77c-.55-.39-.51-.19-.9-.78Q799.98 494 759.66 433.02a.95.93-15.7 0 0-.77-.42l-45.54-.17" vector-effect="non-scaling-stroke"/><path stroke="#a1c9ce" d="M713.35 432.43q-8.84 12.06-16.64 24.82" vector-effect="non-scaling-stroke"/><path stroke="#7cb8b2" d="m713.35 432.43-.46 1.57a1.12 1.12 0 0 0 .15.93l22.35 33.9q.28.43.33.94l.07.73" vector-effect="non-scaling-stroke"/><path stroke="#a1c9ce" d="M735.79 470.5 720.46 494" vector-effect="non-scaling-stroke"/><path stroke="#7cb8b2" d="M720.46 494c-2.3-3.38-24.33-35.9-23.75-36.75" vector-effect="non-scaling-stroke"/><path stroke="#79c8c5" d="M841 555.77q4.92 9 11.4 16.92" vector-effect="non-scaling-stroke"/><path stroke="#99d1b4" d="M852.21 575.25h-46.92" vector-effect="non-scaling-stroke"/><path stroke="#dbeee3" d="M805.29 575.25q-.02-1.64-1.79-2.04" vector-effect="non-scaling-stroke"/><path stroke="#79c8c5" d="M803.5 573.21c.19-2.02-8.3-13.8-9.93-16.27q-.27-.41-.65-.71l-.67-.52" vector-effect="non-scaling-stroke"/><path stroke="#dbeee3" d="M792.25 555.71q.03-.69-.98-2.22-27.34-41.27-54.49-82.66c-.3-.45-.47-.41-.99-.33M720.46 494l40.58 61.5" vector-effect="non-scaling-stroke"/><path stroke="#79c8c5" d="M761.04 555.5q5.26 8.22 10.72 16.3.52.77 1.24 1.41" vector-effect="non-scaling-stroke"/><path stroke="#dbeee3" d="m773 573.21-.29 1.54" vector-effect="non-scaling-stroke"/><path stroke="#99d1b4" d="M772.71 574.75c-15.44 1.01-31.14.5-46.66.5a.47.44 67.9 0 1-.34-.16q-.09-.11-.21-.13" vector-effect="non-scaling-stroke"/><path stroke="#79c8c5" d="M724 573.54q.4-.31.06-.85-6.76-10.93-11.15-17.07" vector-effect="non-scaling-stroke"/><path stroke="#dbeee3" d="m712.91 555.62-16.16-24.91a.5.49 72.4 0 0-.41-.22l-.3.01" vector-effect="non-scaling-stroke"/><path stroke="#7cb8b2" d="M696.04 530.5q-.03-.73-.43-1.34-11.52-17.71-23.36-35.2" vector-effect="non-scaling-stroke"/><path stroke="#dbeee3" d="M672.25 493.96q-7.46-11.34-14.92-22.69c-.35-.52-.37-.32-.83-.56" vector-effect="non-scaling-stroke"/><path stroke="#7cb8b2" d="M656.5 470.71c.03-.42.04-.8-.22-1.17q-11.91-17.48-23.01-35.72" vector-effect="non-scaling-stroke"/><path stroke="#9dd9e1" d="m792.25 555.71-31.21-.21" vector-effect="non-scaling-stroke"/><path stroke="#5fab9f" d="M712.43 716.77q.5-1.66.79-2.11 11.01-17.05 22.26-33.94.28-.42.31-1.47" vector-effect="non-scaling-stroke"/><path stroke="#bde2d0" d="M735.79 679.25q.47.14.72-.24 26.97-40.8 53.88-81.63a.33.32-44.2 0 0 .01-.34l-.15-.25" vector-effect="non-scaling-stroke"/><path stroke="#5bbcb1" d="M790.25 596.79q.85-.3 1.59-1.46 8.27-12.8 11.54-18.28" vector-effect="non-scaling-stroke"/><path stroke="#9dd9e1" d="M803.5 573.21H773" vector-effect="non-scaling-stroke"/><path stroke="#bde2d0" d="m805.29 575.25-1.91 1.8" vector-effect="non-scaling-stroke"/><path stroke="#9dd9e1" d="m803.38 577.05-31.38.16" vector-effect="non-scaling-stroke"/><path stroke="#bde2d0" d="m772 577.21.71-2.46" vector-effect="non-scaling-stroke"/><path stroke="#5bbcb1" d="M772 577.21q-7.06 9.54-13.19 19.58" vector-effect="non-scaling-stroke"/><path stroke="#bde2d0" d="m758.81 596.79-38.6 58.46" vector-effect="non-scaling-stroke"/><path stroke="#5fab9f" d="M720.21 655.25c-2.46 3.66-24.24 35.54-23.96 36.71M679.5 716.79c-.72.21-.89.46-1.69.46q-21.88.01-43.84-.01a1.4 1.4 0 0 1-1.17-2.17q9.56-14.69 19.3-29.23 2.4-3.58 3.49-6.01" vector-effect="non-scaling-stroke"/><path stroke="#bde2d0" d="M655.59 679.83q8.71-11.92 16.45-24.58" vector-effect="non-scaling-stroke"/><path stroke="#5fab9f" d="M672.04 655.25q12.03-17.59 23.49-35.57c.3-.46.19-.64.22-1.14" vector-effect="non-scaling-stroke"/><path stroke="#bde2d0" d="M695.75 618.54c1.13.09 13.04-18.77 14.56-21.09a.32.32 0 0 0-.18-.48q-.17-.05-.38-.01" vector-effect="non-scaling-stroke"/><path stroke="#5bbcb1" d="M709.75 596.96c1.97-.48 12.18-16.78 13.25-19.42" vector-effect="non-scaling-stroke"/><path stroke="#a1c9ce" d="m656.5 470.71-55.95 84.7" vector-effect="non-scaling-stroke"/><path stroke="#3fa3b0" d="M600.55 555.41q-24.03.78-47.85.08" vector-effect="non-scaling-stroke"/><path stroke="#a1c9ce" d="m672.25 493.96-40.29 61.29" vector-effect="non-scaling-stroke"/><path stroke="#9dd9e1" d="m631.96 555.25-31.41.16M712.91 555.62l-33.16-.41" vector-effect="non-scaling-stroke"/><path stroke="#a1c9ce" d="m696.04 530.5-16.29 24.71" vector-effect="non-scaling-stroke"/><path stroke="#3fa3b0" d="M679.75 555.21c-.92.14-1.78.54-2.69.54q-22.41.01-44.81-.01a.24.23-4.1 0 1-.24-.2l-.05-.29" vector-effect="non-scaling-stroke"/><path stroke="#5bbcb1" d="M839 596.96q4.76-8.38 11.94-18.52.98-1.39 1.85-1.94" vector-effect="non-scaling-stroke"/><path stroke="#9dd9e1" d="M790.25 596.79h-31.44" vector-effect="non-scaling-stroke"/><path stroke="#a1c9ce" d="m735.79 679.25-15.58-24" vector-effect="non-scaling-stroke"/><path stroke="#9dd9e1" d="M709.75 596.96q-12.25.13-24.5.1-1.68 0-3.29.44" vector-effect="non-scaling-stroke"/><path stroke="#3fa3b0" d="M681.96 597.5q-.86-.27-1.72-.29-23.12-.49-46.27.15" vector-effect="non-scaling-stroke"/><path stroke="#9dd9e1" d="M633.97 597.36q-16.32-.55-32.72-.07" vector-effect="non-scaling-stroke"/><path stroke="#3fa3b0" d="M601.25 597.29q-23.3-.64-46.6-.11a1.11 1.09 22.8 0 0-.71.28q-.2.18-.41.24" vector-effect="non-scaling-stroke"/><path stroke="#a1c9ce" d="m601.25 597.29 54.34 82.54M633.97 597.36l38.07 57.89M681.96 597.5l13.79 21.04" vector-effect="non-scaling-stroke"/><path stroke="#9dd9e1" d="m503.7 562.03 22.15-2.83a.51.5-7.6 0 0 .43-.56l-3.59-26.77a.86.85 86.5 0 0-.83-.74l-8.16-.11a1.55 1.52 24.6 0 0-1.03.37l-8.56 7.48a.49.49 0 0 1-.78-.19l-1.61-4.04a.91.91 0 0 0-.83-.58l-7.71-.07a1.14 1.12-68.8 0 0-.88.4l-8.9 10.53a.37.37 0 0 1-.65-.19l-5.05-35.17a.51.5 84.3 0 0-.52-.43l-12.11.43a1.28 1.26 21 0 0-.85.37q-18.77 18.76-37.27 37.79c-1.65 1.69-2.28 1.35-4.46 1.51q-16.78 1.22-33.62 2.4a.58.57 78.6 0 0-.5.76l1.35 3.94a.76.76 0 0 1-.74 1q-26.39-.53-52.21 6.19c-6.57 1.72-13.47 1.24-20.21 1.8q-.5.05 0 .06c5.94.19 13.75-.44 19.33 1.6q21.01 7.68 43.38 9.1c4.27.27 7.73 2.45 11.48 4.25a.52.52 0 0 1 .18.8l-3.07 3.74a.34.34 0 0 0 .22.55l34.22 5.19a1.18 1.17 75.4 0 1 .76.45l34.32 44.62a1.16 1.14-16 0 0 .83.45l13.95 1.17a.61.61 0 0 0 .66-.53q2.47-20.16 8.17-39.66c.13-.46-.04-1.05-.13-1.53a.52.52 0 0 1 .52-.62l6.5.13a1.09 1.09 0 0 1 .84.42L509 621.17a1.06 1.03 68.5 0 0 .87.39l7.43-.31a.76.76 0 0 0 .7-.55l6.83-25.07a1.13 1.13 0 0 0-.97-1.43q-10.42-1.11-20.68-3.27a.37.37 0 0 1 .09-.74l9.77.35a1.29 1.27 25.2 0 0 .89-.31c6.49-5.55 7.55-15.54 4.93-23.19-.45-1.31-.61-2.79-1.75-4.07a1.17 1.17 0 0 0-.88-.4l-12.51-.1q-3.23-.02-.02-.44" vector-effect="non-scaling-stroke"/><path stroke="#9dd9e1" d="M517.59 590.48q5.85 1.36 8.33-3.72 5.93-12.18-1.33-23.58a.99.97 72.1 0 0-.88-.46l-2.99.17a.58.57-13 0 0-.5.79c3.58 8.61 3.46 18.99-2.77 26.39a.26.25-64 0 0 .14.41" vector-effect="non-scaling-stroke"/><path stroke="#a1c9ce" d="M291.9 939.86c5.39 6.17 12.88 8.75 20.76 8.13 13.08-1.03 18.15-10.69 18.14-22.74q-.03-40.11-.07-80.24a.51.51 0 0 0-.51-.51h-25.44a.52.51 90 0 0-.51.52q-.03 32.71-.03 65.42c0 3.97-4.17 1.82-5.57.14q-23.75-28.55-47.65-56.95c-4.07-4.84-8.36-8.74-13.84-10.31-14.77-4.23-32.39 1.68-32.6 19.51q-.23 19.06-.05 82.66a.52.51 89.4 0 0 .51.51h25.7a.5.49-89.4 0 0 .49-.49c.33-23.18-.45-46.2.09-69.26a2.03 2.02-86.6 0 1 2.21-1.97q1.65.14 2.88 1.57 27.64 32.1 55.49 64.01M475.2 928.5c3.39 14.55 16.93 20.08 30.56 19.52 20.45-.85 24.83-13.51 29.8-30.68q6.97-24.13 13.64-48.35c.99-3.63 5.53-3.42 6.5.27q7.15 27.25 14.23 54.51c2.97 11.44 8.95 20.6 21.15 23.4 8.4 1.93 19.95.87 26.97-4.06 8.34-5.86 10.11-13.79 11.95-24.11q6.43-35.99 12.91-72.84a1.42 1.42 0 0 0-1.4-1.66h-26.48a.48.48 0 0 0-.48.47q-.05 1.53-.3 3.03-5.91 34.5-11.58 69.06c-.55 3.41-2.94 5.48-6.13 3.15a1.59 1.52-82.2 0 1-.56-.77c-5.98-17.79-10.18-36.68-15.19-54.81-5.48-19.85-19.17-25.51-38.49-21.31-10.22 2.21-15.94 11.01-18.77 20.94q-7.67 26.96-15.3 53.94c-1.15 4.06-6.49 4.06-7.17-.22q-5.75-36.52-11.21-73.16a.71.71 0 0 0-.7-.61l-27.06.13a.55.55 0 0 0-.55.55q.01 2.7.44 5.36 5.5 34.02 11.18 68.01.86 5.17 2.04 10.24M918.53 930.25h59.3a.85.84-11.6 0 1 .78.51l6.31 14.79a.75.74-11.2 0 0 .69.45h28.86a.94.94 0 0 0 .85-1.33q-18.58-40.87-36.66-80.77c-7.7-16.99-19.97-24.7-39.14-20.77-14.05 2.88-18.72 12.5-24.22 24.68q-17.53 38.82-34.87 77.25a.66.66 0 0 0 .6.93l29.91.01a.74.74 0 0 0 .68-.45l6.15-14.79a.82.82 0 0 1 .76-.51" vector-effect="non-scaling-stroke"/><path stroke="#9dd9e1" d="M428.5 904.96q11.6-.58 23.2.19a.6.6 0 0 0 .63-.46q.49-1.95-.04-3.94" vector-effect="non-scaling-stroke"/><path stroke="#a1c9ce" d="m452.29 900.75-.09-14.72a.51.5 90 0 0-.5-.51l-77.68-.18a1.05 1.05 0 0 1-1.05-1.06l.09-10.95a1.87 1.87 0 0 1 1.68-1.84q.67-.07 2.27-.07l75.2-.22a.55.55 0 0 0 .54-.55v-25.84a.64.62 87.8 0 0-.66-.63q-4.21.26-8.35.24-39.81-.17-79.66.08c-17.69.11-18.24 5.24-18.29 21.98q-.1 29.89-.02 59.78c.03 11.14.97 19.66 13.99 19.71q26.77.1 92.48.01a.52.51 90 0 0 .51-.52V920.5a.51.51 0 0 0-.51-.51q-38.33.03-76.68.07-2.47.01-2.52-2.56-.11-5.93 0-12a.51.51 0 0 1 .51-.5l54.95-.04" vector-effect="non-scaling-stroke"/><path stroke="#3fa3b0" d="m452.29 900.75-.9 3.26a.68.68 0 0 1-.65.49q-10.45-.01-20.78.02c-.39 0-1.1.29-1.46.44" vector-effect="non-scaling-stroke"/><path stroke="#a1c9ce" d="M652.71 862.79c-7.03 16.07 1.49 35.96 18.87 40.59q6.26 1.67 13.42 1.75 21.31.23 42.64.12c11.41-.05 11.54 14.68-.15 14.71q-36.58.08-73.25.03a1.49 1.49 0 0 0-1.49 1.49v23.8a.7.69-90 0 0 .69.7q35.04.06 70-.01 14.56-.03 19.84-1.6c16.18-4.82 26.31-23.57 19.46-39.62q-7.95-18.64-29.25-19.02-23.27-.4-46.55-.51c-11.59-.06-10.59-14.04-.42-14.02q36.47.05 73.01.03a.48.48 0 0 0 .48-.48v-25.63a.54.54 0 0 0-.53-.54c-26.23-.14-52.57-.66-78.78.06-12.41.34-23.06 6.87-27.99 18.15M888.29 897.8c10.17-23.11-4.4-49.97-29.74-52.88q-2.75-.32-11.67-.48c-16.89-.31-35.36.11-63.21.07-4.51-.01-7.63.98-7.64 6q-.09 47.43.02 94.94a.56.55 0 0 0 .56.55h26.04a.66.66 0 0 0 .66-.66l-.2-24.21a.65.65 0 0 1 .65-.65q23.27.08 46.68-.15c16.66-.16 31.05-7.06 37.85-22.53M1039.69 931.81q15.33 14.14 36.76 14.23 27.13.1 54.3-.09a.51.51 0 0 0 .5-.51v-25.67a.52.51 0 0 0-.52-.51q-23.6.03-47.17-.05-11.43-.03-15.8-1.44c-14.77-4.75-21.45-22.7-12.43-35.7q7.52-10.84 21.69-10.84 26.84.01 53.71 0a.52.51 0 0 0 .52-.51v-25.69a.52.52 0 0 0-.52-.52q-32.61.08-41.17-.1c-23.76-.47-43.26 2.06-56.94 22.66-13.42 20.2-10.89 48.18 7.07 64.74M1171.21 884.66l.12-12.3a.75.75 0 0 1 .62-.73q2.24-.39 3.8-.39 37.23.03 74.49-.01a.51.51 0 0 0 .51-.51v-25.67a.5.5 0 0 0-.5-.5q-42.03-.19-84.06-.14c-9.95.01-22.06-.95-22.14 12.85q-.17 28.68.01 76.19c.04 9.62 7.19 12.41 15.77 12.46q45.25.22 90.51.02a.45.44 90 0 0 .44-.45l-.02-25.13a.35.35 0 0 0-.35-.35h-77.28a1.88 1.87 0 0 1-1.88-1.87v-12.51a.64.64 0 0 1 .64-.64l77.97.01a.59.59 0 0 0 .59-.6l-.14-18.35a.54.54 0 0 0-.54-.53c-25.99.04-50.95-.52-78.03-.33a.52.52 0 0 1-.53-.52" vector-effect="non-scaling-stroke"/><path stroke="#9dd9e1" d="M882.26 978.72a1.23 1.23 0 0 1 2.16-.8q13.72 16 27.07 31.14c6.79 7.71 19.52 5.63 19.57-6.01q.08-19.8-.14-39.6a.47.47 0 0 0-.47-.47l-12 .03a.46.45 0 0 0-.46.45q.03 15.91-.23 31.72-.02 1.06-.84 1.31a.8.8 0 0 1-.84-.25q-12.45-14.75-24.93-29.41c-6.26-7.35-21.43-7.01-21.93 4.43q-.48 11.09.08 40.69a.56.56 0 0 0 .56.55h11.76a.62.62 0 0 0 .62-.62l.02-33.16M702.18 993.31a.77.77 0 0 1 .77-.81h37.42a.63.63 0 0 0 .63-.63v-8.25a.62.62 0 0 0-.62-.62h-37.53a.64.63.9 0 1-.64-.65l.15-5.65a.68.68 0 0 1 .68-.67l37.59-.05a.62.61 0 0 0 .62-.61v-11.81a.61.61 0 0 0-.61-.61q-21.32.06-42.65.08c-5.1 0-8.89.58-8.93 6.46q-.12 18.49.02 36.93c.04 4.53 2.57 6.08 6.94 6.08q22.34.01 44.71-.02a.52.52 0 0 0 .52-.52v-11.41a.46.45 90 0 0-.45-.46q-17.28-.15-34.55-.28-1.94-.01-3.12-.15a.73.73 0 0 1-.65-.69l-.3-5.66" vector-effect="non-scaling-stroke"/><path stroke="#9dd9e1" d="M763.73 964.3c-26.36 8.06-20.6 48.13 7.03 48.19q13.34.02 27.75.01a.51.51 0 0 0 .51-.51l-.03-11.9a.53.53 0 0 0-.52-.53q-13-.09-25.95-.16c-12.37-.07-17.9-14.84-7.09-21.47 2.76-1.69 6.09-1.89 9.34-1.88q11.79.02 23.75-.12a.56.55 89.5 0 0 .55-.57l-.34-11.89a.58.58 0 0 0-.58-.56c-10.7.14-26.05-1.16-34.42 1.39M819.09 993.27l28.66-.03a.76.76 0 0 1 .76.76l-.04 17.89a.61.61 0 0 0 .61.61h11.89a.65.65 0 0 0 .65-.64q.23-11.98 0-23.95c-.14-7.08.45-16.37-.12-24.61a.48.47-2.5 0 0-.49-.44l-12.04.2a.48.47-.6 0 0-.47.47v16.72a.75.75 0 0 1-.75.75h-28.64a.59.59 0 0 1-.59-.58l-.03-17.09a.41.41 0 0 0-.41-.41l-11.94.05a.89.89 0 0 0-.89.89v48.13a.5.5 0 0 0 .5.5l12.21.03a.54.54 0 0 0 .54-.54v-18.13a.59.58 0 0 1 .59-.58M1220.44 978.89a.53.53 0 0 1-.78 0l-14.45-15.75a.53.53 0 0 0-.39-.17l-14.97-.12a.53.53 0 0 0-.4.89l23.16 25.51a.53.53 0 0 1 .14.35v22.35a.53.53 0 0 0 .53.53l12.44.07a.53.53 0 0 0 .53-.53v-21.58a.53.53 0 0 1 .14-.35l23.99-26.47a.53.53 0 0 0-.4-.89l-14.76.25a.53.53 0 0 0-.38.17l-14.4 15.74M648.32 976.02a.43.43 0 0 1 .43.43l-.01 35.62a.43.43 0 0 0 .43.43h12.41a.43.43 0 0 0 .43-.43l-.01-35.64a.43.43 0 0 1 .43-.43h20.89a.43.43 0 0 0 .43-.43v-12.14a.43.43 0 0 0-.43-.43h-56.13a.43.43 0 0 0-.43.43l-.01 12.13a.43.43 0 0 0 .43.43l21.14.03M941.68 973.89c-10.66 15.41-.39 37.57 18.64 38.52 7.51.37 20.74 1.4 28.54-3.61 19.56-12.56 13-42.19-10-45.43q-3.09-.43-10.8-.47c-10.92-.05-19.68 1.3-26.38 10.99M1006.87 999.04c.12 8.51 5.83 13.49 14.14 13.48q18.67-.03 37.39.02a.6.6 0 0 0 .6-.6v-11.3a.62.62 0 0 0-.62-.62q-17.56.01-35.13-.41-2.96-.07-3.07-2.35-.38-7.56-.18-33.73a.52.52 0 0 0-.52-.53h-12.12a.53.53 0 0 0-.53.52q-.22 17.84.04 35.52M1068.06 972.81c-11.79 16.19-1.06 39.56 19.96 39.65 6.58.03 14.37.7 20.21-1 13.01-3.81 21.89-17.91 16.89-31.3q-6.41-17.2-25.38-17.25c-12.1-.03-24.06-.55-31.68 9.9" vector-effect="non-scaling-stroke"/><path stroke="#9dd9e1" d="M1156.06 963.07c-32.69 1.43-31.7 49.03.2 49.31q12.55.11 25.13.13c2.89 0 3.5-.73 3.55-3.54q.18-11.42-.03-22.95a.53.53 0 0 0-.53-.52h-12.13a.5.5 0 0 0-.5.5v13.03a.7.7 0 0 1-.69.7q-7.05.09-13.99-.06c-16.03-.35-16.74-23.85 2.44-23.69q12.43.1 24.96-.06a.54.54 0 0 0 .53-.54v-11.76a.54.54 0 0 0-.53-.54q-21.84-.3-28.41-.01" vector-effect="non-scaling-stroke"/><path stroke="#a1c9ce" d="M951.06 869.44q-5.06-3.36-7.44 1.74-3.73 8-15.21 36.04a.39.38 11.1 0 0 .36.53h38.91a.4.4 0 0 0 .37-.56q-6.67-15.54-13.28-30.97c-.74-1.71-2.14-5.75-3.71-6.78M857.42 894.25c12.76-5.07 7.78-23.08-6.42-23.07q-22.6.02-46.05.1a1.71 1.71 0 0 0-1.7 1.71v21.98a.5.5 0 0 0 .5.5q21.15.07 42.26.01 8.4-.03 11.41-1.23" vector-effect="non-scaling-stroke"/><path stroke="#9dd9e1" d="M986.991 987.082a10.82 10.82 0 0 0-10.8-10.84l-14.44-.025a10.82 10.82 0 0 0-10.84 10.802l-.002 1.44a10.82 10.82 0 0 0 10.8 10.838l14.44.026a10.82 10.82 0 0 0 10.84-10.802l.002-1.44M1112.75 987.06a10.83 10.83 0 0 0-10.83-10.83h-14.42a10.83 10.83 0 0 0-10.83 10.83v1.42a10.83 10.83 0 0 0 10.83 10.83h14.42a10.83 10.83 0 0 0 10.83-10.83v-1.42" vector-effect="non-scaling-stroke"/><path stroke="#224a4f" d="m1446.94 1448-1445.27-.19a.21.19-73.5 0 0-.17.1l-.06.09" vector-effect="non-scaling-stroke"/></g><path fill="#010101" d="M0 0h1448v1447.06l-1446.71-.04c-.94-.35-.27-1.33-.27-2.03-.07-15.35.23-31.59.23-45.99V50.3c0-15.07-.69-32.41-.22-49.55Q1.05-.03 0 .19V0Zm1446.5 1.77a.27.27 0 0 0-.27-.27H2.77a.27.27 0 0 0-.27.27v1443.46a.27.27 0 0 0 .27.27h1443.46a.27.27 0 0 0 .27-.27V1.77Z"/><path fill="#b6ddc7" d="M0 .19q1.05-.22 1.03.56c-.47 17.14.22 34.48.22 49.55V1399c0 14.4-.3 30.64-.23 45.99 0 .7-.67 1.68.27 2.03l-.1.98H0v-1.06q.25-2.62.26-5.25Q.51 739 .26 36.31.26 19 0 1.69V.19Z"/><path fill="#fff" d="M1446.5 1445.23a.27.27 0 0 1-.27.27H2.77a.27.27 0 0 1-.27-.27V1.77a.27.27 0 0 1 .27-.27h1443.46a.27.27 0 0 1 .27.27v1443.46ZM696.71 457.25c-.96.23-12.9-18.55-14.34-20.75-1.89-2.86-2.54-3.07-5.88-3.1q-29.4-.26-43.22.42c-.71-.14-73.66 111.16-80.57 121.67l-19.07.3a.39.38 77 0 0-.34.55q3.97 8.58 4.32 18.04a.56.55-1.1 0 0 .56.53L724 573.54l1.5 1.42-2.5 2.58-184.56 1.38a.9.89 2.5 0 0-.88.8q-.84 8.56-4.51 16.31a.56.56 0 0 0 .55.8q10.73-.78 19.93.87l78.86 119.74a1.25 1.25 0 0 0 1.04.56q22.28.01 44.48-.01c.79 0 1.43-.45 1.59-1.2 1.59-2.4 16.08-24.86 16.75-24.83l16.18 24.81q23.18.85 45.76.48a1.97 1.96-73.8 0 0 1.6-.88q38.9-58.94 77.72-117.87.6-.91 1.49-1.54 52.71-.36 105.39-.21 13.26.04 19.58-1.36c50.9-11.22 50.47-82.91-.8-93.17q-6.04-1.2-19.92-1.25-21.68-.07-43.35-.24c-5.89-.04-15.02.4-22.58-.02q-4.2-.24-6.42-1.48c-8.14-4.52-6.66-16.97 1.97-19.93q2.31-.8 8-.78 65.39.22 130.85-.04a.52.52 0 0 1 .53.52v117.21a.49.49 0 0 0 .47.49c16.4.56 28.22-.47 42.28.27a.47.47 0 0 0 .5-.47V479a.5.5 0 0 1 .5-.5h69.49a.55.54-.5 0 0 .55-.55l-.06-16.25a1.44 1.44 0 0 0-1.44-1.44q-122.15-.03-242.48.25c-17.11.04-35.43 5.99-36.55 25.98-1.53 27.52 34.59 28.57 53.32 28.93q21.3.42 42.6.6c13.97.12 25.67 3.15 34.98 14.29 10.07 12.06 8.61 29.59-3.79 38.79-9.37 6.96-23.55 6.81-34.62 6.9q-42.6.36-85.21.5l-.58-1.25.19-2.56q45.65-.34 91.04-.75c14.29-.13 29.94-1.87 34.66-17.82 5.33-17.98-12.27-31.82-28.1-33.64q-6.35-.73-12.75-.74c-22.01-.02-45.04 1.01-66.73-3.08-14.28-2.69-27.22-9.34-28.92-25.47-2.64-25.09 20.02-34.91 40.96-34.92q121.45-.04 242.9-.02a.52.52 0 0 0 .52-.52l.05-19.52a.45.45 0 0 0-.45-.46q-123.36-.01-246.66.01c-23.77.01-42.16 5.36-53.47 27.61-13.83 27.21 2.14 59.64 31.08 66.49q8.39 1.99 18.72 2.07 33.14.27 66.29.36 6.15.01 8.65 1.07c8.02 3.39 8.83 15.98 1.36 20.25-3.64 2.08-8.73 2.15-13.05 2.15q-48.7-.02-97.5.01c-.55-.39-.51-.19-.9-.78Q799.98 494 759.66 433.02a.95.93-15.7 0 0-.77-.42l-45.54-.17q-8.84 12.06-16.64 24.82ZM503.7 562.03l22.15-2.83a.51.5-7.6 0 0 .43-.56l-3.59-26.77a.86.85 86.5 0 0-.83-.74l-8.16-.11a1.55 1.52 24.6 0 0-1.03.37l-8.56 7.48a.49.49 0 0 1-.78-.19l-1.61-4.04a.91.91 0 0 0-.83-.58l-7.71-.07a1.14 1.12-68.8 0 0-.88.4l-8.9 10.53a.37.37 0 0 1-.65-.19l-5.05-35.17a.51.5 84.3 0 0-.52-.43l-12.11.43a1.28 1.26 21 0 0-.85.37q-18.77 18.76-37.27 37.79c-1.65 1.69-2.28 1.35-4.46 1.51q-16.78 1.22-33.62 2.4a.58.57 78.6 0 0-.5.76l1.35 3.94a.76.76 0 0 1-.74 1q-26.39-.53-52.21 6.19c-6.57 1.72-13.47 1.24-20.21 1.8q-.5.05 0 .06c5.94.19 13.75-.44 19.33 1.6q21.01 7.68 43.38 9.1c4.27.27 7.73 2.45 11.48 4.25a.52.52 0 0 1 .18.8l-3.07 3.74a.34.34 0 0 0 .22.55l34.22 5.19a1.18 1.17 75.4 0 1 .76.45l34.32 44.62a1.16 1.14-16 0 0 .83.45l13.95 1.17a.61.61 0 0 0 .66-.53q2.47-20.16 8.17-39.66c.13-.46-.04-1.05-.13-1.53a.52.52 0 0 1 .52-.62l6.5.13a1.09 1.09 0 0 1 .84.42L509 621.17a1.06 1.03 68.5 0 0 .87.39l7.43-.31a.76.76 0 0 0 .7-.55l6.83-25.07a1.13 1.13 0 0 0-.97-1.43q-10.42-1.11-20.68-3.27a.37.37 0 0 1 .09-.74l9.77.35a1.29 1.27 25.2 0 0 .89-.31c6.49-5.55 7.55-15.54 4.93-23.19-.45-1.31-.61-2.79-1.75-4.07a1.17 1.17 0 0 0-.88-.4l-12.51-.1q-3.23-.02-.02-.44Zm13.89 28.45q5.85 1.36 8.33-3.72 5.93-12.18-1.33-23.58a.99.97 72.1 0 0-.88-.46l-2.99.17a.58.57-13 0 0-.5.79c3.58 8.61 3.46 18.99-2.77 26.39a.26.25-64 0 0 .14.41ZM291.9 939.86c5.39 6.17 12.88 8.75 20.76 8.13 13.08-1.03 18.15-10.69 18.14-22.74q-.03-40.11-.07-80.24a.51.51 0 0 0-.51-.51h-25.44a.52.51 90 0 0-.51.52q-.03 32.71-.03 65.42c0 3.97-4.17 1.82-5.57.14q-23.75-28.55-47.65-56.95c-4.07-4.84-8.36-8.74-13.84-10.31-14.77-4.23-32.39 1.68-32.6 19.51q-.23 19.06-.05 82.66a.52.51 89.4 0 0 .51.51h25.7a.5.49-89.4 0 0 .49-.49c.33-23.18-.45-46.2.09-69.26a2.03 2.02-86.6 0 1 2.21-1.97q1.65.14 2.88 1.57 27.64 32.1 55.49 64.01Zm183.3-11.36c3.39 14.55 16.93 20.08 30.56 19.52 20.45-.85 24.83-13.51 29.8-30.68q6.97-24.13 13.64-48.35c.99-3.63 5.53-3.42 6.5.27q7.15 27.25 14.23 54.51c2.97 11.44 8.95 20.6 21.15 23.4 8.4 1.93 19.95.87 26.97-4.06 8.34-5.86 10.11-13.79 11.95-24.11q6.43-35.99 12.91-72.84a1.42 1.42 0 0 0-1.4-1.66h-26.48a.48.48 0 0 0-.48.47q-.05 1.53-.3 3.03-5.91 34.5-11.58 69.06c-.55 3.41-2.94 5.48-6.13 3.15a1.59 1.52-82.2 0 1-.56-.77c-5.98-17.79-10.18-36.68-15.19-54.81-5.48-19.85-19.17-25.51-38.49-21.31-10.22 2.21-15.94 11.01-18.77 20.94q-7.67 26.96-15.3 53.94c-1.15 4.06-6.49 4.06-7.17-.22q-5.75-36.52-11.21-73.16a.71.71 0 0 0-.7-.61l-27.06.13a.55.55 0 0 0-.55.55q.01 2.7.44 5.36 5.5 34.02 11.18 68.01.86 5.17 2.04 10.24Zm443.33 1.75h59.3a.85.84-11.6 0 1 .78.51l6.31 14.79a.75.74-11.2 0 0 .69.45h28.86a.94.94 0 0 0 .85-1.33q-18.58-40.87-36.66-80.77c-7.7-16.99-19.97-24.7-39.14-20.77-14.05 2.88-18.72 12.5-24.22 24.68q-17.53 38.82-34.87 77.25a.66.66 0 0 0 .6.93l29.91.01a.74.74 0 0 0 .68-.45l6.15-14.79a.82.82 0 0 1 .76-.51ZM428.5 904.96q11.6-.58 23.2.19a.6.6 0 0 0 .63-.46q.49-1.95-.04-3.94l-.09-14.72a.51.5 90 0 0-.5-.51l-77.68-.18a1.05 1.05 0 0 1-1.05-1.06l.09-10.95a1.87 1.87 0 0 1 1.68-1.84q.67-.07 2.27-.07l75.2-.22a.55.55 0 0 0 .54-.55v-25.84a.64.62 87.8 0 0-.66-.63q-4.21.26-8.35.24-39.81-.17-79.66.08c-17.69.11-18.24 5.24-18.29 21.98q-.1 29.89-.02 59.78c.03 11.14.97 19.66 13.99 19.71q26.77.1 92.48.01a.52.51 90 0 0 .51-.52V920.5a.51.51 0 0 0-.51-.51q-38.33.03-76.68.07-2.47.01-2.52-2.56-.11-5.93 0-12a.51.51 0 0 1 .51-.5l54.95-.04Zm224.21-42.17c-7.03 16.07 1.49 35.96 18.87 40.59q6.26 1.67 13.42 1.75 21.31.23 42.64.12c11.41-.05 11.54 14.68-.15 14.71q-36.58.08-73.25.03a1.49 1.49 0 0 0-1.49 1.49v23.8a.7.69-90 0 0 .69.7q35.04.06 70-.01 14.56-.03 19.84-1.6c16.18-4.82 26.31-23.57 19.46-39.62q-7.95-18.64-29.25-19.02-23.27-.4-46.55-.51c-11.59-.06-10.59-14.04-.42-14.02q36.47.05 73.01.03a.48.48 0 0 0 .48-.48v-25.63a.54.54 0 0 0-.53-.54c-26.23-.14-52.57-.66-78.78.06-12.41.34-23.06 6.87-27.99 18.15Zm235.58 35.01c10.17-23.11-4.4-49.97-29.74-52.88q-2.75-.32-11.67-.48c-16.89-.31-35.36.11-63.21.07-4.51-.01-7.63.98-7.64 6q-.09 47.43.02 94.94a.56.55 0 0 0 .56.55h26.04a.66.66 0 0 0 .66-.66l-.2-24.21a.65.65 0 0 1 .65-.65q23.27.08 46.68-.15c16.66-.16 31.05-7.06 37.85-22.53Zm151.4 34.01q15.33 14.14 36.76 14.23 27.13.1 54.3-.09a.51.51 0 0 0 .5-.51v-25.67a.52.51 0 0 0-.52-.51q-23.6.03-47.17-.05-11.43-.03-15.8-1.44c-14.77-4.75-21.45-22.7-12.43-35.7q7.52-10.84 21.69-10.84 26.84.01 53.71 0a.52.51 0 0 0 .52-.51v-25.69a.52.52 0 0 0-.52-.52q-32.61.08-41.17-.1c-23.76-.47-43.26 2.06-56.94 22.66-13.42 20.2-10.89 48.18 7.07 64.74Zm131.52-47.15.12-12.3a.75.75 0 0 1 .62-.73q2.24-.39 3.8-.39 37.23.03 74.49-.01a.51.51 0 0 0 .51-.51v-25.67a.5.5 0 0 0-.5-.5q-42.03-.19-84.06-.14c-9.95.01-22.06-.95-22.14 12.85q-.17 28.68.01 76.19c.04 9.62 7.19 12.41 15.77 12.46q45.25.22 90.51.02a.45.44 90 0 0 .44-.45l-.02-25.13a.35.35 0 0 0-.35-.35h-77.28a1.88 1.87 0 0 1-1.88-1.87v-12.51a.64.64 0 0 1 .64-.64l77.97.01a.59.59 0 0 0 .59-.6l-.14-18.35a.54.54 0 0 0-.54-.53c-25.99.04-50.95-.52-78.03-.33a.52.52 0 0 1-.53-.52Zm-288.95 94.06a1.23 1.23 0 0 1 2.16-.8q13.72 16 27.07 31.14c6.79 7.71 19.52 5.63 19.57-6.01q.08-19.8-.14-39.6a.47.47 0 0 0-.47-.47l-12 .03a.46.45 0 0 0-.46.45q.03 15.91-.23 31.72-.02 1.06-.84 1.31a.8.8 0 0 1-.84-.25q-12.45-14.75-24.93-29.41c-6.26-7.35-21.43-7.01-21.93 4.43q-.48 11.09.08 40.69a.56.56 0 0 0 .56.55h11.76a.62.62 0 0 0 .62-.62l.02-33.16Zm-180.08 14.59a.77.77 0 0 1 .77-.81h37.42a.63.63 0 0 0 .63-.63v-8.25a.62.62 0 0 0-.62-.62h-37.53a.64.63.9 0 1-.64-.65l.15-5.65a.68.68 0 0 1 .68-.67l37.59-.05a.62.61 0 0 0 .62-.61v-11.81a.61.61 0 0 0-.61-.61q-21.32.06-42.65.08c-5.1 0-8.89.58-8.93 6.46q-.12 18.49.02 36.93c.04 4.53 2.57 6.08 6.94 6.08q22.34.01 44.71-.02a.52.52 0 0 0 .52-.52v-11.41a.46.45 90 0 0-.45-.46q-17.28-.15-34.55-.28-1.94-.01-3.12-.15a.73.73 0 0 1-.65-.69l-.3-5.66Zm61.55-29.01c-26.36 8.06-20.6 48.13 7.03 48.19q13.34.02 27.75.01a.51.51 0 0 0 .51-.51l-.03-11.9a.53.53 0 0 0-.52-.53q-13-.09-25.95-.16c-12.37-.07-17.9-14.84-7.09-21.47 2.76-1.69 6.09-1.89 9.34-1.88q11.79.02 23.75-.12a.56.55 89.5 0 0 .55-.57l-.34-11.89a.58.58 0 0 0-.58-.56c-10.7.14-26.05-1.16-34.42 1.39Zm55.36 28.97 28.66-.03a.76.76 0 0 1 .76.76l-.04 17.89a.61.61 0 0 0 .61.61h11.89a.65.65 0 0 0 .65-.64q.23-11.98 0-23.95c-.14-7.08.45-16.37-.12-24.61a.48.47-2.5 0 0-.49-.44l-12.04.2a.48.47-.6 0 0-.47.47v16.72a.75.75 0 0 1-.75.75h-28.64a.59.59 0 0 1-.59-.58l-.03-17.09a.41.41 0 0 0-.41-.41l-11.94.05a.89.89 0 0 0-.89.89v48.13a.5.5 0 0 0 .5.5l12.21.03a.54.54 0 0 0 .54-.54v-18.13a.59.58 0 0 1 .59-.58Zm401.35-14.38a.53.53 0 0 1-.78 0l-14.45-15.75a.53.53 0 0 0-.39-.17l-14.97-.12a.53.53 0 0 0-.4.89l23.16 25.51a.53.53 0 0 1 .14.35v22.35a.53.53 0 0 0 .53.53l12.44.07a.53.53 0 0 0 .53-.53v-21.58a.53.53 0 0 1 .14-.35l23.99-26.47a.53.53 0 0 0-.4-.89l-14.76.25a.53.53 0 0 0-.38.17l-14.4 15.74Zm-572.12-2.87a.43.43 0 0 1 .43.43l-.01 35.62a.43.43 0 0 0 .43.43h12.41a.43.43 0 0 0 .43-.43l-.01-35.64a.43.43 0 0 1 .43-.43h20.89a.43.43 0 0 0 .43-.43v-12.14a.43.43 0 0 0-.43-.43h-56.13a.43.43 0 0 0-.43.43l-.01 12.13a.43.43 0 0 0 .43.43l21.14.03Zm293.36-2.13c-10.66 15.41-.39 37.57 18.64 38.52 7.51.37 20.74 1.4 28.54-3.61 19.56-12.56 13-42.19-10-45.43q-3.09-.43-10.8-.47c-10.92-.05-19.68 1.3-26.38 10.99Zm65.19 25.15c.12 8.51 5.83 13.49 14.14 13.48q18.67-.03 37.39.02a.6.6 0 0 0 .6-.6v-11.3a.62.62 0 0 0-.62-.62q-17.56.01-35.13-.41-2.96-.07-3.07-2.35-.38-7.56-.18-33.73a.52.52 0 0 0-.52-.53h-12.12a.53.53 0 0 0-.53.52q-.22 17.84.04 35.52Zm61.19-26.23c-11.79 16.19-1.06 39.56 19.96 39.65 6.58.03 14.37.7 20.21-1 13.01-3.81 21.89-17.91 16.89-31.3q-6.41-17.2-25.38-17.25c-12.1-.03-24.06-.55-31.68 9.9Zm88-9.74c-32.69 1.43-31.7 49.03.2 49.31q12.55.11 25.13.13c2.89 0 3.5-.73 3.55-3.54q.18-11.42-.03-22.95a.53.53 0 0 0-.53-.52h-12.13a.5.5 0 0 0-.5.5v13.03a.7.7 0 0 1-.69.7q-7.05.09-13.99-.06c-16.03-.35-16.74-23.85 2.44-23.69q12.43.1 24.96-.06a.54.54 0 0 0 .53-.54v-11.76a.54.54 0 0 0-.53-.54q-21.84-.3-28.41-.01Z"/><path fill="#010101" d="M0 1.69Q.26 19 .26 36.31.51 739 .26 1441.69q-.01 2.63-.26 5.25V1.69Z"/><path fill="#42929d" d="m713.35 432.43-.46 1.57a1.12 1.12 0 0 0 .15.93l22.35 33.9q.28.43.33.94l.07.73-15.33 23.5c-2.3-3.38-24.33-35.9-23.75-36.75q7.8-12.76 16.64-24.82Z"/><path fill="#b6ddc7" d="m713.35 432.43 45.54.17a.95.93-15.7 0 1 .77.42Q799.98 494 840.1 554.99c.39.59.35.39.9.78q4.92 9 11.4 16.92l-.19 2.56h-46.92q-.02-1.64-1.79-2.04c.19-2.02-8.3-13.8-9.93-16.27q-.27-.41-.65-.71l-.67-.52q.03-.69-.98-2.22-27.34-41.27-54.49-82.66c-.3-.45-.47-.41-.99-.33l-.07-.73q-.05-.51-.33-.94l-22.35-33.9a1.12 1.12 0 0 1-.15-.93l.46-1.57ZM696.71 457.25c-.58.85 21.45 33.37 23.75 36.75l40.58 61.5q5.26 8.22 10.72 16.3.52.77 1.24 1.41l-.29 1.54c-15.44 1.01-31.14.5-46.66.5a.47.44 67.9 0 1-.34-.16q-.09-.11-.21-.13l-1.5-1.42q.4-.31.06-.85-6.76-10.93-11.15-17.07l-16.16-24.91a.5.49 72.4 0 0-.41-.22l-.3.01q-.03-.73-.43-1.34-11.52-17.71-23.36-35.2-7.46-11.34-14.92-22.69c-.35-.52-.37-.32-.83-.56.03-.42.04-.8-.22-1.17q-11.91-17.48-23.01-35.72 13.82-.68 43.22-.42c3.34.03 3.99.24 5.88 3.1 1.44 2.2 13.38 20.98 14.34 20.75Z"/><path fill="#42929d" d="M633.27 433.82q11.1 18.24 23.01 35.72c.26.37.25.75.22 1.17l-55.95 84.7q-24.03.78-47.85.08c6.91-10.51 79.86-121.81 80.57-121.67Z"/><path fill="#3bb3c2" d="M852.4 572.69q-6.48-7.92-11.4-16.92 48.8-.03 97.5-.01c4.32 0 9.41-.07 13.05-2.15 7.47-4.27 6.66-16.86-1.36-20.25q-2.5-1.06-8.65-1.07-33.15-.09-66.29-.36-10.33-.08-18.72-2.07c-28.94-6.85-44.91-39.28-31.08-66.49 11.31-22.25 29.7-27.6 53.47-27.61q123.3-.02 246.66-.01a.45.45 0 0 1 .45.46l-.05 19.52a.52.52 0 0 1-.52.52q-121.45-.02-242.9.02c-20.94.01-43.6 9.83-40.96 34.92 1.7 16.13 14.64 22.78 28.92 25.47 21.69 4.09 44.72 3.06 66.73 3.08q6.4.01 12.75.74c15.83 1.82 33.43 15.66 28.1 33.64-4.72 15.95-20.37 17.69-34.66 17.82q-45.39.41-91.04.75Z"/><path fill="#3bb3c2" d="M839 596.96q4.76-8.38 11.94-18.52.98-1.39 1.85-1.94 42.61-.14 85.21-.5c11.07-.09 25.25.06 34.62-6.9 12.4-9.2 13.86-26.73 3.79-38.79-9.31-11.14-21.01-14.17-34.98-14.29q-21.3-.18-42.6-.6c-18.73-.36-54.85-1.41-53.32-28.93 1.12-19.99 19.44-25.94 36.55-25.98q120.33-.28 242.48-.25a1.44 1.44 0 0 1 1.44 1.44l.06 16.25a.55.54-.5 0 1-.55.55H1056a.5.5 0 0 0-.5.5v117.5a.47.47 0 0 1-.5.47c-14.06-.74-25.88.29-42.28-.27a.49.49 0 0 1-.47-.49V479a.52.52 0 0 0-.53-.52q-65.46.26-130.85.04-5.69-.02-8 .78c-8.63 2.96-10.11 15.41-1.97 19.93q2.22 1.24 6.42 1.48c7.56.42 16.69-.02 22.58.02q21.67.17 43.35.24 13.88.05 19.92 1.25c51.27 10.26 51.7 81.95.8 93.17q-6.32 1.4-19.58 1.36-52.68-.15-105.39.21Z"/><path fill="#fff" d="M735.79 470.5c.52-.08.69-.12.99.33q27.15 41.39 54.49 82.66 1.01 1.53.98 2.22l-31.21-.21-40.58-61.5 15.33-23.5ZM656.5 470.71c.46.24.48.04.83.56q7.46 11.35 14.92 22.69l-40.29 61.29-31.41.16 55.95-84.7Z"/><path fill="#42929d" d="M672.25 493.96q11.84 17.49 23.36 35.2.4.61.43 1.34l-16.29 24.71c-.92.14-1.78.54-2.69.54q-22.41.01-44.81-.01a.24.23-4.1 0 1-.24-.2l-.05-.29 40.29-61.29Z"/><path fill="#3bb3c2" d="m503.72 562.47 12.51.1a1.17 1.17 0 0 1 .88.4c1.14 1.28 1.3 2.76 1.75 4.07 2.62 7.65 1.56 17.64-4.93 23.19a1.29 1.27 25.2 0 1-.89.31l-9.77-.35a.37.37 0 0 0-.09.74q10.26 2.16 20.68 3.27a1.13 1.13 0 0 1 .97 1.43L518 620.7a.76.76 0 0 1-.7.55l-7.43.31a1.06 1.03 68.5 0 1-.87-.39l-20.28-25.66a1.09 1.09 0 0 0-.84-.42l-6.5-.13a.52.52 0 0 0-.52.62c.09.48.26 1.07.13 1.53q-5.7 19.5-8.17 39.66a.61.61 0 0 1-.66.53l-13.95-1.17a1.16 1.14-16 0 1-.83-.45l-34.32-44.62a1.18 1.17 75.4 0 0-.76-.45l-34.22-5.19a.34.34 0 0 1-.22-.55l3.07-3.74a.52.52 0 0 0-.18-.8c-3.75-1.8-7.21-3.98-11.48-4.25q-22.37-1.42-43.38-9.1c-5.58-2.04-13.39-1.41-19.33-1.6q-.5-.01 0-.06c6.74-.56 13.64-.08 20.21-1.8q25.82-6.72 52.21-6.19a.76.76 0 0 0 .74-1l-1.35-3.94a.58.57 78.6 0 1 .5-.76q16.84-1.18 33.62-2.4c2.18-.16 2.81.18 4.46-1.51q18.5-19.03 37.27-37.79a1.28 1.26 21 0 1 .85-.37l12.11-.43a.51.5 84.3 0 1 .52.43l5.05 35.17a.37.37 0 0 0 .65.19l8.9-10.53a1.14 1.12-68.8 0 1 .88-.4l7.71.07a.91.91 0 0 1 .83.58l1.61 4.04a.49.49 0 0 0 .78.19l8.56-7.48a1.55 1.52 24.6 0 1 1.03-.37l8.16.11a.86.85 86.5 0 1 .83.74l3.59 26.77a.51.5-7.6 0 1-.43.56l-22.15 2.83q-3.21.42.02.44Z"/><path fill="#fff" d="m696.04 530.5.3-.01a.5.49 72.4 0 1 .41.22l16.16 24.91-33.16-.41 16.29-24.71Z"/><path fill="#3bb3c2" d="m600.55 555.41 31.41-.16.05.29a.24.23-4.1 0 0 .24.2q22.4.02 44.81.01c.91 0 1.77-.4 2.69-.54l33.16.41q4.39 6.14 11.15 17.07.34.54-.06.85l-185.83 1.37a.56.55-1.1 0 1-.56-.53q-.35-9.46-4.32-18.04a.39.38 77 0 1 .34-.55l19.07-.3q23.82.7 47.85-.08ZM761.04 555.5l31.21.21.67.52q.38.3.65.71c1.63 2.47 10.12 14.25 9.93 16.27H773q-.72-.64-1.24-1.41-5.46-8.08-10.72-16.3ZM517.59 590.48a.26.25-64 0 1-.14-.41c6.23-7.4 6.35-17.78 2.77-26.39a.58.57-13 0 1 .5-.79l2.99-.17a.99.97 72.1 0 1 .88.46q7.26 11.4 1.33 23.58-2.48 5.08-8.33 3.72Z"/><path fill="#fff" d="M803.5 573.21q1.77.4 1.79 2.04l-1.91 1.8-31.38.16.71-2.46.29-1.54h30.5Z"/><path fill="#7bc4a0" d="m772.71 574.75-.71 2.46q-7.06 9.54-13.19 19.58l-38.6 58.46c-2.46 3.66-24.24 35.54-23.96 36.71-.67-.03-15.16 22.43-16.75 24.83-.72.21-.89.46-1.69.46q-21.88.01-43.84-.01a1.4 1.4 0 0 1-1.17-2.17q9.56-14.69 19.3-29.23 2.4-3.58 3.49-6.01 8.71-11.92 16.45-24.58 12.03-17.59 23.49-35.57c.3-.46.19-.64.22-1.14 1.13.09 13.04-18.77 14.56-21.09a.32.32 0 0 0-.18-.48q-.17-.05-.38-.01c1.97-.48 12.18-16.78 13.25-19.42l2.5-2.58q.12.02.21.13a.47.44 67.9 0 0 .34.16c15.52 0 31.22.51 46.66-.5ZM805.29 575.25h46.92l.58 1.25q-.87.55-1.85 1.94-7.18 10.14-11.94 18.52-.89.63-1.49 1.54-38.82 58.93-77.72 117.87a1.97 1.96-73.8 0 1-1.6.88q-22.58.37-45.76-.48.5-1.66.79-2.11 11.01-17.05 22.26-33.94.28-.42.31-1.47.47.14.72-.24 26.97-40.8 53.88-81.63a.33.32-44.2 0 0 .01-.34l-.15-.25q.85-.3 1.59-1.46 8.27-12.8 11.54-18.28l1.91-1.8Z"/><path fill="#3bb3c2" d="M803.38 577.05q-3.27 5.48-11.54 18.28-.74 1.16-1.59 1.46h-31.44q6.13-10.04 13.19-19.58l31.38-.16ZM723 577.54c-1.07 2.64-11.28 18.94-13.25 19.42q-12.25.13-24.5.1-1.68 0-3.29.44-.86-.27-1.72-.29-23.12-.49-46.27.15-16.32-.55-32.72-.07-23.3-.64-46.6-.11a1.11 1.09 22.8 0 0-.71.28q-.2.18-.41.24-9.2-1.65-19.93-.87a.56.56 0 0 1-.55-.8q3.67-7.75 4.51-16.31a.9.89 2.5 0 1 .88-.8L723 577.54Z"/><path fill="#fff" d="m790.25 596.79.15.25a.33.32-44.2 0 1-.01.34q-26.91 40.83-53.88 81.63-.25.38-.72.24l-15.58-24 38.6-58.46h31.44Z"/><path fill="#42929d" d="m601.25 597.29 54.34 82.54q-1.09 2.43-3.49 6.01-9.74 14.54-19.3 29.23a1.4 1.4 0 0 0 1.17 2.17q21.96.02 43.84.01c.8 0 .97-.25 1.69-.46-.16.75-.8 1.2-1.59 1.2q-22.2.02-44.48.01a1.25 1.25 0 0 1-1.04-.56L553.53 597.7q.21-.06.41-.24a1.11 1.09 22.8 0 1 .71-.28q23.3-.53 46.6.11Z"/><path fill="#fff" d="m633.97 597.36 38.07 57.89q-7.74 12.66-16.45 24.58l-54.34-82.54q16.4-.48 32.72.07Z"/><path fill="#42929d" d="m681.96 597.5 13.79 21.04c-.03.5.08.68-.22 1.14q-11.46 17.98-23.49 35.57l-38.07-57.89q23.15-.64 46.27-.15.86.02 1.72.29Z"/><path fill="#fff" d="M709.75 596.96q.21-.04.38.01a.32.32 0 0 1 .18.48c-1.52 2.32-13.43 21.18-14.56 21.09l-13.79-21.04q1.61-.44 3.29-.44 12.25.03 24.5-.1Z"/><path fill="#42929d" d="m720.21 655.25 15.58 24q-.03 1.05-.31 1.47-11.25 16.89-22.26 33.94-.29.45-.79 2.11l-16.18-24.81c-.28-1.17 21.5-33.05 23.96-36.71ZM312.66 947.99c-7.88.62-15.37-1.96-20.76-8.13q-27.85-31.91-55.49-64.01-1.23-1.43-2.88-1.57a2.03 2.02-86.6 0 0-2.21 1.97c-.54 23.06.24 46.08-.09 69.26a.5.49-89.4 0 1-.49.49h-25.7a.52.51 89.4 0 1-.51-.51q-.18-63.6.05-82.66c.21-17.83 17.83-23.74 32.6-19.51 5.48 1.57 9.77 5.47 13.84 10.31q23.9 28.4 47.65 56.95c1.4 1.68 5.57 3.83 5.57-.14q0-32.71.03-65.42a.52.51 90 0 1 .51-.52h25.44a.51.51 0 0 1 .51.51q.04 40.13.07 80.24c.01 12.05-5.06 21.71-18.14 22.74ZM505.76 948.02c-13.63.56-27.17-4.97-30.56-19.52q-1.18-5.07-2.04-10.24-5.68-33.99-11.18-68.01-.43-2.66-.44-5.36a.55.55 0 0 1 .55-.55l27.06-.13a.71.71 0 0 1 .7.61q5.46 36.64 11.21 73.16c.68 4.28 6.02 4.28 7.17.22q7.63-26.98 15.3-53.94c2.83-9.93 8.55-18.73 18.77-20.94 19.32-4.2 33.01 1.46 38.49 21.31 5.01 18.13 9.21 37.02 15.19 54.81a1.59 1.52-82.2 0 0 .56.77c3.19 2.33 5.58.26 6.13-3.15q5.67-34.56 11.58-69.06.25-1.5.3-3.03a.48.48 0 0 1 .48-.47h26.48a1.42 1.42 0 0 1 1.4 1.66Q636.43 883.01 630 919c-1.84 10.32-3.61 18.25-11.95 24.11-7.02 4.93-18.57 5.99-26.97 4.06-12.2-2.8-18.18-11.96-21.15-23.4q-7.08-27.26-14.23-54.51c-.97-3.69-5.51-3.9-6.5-.27q-6.67 24.22-13.64 48.35c-4.97 17.17-9.35 29.83-29.8 30.68ZM917.77 930.76l-6.15 14.79a.74.74 0 0 1-.68.45l-29.91-.01a.66.66 0 0 1-.6-.93q17.34-38.43 34.87-77.25c5.5-12.18 10.17-21.8 24.22-24.68 19.17-3.93 31.44 3.78 39.14 20.77q18.08 39.9 36.66 80.77a.94.94 0 0 1-.85 1.33h-28.86a.75.74-11.2 0 1-.69-.45l-6.31-14.79a.85.84-11.6 0 0-.78-.51h-59.3a.82.82 0 0 0-.76.51Zm33.29-61.32q-5.06-3.36-7.44 1.74-3.73 8-15.21 36.04a.39.38 11.1 0 0 .36.53h38.91a.4.4 0 0 0 .37-.56q-6.67-15.54-13.28-30.97c-.74-1.71-2.14-5.75-3.71-6.78ZM452.29 900.75l-.9 3.26a.68.68 0 0 1-.65.49q-10.45-.01-20.78.02c-.39 0-1.1.29-1.46.44l-54.95.04a.51.51 0 0 0-.51.5q-.11 6.07 0 12 .05 2.57 2.52 2.56 38.35-.04 76.68-.07a.51.51 0 0 1 .51.51v24.96a.52.51 90 0 1-.51.52q-65.71.09-92.48-.01c-13.02-.05-13.96-8.57-13.99-19.71q-.08-29.89.02-59.78c.05-16.74.6-21.87 18.29-21.98q39.85-.25 79.66-.08 4.14.02 8.35-.24a.64.62 87.8 0 1 .66.63v25.84a.55.55 0 0 1-.54.55l-75.2.22q-1.6 0-2.27.07a1.87 1.87 0 0 0-1.68 1.84l-.09 10.95a1.05 1.05 0 0 0 1.05 1.06l77.68.18a.51.5 90 0 1 .5.51l.09 14.72ZM671.58 903.38c-17.38-4.63-25.9-24.52-18.87-40.59 4.93-11.28 15.58-17.81 27.99-18.15 26.21-.72 52.55-.2 78.78-.06a.54.54 0 0 1 .53.54v25.63a.48.48 0 0 1-.48.48q-36.54.02-73.01-.03c-10.17-.02-11.17 13.96.42 14.02q23.28.11 46.55.51 21.3.38 29.25 19.02c6.85 16.05-3.28 34.8-19.46 39.62q-5.28 1.57-19.84 1.6-34.96.07-70 .01a.7.69-90 0 1-.69-.7v-23.8a1.49 1.49 0 0 1 1.49-1.49q36.67.05 73.25-.03c11.69-.03 11.56-14.76.15-14.71q-21.33.11-42.64-.12-7.16-.08-13.42-1.75ZM858.55 844.92c25.34 2.91 39.91 29.77 29.74 52.88-6.8 15.47-21.19 22.37-37.85 22.53q-23.41.23-46.68.15a.65.65 0 0 0-.65.65l.2 24.21a.66.66 0 0 1-.66.66h-26.04a.56.55 0 0 1-.56-.55q-.11-47.51-.02-94.94c.01-5.02 3.13-6.01 7.64-6 27.85.04 46.32-.38 63.21-.07q8.92.16 11.67.48Zm-1.13 49.33c12.76-5.07 7.78-23.08-6.42-23.07q-22.6.02-46.05.1a1.71 1.71 0 0 0-1.7 1.71v21.98a.5.5 0 0 0 .5.5q21.15.07 42.26.01 8.4-.03 11.41-1.23ZM1039.69 931.81c-17.96-16.56-20.49-44.54-7.07-64.74 13.68-20.6 33.18-23.13 56.94-22.66q8.56.18 41.17.1a.52.52 0 0 1 .52.52v25.69a.52.51 0 0 1-.52.51q-26.87.01-53.71 0-14.17 0-21.69 10.84c-9.02 13-2.34 30.95 12.43 35.7q4.37 1.41 15.8 1.44 23.57.08 47.17.05a.52.51 0 0 1 .52.51v25.67a.51.51 0 0 1-.5.51q-27.17.19-54.3.09-21.43-.09-36.76-14.23ZM1171.74 885.18c27.08-.19 52.04.37 78.03.33a.54.54 0 0 1 .54.53l.14 18.35a.59.59 0 0 1-.59.6l-77.97-.01a.64.64 0 0 0-.64.64v12.51a1.88 1.87 0 0 0 1.88 1.87h77.28a.35.35 0 0 1 .35.35l.02 25.13a.45.44-90 0 1-.44.45q-45.26.2-90.51-.02c-8.58-.05-15.73-2.84-15.77-12.46q-.18-47.51-.01-76.19c.08-13.8 12.19-12.84 22.14-12.85q42.03-.05 84.06.14a.5.5 0 0 1 .5.5v25.67a.51.51 0 0 1-.51.51q-37.26.04-74.49.01-1.56 0-3.8.39a.75.75 0 0 0-.62.73l-.12 12.3a.52.52 0 0 0 .53.52Z"/><path fill="#fff" d="M951.06 869.44c1.57 1.03 2.97 5.07 3.71 6.78q6.61 15.43 13.28 30.97a.4.4 0 0 1-.37.56h-38.91a.39.38 11.1 0 1-.36-.53q11.48-28.04 15.21-36.04 2.38-5.1 7.44-1.74ZM851 871.18c14.2-.01 19.18 18 6.42 23.07q-3.01 1.2-11.41 1.23-21.11.06-42.26-.01a.5.5 0 0 1-.5-.5v-21.98a1.71 1.71 0 0 1 1.7-1.71q23.45-.08 46.05-.1Z"/><path fill="#3bb3c2" d="M452.29 900.75q.53 1.99.04 3.94a.6.6 0 0 1-.63.46q-11.6-.77-23.2-.19c.36-.15 1.07-.44 1.46-.44q10.33-.03 20.78-.02a.68.68 0 0 0 .65-.49l.9-3.26ZM882.26 978.72l-.02 33.16a.62.62 0 0 1-.62.62h-11.76a.56.56 0 0 1-.56-.55q-.56-29.6-.08-40.69c.5-11.44 15.67-11.78 21.93-4.43q12.48 14.66 24.93 29.41a.8.8 0 0 0 .84.25q.82-.25.84-1.31.26-15.81.23-31.72a.46.45 0 0 1 .46-.45l12-.03a.47.47 0 0 1 .47.47q.22 19.8.14 39.6c-.05 11.64-12.78 13.72-19.57 6.01q-13.35-15.14-27.07-31.14a1.23 1.23 0 0 0-2.16.8ZM702.18 993.31l.3 5.66a.73.73 0 0 0 .65.69q1.18.14 3.12.15 17.27.13 34.55.28a.46.45 90 0 1 .45.46v11.41a.52.52 0 0 1-.52.52q-22.37.03-44.71.02c-4.37 0-6.9-1.55-6.94-6.08q-.14-18.44-.02-36.93c.04-5.88 3.83-6.46 8.93-6.46q21.33-.02 42.65-.08a.61.61 0 0 1 .61.61v11.81a.62.61 0 0 1-.62.61l-37.59.05a.68.68 0 0 0-.68.67l-.15 5.65a.64.63.9 0 0 .64.65h37.53a.62.62 0 0 1 .62.62v8.25a.63.63 0 0 1-.63.63h-37.42a.77.77 0 0 0-.77.81Z"/><path fill="#3bb3c2" d="M770.76 1012.49c-27.63-.06-33.39-40.13-7.03-48.19 8.37-2.55 23.72-1.25 34.42-1.39a.58.58 0 0 1 .58.56l.34 11.89a.56.55 89.5 0 1-.55.57q-11.96.14-23.75.12c-3.25-.01-6.58.19-9.34 1.88-10.81 6.63-5.28 21.4 7.09 21.47q12.95.07 25.95.16a.53.53 0 0 1 .52.53l.03 11.9a.51.51 0 0 1-.51.51q-14.41.01-27.75-.01ZM818.5 993.85v18.13a.54.54 0 0 1-.54.54l-12.21-.03a.5.5 0 0 1-.5-.5v-48.13a.89.89 0 0 1 .89-.89l11.94-.05a.41.41 0 0 1 .41.41l.03 17.09a.59.59 0 0 0 .59.58h28.64a.75.75 0 0 0 .75-.75v-16.72a.48.47-.6 0 1 .47-.47l12.04-.2a.48.47-2.5 0 1 .49.44c.57 8.24-.02 17.53.12 24.61q.23 11.97 0 23.95a.65.65 0 0 1-.65.64h-11.89a.61.61 0 0 1-.61-.61l.04-17.89a.76.76 0 0 0-.76-.76l-28.66.03a.59.58 0 0 0-.59.58ZM1220.44 978.89l14.4-15.74a.53.53 0 0 1 .38-.17l14.76-.25a.53.53 0 0 1 .4.89l-23.99 26.47a.53.53 0 0 0-.14.35v21.58a.53.53 0 0 1-.53.53l-12.44-.07a.53.53 0 0 1-.53-.53V989.6a.53.53 0 0 0-.14-.35l-23.16-25.51a.53.53 0 0 1 .4-.89l14.97.12a.53.53 0 0 1 .39.17l14.45 15.75a.53.53 0 0 0 .78 0ZM648.32 976.02l-21.14-.03a.43.43 0 0 1-.43-.43l.01-12.13a.43.43 0 0 1 .43-.43h56.13a.43.43 0 0 1 .43.43v12.14a.43.43 0 0 1-.43.43h-20.89a.43.43 0 0 0-.43.43l.01 35.64a.43.43 0 0 1-.43.43h-12.41a.43.43 0 0 1-.43-.43l.01-35.62a.43.43 0 0 0-.43-.43ZM960.32 1012.41c-19.03-.95-29.3-23.11-18.64-38.52 6.7-9.69 15.46-11.04 26.38-10.99q7.71.04 10.8.47c23 3.24 29.56 32.87 10 45.43-7.8 5.01-21.03 3.98-28.54 3.61Zm26.671-25.328a10.82 10.82 0 0 0-10.8-10.84l-14.44-.025a10.82 10.82 0 0 0-10.84 10.802l-.002 1.44a10.82 10.82 0 0 0 10.8 10.838l14.44.026a10.82 10.82 0 0 0 10.84-10.802l.002-1.44ZM1021.01 1012.52c-8.31.01-14.02-4.97-14.14-13.48q-.26-17.68-.04-35.52a.53.53 0 0 1 .53-.52h12.12a.52.52 0 0 1 .52.53q-.2 26.17.18 33.73.11 2.28 3.07 2.35 17.57.42 35.13.41a.62.62 0 0 1 .62.62v11.3a.6.6 0 0 1-.6.6q-18.72-.05-37.39-.02ZM1088.02 1012.46c-21.02-.09-31.75-23.46-19.96-39.65 7.62-10.45 19.58-9.93 31.68-9.9q18.97.05 25.38 17.25c5 13.39-3.88 27.49-16.89 31.3-5.84 1.7-13.63 1.03-20.21 1Zm24.73-25.4a10.83 10.83 0 0 0-10.83-10.83h-14.42a10.83 10.83 0 0 0-10.83 10.83v1.42a10.83 10.83 0 0 0 10.83 10.83h14.42a10.83 10.83 0 0 0 10.83-10.83v-1.42Z"/><path fill="#3bb3c2" d="M1156.26 1012.38c-31.9-.28-32.89-47.88-.2-49.31q6.57-.29 28.41.01a.54.54 0 0 1 .53.54v11.76a.54.54 0 0 1-.53.54q-12.53.16-24.96.06c-19.18-.16-18.47 23.34-2.44 23.69q6.94.15 13.99.06a.7.7 0 0 0 .69-.7V986a.5.5 0 0 1 .5-.5h12.13a.53.53 0 0 1 .53.52q.21 11.53.03 22.95c-.05 2.81-.66 3.54-3.55 3.54q-12.58-.02-25.13-.13Z"/><rect width="36.08" height="23.08" x="-18.04" y="-11.54" fill="#fff" rx="10.82" transform="rotate(.1 -565465.903 555661.2)"/><rect width="36.08" height="23.08" x="1076.67" y="976.23" fill="#fff" rx="10.83"/><path fill="#42929d" d="M1448 1447.06v.94h-1.06l-1445.27-.19a.21.19-73.5 0 0-.17.1l-.06.09h-.25l.1-.98 1446.71.04Z"/><path fill="#010101" d="M1446.94 1448H1.44l.06-.09a.21.19-73.5 0 1 .17-.1l1445.27.19Z"/></svg>