<svg xmlns="http://www.w3.org/2000/svg" viewBox="0 0 1181 1181"><g fill="none" stroke-width="2"><path stroke="#6f9496" d="M393.25 274.71q.3-.04.59.09t.62.12l47.56-1.4q.74-.02.31.58l-39.78 55.05a.98.95 53.5 0 0-.12.9l6.61 18.2" vector-effect="non-scaling-stroke"/><path stroke="#607781" d="m421.54 383.25 3.89 10.64a.61.61 0 0 1-.76.79l-18.42-5.97" vector-effect="non-scaling-stroke"/><path stroke="#6f9496" d="M304.5 399.96q.57-26.23.01-52.52a1.32 1.3 16.7 0 0-.57-1.04l-12.4-8.4M264.46 429.75l-16.43-22.1a.51.5-55 0 0-.89.16l-12.41 42.28a1.16 1.15-1.1 0 1-.75.77l-42.04 13.87a.51.5-37.5 0 0-.12.9q10 6.67 20.11 13.73.37.26.57.68" vector-effect="non-scaling-stroke"/><path stroke="#87b8db" d="M872.75 774.21c24.44-19.66 36.36-43.85 32.85-75.77-2.93-26.72-22.39-43.66-46.89-51.12-6.21-1.89-11.62-3.63-17.46-5.36M815.75 594.29c7.71-.46 24.27 1.91 27.73 9.25 1.54 3.27.77 9.99.82 13.73a.48.48 0 0 0 .48.48h55.68a.5.49.6 0 0 .5-.48q.23-11.36-.04-14.71c-1.83-22.48-17.25-42.33-37.49-51.25q-7.62-3.35-19.18-5.44-32.57-5.89-65 2.59M494 454.46h-.25" vector-effect="non-scaling-stroke"/><path stroke="#08385c" d="M493.75 454.46q-2.09-.43-4 .5" vector-effect="non-scaling-stroke"/><path stroke="#87b8db" d="M489.75 454.96q-8 1.23-15.75 3.58M319.71 546.25c-63.54-13.55-117.18 24.39-131 86.35-10.77 48.31-1.01 103.75 38.97 136.74.36.3.5.73.61 1.16" vector-effect="non-scaling-stroke"/><path stroke="#1e8dcc" d="M228.29 770.5q-.52 1.95 1.17 2.5" vector-effect="non-scaling-stroke"/><path stroke="#607781" d="m228.71 524.25.2 11.15a.63.63 0 0 0 1.01.49L264.78 509a1.08 1.07-54.7 0 1 .96-.17l42.1 13.5a.5.5 0 0 0 .63-.65l-14.91-41.7a.84.82-37.5 0 1 .11-.77l25.91-35.97a.61.61 0 0 0-.65-.94q-4.02 1.1-8.2-.33" vector-effect="non-scaling-stroke"/><path stroke="#96d5f0" d="m230 770.96-1.71-.46" vector-effect="non-scaling-stroke"/><path stroke="gray" d="m493.75 454.46-4 .5" vector-effect="non-scaling-stroke"/><path stroke="#d2973d" d="m322.73 262.67-7.24 24.69a1.36 1.35 89.2 0 1-.89.92l-9.35 3.01M305.25 291.29l-51.65 16.96a.25.25 0 0 0-.06.45l52.72 36a2.05 2.04 17.2 0 1 .9 1.69l.13 63.58a.37.37 0 0 0 .59.29l16.18-12.87M324.06 397.39q12.29-8.51 21.66-16.77" vector-effect="non-scaling-stroke"/><path stroke="#d4a953" d="m345.72 380.62 12.93-9.35a1.02 1.01 35.2 0 1 .9-.15l7.2 2.09M366.75 373.21l29 9.25M395.75 382.46l24.96 8.05q.55.18.36-.36l-21.58-60.45a.96.96 0 0 1 .13-.89L437 276.94a.43.43 0 0 0-.36-.68l-58.89 1.78M377.75 278.04l-5.15-.04a.8.78 71.6 0 1-.64-.33l-25.71-34.96M346.25 242.71l-12.43-16.57q-.31-.41-.46.09l-10.63 36.44" vector-effect="non-scaling-stroke"/><path stroke="#f8d35c" d="M346.25 242.71q-.23.09-.4 0a.31.31 0 0 0-.39.09c-.92 1.21 1.6 12.96 2.72 19.46q7.52 43.52 15.14 87.02c1.3 7.4 2.72 14.5 3.47 21.99q.1.96-.04 1.94" vector-effect="non-scaling-stroke"/><path stroke="#f6c146" d="M345.72 380.62q-8.89-46.34-16.66-92.87c-.32-1.91.04-4.74-1.13-7.03a1.54 1.53 35.4 0 1-.16-.93c.34-2.56-.83-4.39-1.13-6.66q-.21-1.61-.76-3.17-.17-.46-.11-.94.49-4.17-3.04-6.35" vector-effect="non-scaling-stroke"/><path stroke="#f3af2f" d="M324.06 397.39q-6.92-35.93-13.04-71.89c-1.38-8.15-2.53-14.97-4.32-24.36q-.93-4.89-1.45-9.85" vector-effect="non-scaling-stroke"/><path stroke="#f8d35c" d="M377.75 278.04q2.72 13.56 5.05 27.2 5.62 32.77 11.38 65.52 1.39 7.88 1.57 11.7" vector-effect="non-scaling-stroke"/><path stroke="#d2973d" d="m77 422.96-23.77 7.89a.41.4-37.1 0 0-.1.72l20.46 13.95a.88.88 0 0 1 .39.73l.03 24.74q0 .63.52.28 6.19-4.13 11.06-8.68" vector-effect="non-scaling-stroke"/><path stroke="#d4a953" d="m85.59 462.59 8.82-6.33a1.04 1.01-53.5 0 1 .9-.15l23.48 7.58a.36.36 0 0 0 .45-.46l-8.38-23.39a1.03 1 53.9 0 1 .13-.92l14.43-19.97a.47.47 0 0 0-.4-.74l-24.73.72a.77.76-18.8 0 1-.66-.32l-14.66-20.09a.42.42 0 0 0-.75.13L77 422.96" vector-effect="non-scaling-stroke"/><path stroke="#f6c146" d="M85.59 462.59q-4.8-23.54-6.64-36.07-.37-2.57-1.95-3.56" vector-effect="non-scaling-stroke"/><path stroke="#d2973d" d="m244.04 428-7.18 24.33a1.07 1.05 89.6 0 1-.69.71l-38.35 12.54a.38.38 0 0 0-.1.68l33.35 22.89a1.01 1 17.2 0 1 .44.83l-.03 40.85a.18.18 0 0 0 .3.14l28.11-21.9" vector-effect="non-scaling-stroke"/><path stroke="#d4a953" d="m259.89 509.07 4.26-3.01a1 .99-54.8 0 1 .85-.15l8.48 2.28M273.48 508.19l13.69 4.59M287.17 512.78l16.7 5.4a.29.29 0 0 0 .36-.38l-13.73-38.37a.72.69 54.2 0 1 .09-.64l23.9-33.1a.32.31 17.8 0 0-.26-.5l-39.08 1.03M275.15 446.22q-1.95.69-2.59-.28-4.4-6.7-10.81-14.73M261.75 431.21l-12.94-17.57q-.33-.44-.48.08L244.04 428" vector-effect="non-scaling-stroke"/><path stroke="#f8d35c" d="m261.75 431.21-.39-.09a.46.45 4.8 0 0-.56.47q.32 4.58 1.7 11.91 4.85 25.84 10.98 64.69" vector-effect="non-scaling-stroke"/><path stroke="#f6c146" d="M259.89 509.07q-5.38-24.63-9.36-49.45c-.34-2.11-.4-5.05-.94-7.47-1.48-6.59-2.6-13.26-3.85-19.9q-.32-1.72-1.7-4.25" vector-effect="non-scaling-stroke"/><path stroke="#f8d35c" d="m275.15 446.22 12.02 66.56" vector-effect="non-scaling-stroke"/><path stroke="gray" d="M470.05 557.25c-.4-14.88-1-31.45 5.21-45.3 4.64-10.35 19.37-14.82 30.01-15.47q11.65-.71 29.64 2.16a.53.52 4.7 0 0 .61-.51l-.03-32.09a.58.57-85.3 0 0-.48-.57q-20.58-3.62-39.56-2.57c-23.87 1.32-47.65 14.89-57.14 37.67-7.37 17.67-8.57 37.53-8.34 56.69a.49.49 0 0 1-.49.49h-30.24a.52.51 0 0 0-.52.51l.03 32.9a.36.35 90 0 0 .35.36l30.15-.03a.76.75 90 0 1 .75.76v183.5a.5.5 0 0 0 .5.5h39a.5.5 0 0 0 .5-.5V591.91a.41.41 0 0 1 .41-.41h61.53a.57.57 0 0 0 .57-.57l-.01-32.68a.5.5 0 0 0-.5-.5h-61.44a.51.51 0 0 1-.51-.5M567.21 758.04c25.57 23.54 62.24 28.03 95.28 21.46 29.07-5.77 59.31-29.55 57.99-62a.52.52 0 0 0-.52-.5h-38.98a.53.53 0 0 0-.53.57c1.16 14.49-9.37 25.16-22.71 28.39-25.27 6.12-50.91.49-67.06-20.61-9.22-12.04-12.9-27.3-14.19-42.6-1.47-17.53-1.05-35.27 3.41-51.67 6.96-25.6 26.42-42.76 52.72-45.1 18.97-1.69 50.02 3.68 47.8 30.13a.83.82-87.7 0 0 .82.89h38.72a.53.53 0 0 0 .53-.51q.9-22.21-14.36-38.15c-22.57-23.57-54.77-29.3-86.71-25.28-56.9 7.18-81.55 49.96-84.7 102.63-2.16 36.11 4.42 76.51 32.49 102.35M751.15 656.35q12 10.21 24.77 14.27 29.24 9.29 58.54 18.36c10.33 3.2 21.8 10.87 23 22.53 1.96 19.1-16.42 32.43-33.46 35.46-22.41 4-58.2 1.14-57.57-30.55a.89.89 0 0 0-.9-.91l-38.36.32a.47.47 0 0 0-.47.45c-1.39 33.66 25.77 57.02 56.35 63.3 19.86 4.07 42.68 3.49 61.96-1.81 36.63-10.06 58.42-44.97 51.52-82.44-4.67-25.31-24.48-34.83-45.85-41.74q-11.95-3.87-49.9-14.71c-12.51-3.57-28.1-9.86-27.59-24.79.5-14.77 13.13-24.24 27.06-26.84 14.08-2.62 35.42-2.62 46.53 7.22 4.24 3.75 6.43 8.5 5.7 14.04a.81.81 0 0 0 .81.91l38.7-.14a.56.56 0 0 0 .56-.54q.62-13.77-6.47-26.05c-10.5-18.2-26.18-26.09-46.33-29.12-39.07-5.89-87.44 1.55-102.8 44.58-7.3 20.44-2.6 43.91 14.2 58.2M233.37 673.63l148.28-.18a.46.45-89.3 0 0 .45-.45c1.03-45.38-4.47-95.21-52.36-114.53-16.3-6.57-35.16-8.01-52.49-5.24-43.62 6.97-73.64 43.75-81.54 86.01-7.81 41.73.68 93.18 35.17 121.74 22.7 18.79 52.12 23.51 81.17 20.09 29.27-3.45 54.62-17.79 66.22-46.11q2.93-7.17 2.2-17.48a.51.51 0 0 0-.51-.48h-38.44a.82.82 0 0 0-.82.87c1.29 22.1-19.78 29.25-37.36 30.3-44.72 2.65-70.95-32.34-70.53-73.98a.56.56 0 0 1 .56-.56" vector-effect="non-scaling-stroke"/><path stroke="gray" d="M235.92 642.41c35.76.2 71.51.41 107.27-.01a.51.51 0 0 0 .5-.5c.29-32.75-21.56-58.18-55.87-56.05-28.99 1.8-47.39 30.16-52.31 56.07a.42.42 0 0 0 .41.49" vector-effect="non-scaling-stroke"/></g><path fill="#b07e4a" d="M393.25 274.71q.3-.04.59.09t.62.12l47.56-1.4q.74-.02.31.58l-39.78 55.05a.98.95 53.5 0 0-.12.9l6.61 18.2 12.5 35 3.89 10.64a.61.61 0 0 1-.76.79l-18.42-5.97-46.22-14.92a.9.9 0 0 0-.83.14l-53.8 41.51a.45.45 0 0 1-.72-.35l-.18-15.13q.57-26.23.01-52.52a1.32 1.3 16.7 0 0-.57-1.04l-12.4-8.4-43.46-29.81a.44.44 0 0 1 .11-.78l64.42-21.14a1.15 1.14 89.1 0 0 .73-.76l19.06-65.05a.4.4 0 0 1 .71-.13l40.1 54.74a.99.98 70.6 0 0 .83.4l19.21-.76Zm-70.52-12.04-7.24 24.69a1.36 1.35 89.2 0 1-.89.92l-9.35 3.01-51.65 16.96a.25.25 0 0 0-.06.45l52.72 36a2.05 2.04 17.2 0 1 .9 1.69l.13 63.58a.37.37 0 0 0 .59.29l16.18-12.87q12.29-8.51 21.66-16.77l12.93-9.35a1.02 1.01 35.2 0 1 .9-.15l7.2 2.09 29 9.25 24.96 8.05q.55.18.36-.36l-21.58-60.45a.96.96 0 0 1 .13-.89L437 276.94a.43.43 0 0 0-.36-.68l-58.89 1.78-5.15-.04a.8.78 71.6 0 1-.64-.33l-25.71-34.96-12.43-16.57q-.31-.41-.46.09l-10.63 36.44Z"/><path fill="#f8d35c" d="M346.25 242.71q-.23.09-.4 0a.31.31 0 0 0-.39.09c-.92 1.21 1.6 12.96 2.72 19.46q7.52 43.52 15.14 87.02c1.3 7.4 2.72 14.5 3.47 21.99q.1.96-.04 1.94l-7.2-2.09a1.02 1.01 35.2 0 0-.9.15l-12.93 9.35q-8.89-46.34-16.66-92.87c-.32-1.91.04-4.74-1.13-7.03a1.54 1.53 35.4 0 1-.16-.93c.34-2.56-.83-4.39-1.13-6.66q-.21-1.61-.76-3.17-.17-.46-.11-.94.49-4.17-3.04-6.35l10.63-36.44q.15-.5.46-.09l12.43 16.57Z"/><path fill="#2daae1" d="m409.04 348.25-6.61-18.2a.98.95 53.5 0 1 .12-.9l39.78-55.05q.43-.6-.31-.58l-47.56 1.4q-.33.01-.62-.12t-.59-.09c83.17-38.48 174.84-52.98 265.93-40.45 154.33 21.24 285.72 115.92 363.57 249.37 50.37 86.33 75.35 185.14 74.69 285.32q-.01 1.44-.41 3.82a.57.56 4.1 0 1-.56.48h-83.23a.57.57 0 0 1-.57-.53C997.64 600.52 897.33 443.36 740.51 368c-103.11-49.55-222.37-56.63-331.47-19.75Z"/><path fill="#f8d35c" d="m346.25 242.71 25.71 34.96a.8.78 71.6 0 0 .64.33l5.15.04q2.72 13.56 5.05 27.2 5.62 32.77 11.38 65.52 1.39 7.88 1.57 11.7l-29-9.25q.14-.98.04-1.94c-.75-7.49-2.17-14.59-3.47-21.99q-7.62-43.5-15.14-87.02c-1.12-6.5-3.64-18.25-2.72-19.46a.31.31 0 0 1 .39-.09q.17.09.4 0Z"/><path fill="#f3af2f" d="M345.72 380.62q-9.37 8.26-21.66 16.77-6.92-35.93-13.04-71.89c-1.38-8.15-2.53-14.97-4.32-24.36q-.93-4.89-1.45-9.85l9.35-3.01a1.36 1.35 89.2 0 0 .89-.92l7.24-24.69q3.53 2.18 3.04 6.35-.06.48.11.94.55 1.56.76 3.17c.3 2.27 1.47 4.1 1.13 6.66a1.54 1.53 35.4 0 0 .16.93c1.17 2.29.81 5.12 1.13 7.03q7.77 46.53 16.66 92.87Z"/><path fill="#f8d35c" d="M395.75 382.46q-.18-3.82-1.57-11.7-5.76-32.75-11.38-65.52-2.33-13.64-5.05-27.2l58.89-1.78a.43.43 0 0 1 .36.68l-37.38 51.87a.96.96 0 0 0-.13.89l21.58 60.45q.19.54-.36.36l-24.96-8.05Z"/><path fill="#f3af2f" d="M305.25 291.29q.52 4.96 1.45 9.85c1.79 9.39 2.94 16.21 4.32 24.36q6.12 35.96 13.04 71.89l-16.18 12.87a.37.37 0 0 1-.59-.29l-.13-63.58a2.05 2.04 17.2 0 0-.9-1.69l-52.72-36a.25.25 0 0 1 .06-.45l51.65-16.96Z"/><path fill="#2daae1" d="m291.54 338 12.4 8.4a1.32 1.3 16.7 0 1 .57 1.04q.56 26.29-.01 52.52-20.91 13.69-40.04 29.79l-16.43-22.1a.51.5-55 0 0-.89.16l-12.41 42.28a1.16 1.15-1.1 0 1-.75.77l-42.04 13.87a.51.5-37.5 0 0-.12.9q10 6.67 20.11 13.73.37.26.57.68-84.03 96.23-112.94 220.98-2.68 11.57-5.94 28.75-.1.5-.08-.01.3-9.02 1.71-22.99C109.87 562.4 178.89 429.84 291.54 338Z"/><path fill="#0f70b7" d="M872.75 774.21c24.44-19.66 36.36-43.85 32.85-75.77-2.93-26.72-22.39-43.66-46.89-51.12-6.21-1.89-11.62-3.63-17.46-5.36q-10.53-25.02-25.5-47.67c7.71-.46 24.27 1.91 27.73 9.25 1.54 3.27.77 9.99.82 13.73a.48.48 0 0 0 .48.48h55.68a.5.49.6 0 0 .5-.48q.23-11.36-.04-14.71c-1.83-22.48-17.25-42.33-37.49-51.25q-7.62-3.35-19.18-5.44-32.57-5.89-65 2.59c-73.11-76.74-177.7-111.3-282.43-94.86q-1.92.3-2.82.86h-.25q-2.09-.43-4 .5-8 1.23-15.75 3.58-.29.03-.52-.06a1.32 1.24 46.8 0 0-.78-.05q-88.98 22.4-152.99 87.82c-63.54-13.55-117.18 24.39-131 86.35-10.77 48.31-1.01 103.75 38.97 136.74.36.3.5.73.61 1.16q-.52 1.95 1.17 2.5.15.41.01.78a.7.69 9.3 0 1-.66.47h-79.07q-2.08 0-2.08-2.08-.32-133.28 75.71-241.02 3.04-4.31 5.34-6.9l.2 11.15a.63.63 0 0 0 1.01.49L264.78 509a1.08 1.07-54.7 0 1 .96-.17l42.1 13.5a.5.5 0 0 0 .63-.65l-14.91-41.7a.84.82-37.5 0 1 .11-.77l25.91-35.97a.61.61 0 0 0-.65-.94q-4.02 1.1-8.2-.33 44.3-32.86 95.52-53.26l18.42 5.97a.61.61 0 0 0 .76-.79l-3.89-10.64c182.14-61.94 383.35 11.2 481.12 176.34q57.86 97.73 57.13 213.07a1.59 1.58-89.8 0 1-1.58 1.58l-85.46-.03Z"/><path fill="#b07e4a" d="m130.67 416.06-17 23.56a.32.32 0 0 0-.04.3l9.78 27.37a.32.32 0 0 1-.4.41l-27.64-8.9a.32.32 0 0 0-.29.05l-23.06 17.79a.32.32 0 0 1-.52-.25V447.4a.32.32 0 0 0-.14-.27l-24.13-16.48a.32.32 0 0 1 .08-.57l27.64-9.1a.32.32 0 0 0 .21-.21l8.2-27.93a.32.32 0 0 1 .56-.1l17.17 23.51a.32.32 0 0 0 .27.14l29.04-.84a.32.32 0 0 1 .27.51ZM77 422.96l-23.77 7.89a.41.4-37.1 0 0-.1.72l20.46 13.95a.88.88 0 0 1 .39.73l.03 24.74q0 .63.52.28 6.19-4.13 11.06-8.68l8.82-6.33a1.04 1.01-53.5 0 1 .9-.15l23.48 7.58a.36.36 0 0 0 .45-.46l-8.38-23.39a1.03 1 53.9 0 1 .13-.92l14.43-19.97a.47.47 0 0 0-.4-.74l-24.73.72a.77.76-18.8 0 1-.66-.32l-14.66-20.09a.42.42 0 0 0-.75.13L77 422.96Z"/><path fill="#f8d35c" d="M85.59 462.59q-4.8-23.54-6.64-36.07-.37-2.57-1.95-3.56l7.22-24.31a.42.42 0 0 1 .75-.13l14.66 20.09a.77.76-18.8 0 0 .66.32l24.73-.72a.47.47 0 0 1 .4.74l-14.43 19.97a1.03 1 53.9 0 0-.13.92l8.38 23.39a.36.36 0 0 1-.45.46l-23.48-7.58a1.04 1.01-53.5 0 0-.9.15l-8.82 6.33Z"/><path fill="#b07e4a" d="M264.46 429.75q4.4 7.1 9.71 13.68a.99.98-20.3 0 0 .81.37q16.82-.42 33.58-.91.85-.03 2.17-.92 4.18 1.43 8.2.33a.61.61 0 0 1 .65.94l-25.91 35.97a.84.82-37.5 0 0-.11.77l14.91 41.7a.5.5 0 0 1-.63.65l-42.1-13.5a1.08 1.07-54.7 0 0-.96.17l-34.86 26.89a.63.63 0 0 1-1.01-.49l-.2-11.15q.61-16.46.15-32.99a1.01 1-74 0 0-.45-.82l-15.18-10.35a.6.59 57.7 0 0-.44-.1l-.29.05q-.2-.42-.57-.68-10.11-7.06-20.11-13.73a.51.5-37.5 0 1 .12-.9l42.04-13.87a1.16 1.15-1.1 0 0 .75-.77l12.41-42.28a.51.5-55 0 1 .89-.16l16.43 22.1ZM244.04 428l-7.18 24.33a1.07 1.05 89.6 0 1-.69.71l-38.35 12.54a.38.38 0 0 0-.1.68l33.35 22.89a1.01 1 17.2 0 1 .44.83l-.03 40.85a.18.18 0 0 0 .3.14l28.11-21.9 4.26-3.01a1 .99-54.8 0 1 .85-.15l8.48 2.28 13.69 4.59 16.7 5.4a.29.29 0 0 0 .36-.38l-13.73-38.37a.72.69 54.2 0 1 .09-.64l23.9-33.1a.32.31 17.8 0 0-.26-.5l-39.08 1.03q-1.95.69-2.59-.28-4.4-6.7-10.81-14.73l-12.94-17.57q-.33-.44-.48.08L244.04 428Z"/><path fill="#f8d35c" d="m261.75 431.21-.39-.09a.46.45 4.8 0 0-.56.47q.32 4.58 1.7 11.91 4.85 25.84 10.98 64.69l-8.48-2.28a1 .99-54.8 0 0-.85.15l-4.26 3.01q-5.38-24.63-9.36-49.45c-.34-2.11-.4-5.05-.94-7.47-1.48-6.59-2.6-13.26-3.85-19.9q-.32-1.72-1.7-4.25l4.29-14.28q.15-.52.48-.08l12.94 17.57Z"/><path fill="#f3af2f" d="M77 422.96q1.58.99 1.95 3.56 1.84 12.53 6.64 36.07-4.87 4.55-11.06 8.68-.52.35-.52-.28l-.03-24.74a.88.88 0 0 0-.39-.73l-20.46-13.95a.41.4-37.1 0 1 .1-.72L77 422.96ZM244.04 428q1.38 2.53 1.7 4.25c1.25 6.64 2.37 13.31 3.85 19.9.54 2.42.6 5.36.94 7.47q3.98 24.82 9.36 49.45l-28.11 21.9a.18.18 0 0 1-.3-.14l.03-40.85a1.01 1 17.2 0 0-.44-.83l-33.35-22.89a.38.38 0 0 1 .1-.68l38.35-12.54a1.07 1.05 89.6 0 0 .69-.71l7.18-24.33Z"/><path fill="#f8d35c" d="M261.75 431.21q6.41 8.03 10.81 14.73.64.97 2.59.28l12.02 66.56-13.69-4.59q-6.13-38.85-10.98-64.69-1.38-7.33-1.7-11.91a.46.45 4.8 0 1 .56-.47l.39.09ZM287.17 512.78l-12.02-66.56 39.08-1.03a.32.31 17.8 0 1 .26.5l-23.9 33.1a.72.69 54.2 0 0-.09.64l13.73 38.37a.29.29 0 0 1-.36.38l-16.7-5.4Z"/><path d="m493.75 454.46-4 .5q1.91-.93 4-.5Z"/><path fill="#fff" d="M779.25 548.46q32.43-8.48 65-2.59 11.56 2.09 19.18 5.44c20.24 8.92 35.66 28.77 37.49 51.25q.27 3.35.04 14.71a.5.49.6 0 1-.5.48h-55.68a.48.48 0 0 1-.48-.48c-.05-3.74.72-10.46-.82-13.73-3.46-7.34-20.02-9.71-27.73-9.25-11.21-.88-24.2 1.9-31.51 11.43-3.13 4.09-3.92 11.72-.1 15.96 4.21 4.65 14.18 8.12 20.58 9.92q18.28 5.14 36.53 10.36c5.84 1.73 11.25 3.47 17.46 5.36 24.5 7.46 43.96 24.4 46.89 51.12 3.51 31.92-8.41 56.11-32.85 75.77-25.15 15.92-57 19.26-86.12 14.41-26.68-4.44-51.31-18.47-62.96-43.9q-.2-.45-.44-.01-18.55 33.67-55.98 42.32-28.16 6.51-56.74 1.14c-71.23-13.39-90.86-83.44-83.02-146.18q2.74-21.9 11.54-41.51a.34.34 0 0 0-.31-.48h-59.97a.5.5 0 0 0-.5.5V784a.5.5 0 0 1-.5.5h-55.5a.5.5 0 0 1-.5-.5V600.5a.5.5 0 0 0-.5-.5h-30.5a.5.5 0 0 1-.5-.5V550a.5.5 0 0 1 .5-.5h30.49a.53.52 90 0 0 .52-.53c-.54-39.48 11.25-76.55 52.24-90.43q7.75-2.35 15.75-3.58l4-.5h.25c16.94-.57 32.97 1.05 49.67 3.76a.39.38 4.4 0 1 .33.38v49.14a.47.46-85.8 0 1-.53.47c-16.23-2.37-51.75-9.11-60.59 7.09-4.76 8.72-5.09 23.6-4.49 33.63a.61.6-1.5 0 0 .61.57h61.59a.4.4 0 0 1 .4.4l.02 45.56a.35.35 0 0 0 .66.17c16.05-29.68 42.22-46.21 75.19-50.82 30.27-4.24 63.02.62 87.45 20.35q17.24 13.92 22.99 34.33.13.48.29.01 12.97-38.43 51.66-51.04Zm-309.2 8.79c-.4-14.88-1-31.45 5.21-45.3 4.64-10.35 19.37-14.82 30.01-15.47q11.65-.71 29.64 2.16a.53.52 4.7 0 0 .61-.51l-.03-32.09a.58.57-85.3 0 0-.48-.57q-20.58-3.62-39.56-2.57c-23.87 1.32-47.65 14.89-57.14 37.67-7.37 17.67-8.57 37.53-8.34 56.69a.49.49 0 0 1-.49.49h-30.24a.52.51 0 0 0-.52.51l.03 32.9a.36.35 90 0 0 .35.36l30.15-.03a.76.75 90 0 1 .75.76v183.5a.5.5 0 0 0 .5.5h39a.5.5 0 0 0 .5-.5V591.91a.41.41 0 0 1 .41-.41h61.53a.57.57 0 0 0 .57-.57l-.01-32.68a.5.5 0 0 0-.5-.5h-61.44a.51.51 0 0 1-.51-.5Zm97.16 200.79c25.57 23.54 62.24 28.03 95.28 21.46 29.07-5.77 59.31-29.55 57.99-62a.52.52 0 0 0-.52-.5h-38.98a.53.53 0 0 0-.53.57c1.16 14.49-9.37 25.16-22.71 28.39-25.27 6.12-50.91.49-67.06-20.61-9.22-12.04-12.9-27.3-14.19-42.6-1.47-17.53-1.05-35.27 3.41-51.67 6.96-25.6 26.42-42.76 52.72-45.1 18.97-1.69 50.02 3.68 47.8 30.13a.83.82-87.7 0 0 .82.89h38.72a.53.53 0 0 0 .53-.51q.9-22.21-14.36-38.15c-22.57-23.57-54.77-29.3-86.71-25.28-56.9 7.18-81.55 49.96-84.7 102.63-2.16 36.11 4.42 76.51 32.49 102.35Zm183.94-101.69q12 10.21 24.77 14.27 29.24 9.29 58.54 18.36c10.33 3.2 21.8 10.87 23 22.53 1.96 19.1-16.42 32.43-33.46 35.46-22.41 4-58.2 1.14-57.57-30.55a.89.89 0 0 0-.9-.91l-38.36.32a.47.47 0 0 0-.47.45c-1.39 33.66 25.77 57.02 56.35 63.3 19.86 4.07 42.68 3.49 61.96-1.81 36.63-10.06 58.42-44.97 51.52-82.44-4.67-25.31-24.48-34.83-45.85-41.74q-11.95-3.87-49.9-14.71c-12.51-3.57-28.1-9.86-27.59-24.79.5-14.77 13.13-24.24 27.06-26.84 14.08-2.62 35.42-2.62 46.53 7.22 4.24 3.75 6.43 8.5 5.7 14.04a.81.81 0 0 0 .81.91l38.7-.14a.56.56 0 0 0 .56-.54q.62-13.77-6.47-26.05c-10.5-18.2-26.18-26.09-46.33-29.12-39.07-5.89-87.44 1.55-102.8 44.58-7.3 20.44-2.6 43.91 14.2 58.2Zm-164.02 40.63c4.2 20.03 16.84 36.14 36.91 41.14 13.52 3.38 39.49 3.63 46.72-11.45 2.25-4.69 1.51-11.96 1.62-17.33a.6.6 0 0 1 .6-.59h44.58a.66.66 0 0 0 .66-.61l.03-.29a.65.65 0 0 1 .65-.6h55.12a.6.6 0 0 1 .6.57c.24 5.15-.37 11.26.91 15.68q3.31 11.44 16.07 14.4c17.07 3.97 37.05 3.56 50.67-8.87 5.32-4.86 8.57-12.32 6.31-19.38-2.92-9.14-16.39-12.57-24.84-15.22q-24.25-7.59-48.41-15.4c-25.75-8.33-45.98-26.04-49.51-53.42a.42.41 86 0 0-.41-.36h-52.44a.59.59 0 0 1-.59-.57q-.19-5.81-.17-11.62c.04-8.98-8.24-14.99-16.14-16.93-25.6-6.27-51.72 1.31-63.93 25.83-10.46 21-9.74 52.55-5.01 75.02Z"/><path d="M470.56 557.75H532a.5.5 0 0 1 .5.5l.01 32.68a.57.57 0 0 1-.57.57h-61.53a.41.41 0 0 0-.41.41v183.84a.5.5 0 0 1-.5.5h-39a.5.5 0 0 1-.5-.5v-183.5a.76.75 90 0 0-.75-.76l-30.15.03a.36.35 90 0 1-.35-.36l-.03-32.9a.52.51 0 0 1 .52-.51h30.24a.49.49 0 0 0 .49-.49c-.23-19.16.97-39.02 8.34-56.69 9.49-22.78 33.27-36.35 57.14-37.67q18.98-1.05 39.56 2.57a.58.57-85.3 0 1 .48.57l.03 32.09a.53.52 4.7 0 1-.61.51q-17.99-2.87-29.64-2.16c-10.64.65-25.37 5.12-30.01 15.47-6.21 13.85-5.61 30.42-5.21 45.3a.51.51 0 0 0 .51.5Z"/><path fill="#fff" d="M319.71 546.25c2.48 1.12 5.68 1.71 7.71 2.41 59.56 20.58 64.52 78.65 62.93 132.78a.58.58 0 0 1-.58.56H245.78a.63.62 8 0 0-.6.45c-1.69 5.66-2.68 7.64-1.54 12.46 8.2 34.75 37.89 51.79 72.53 42.96 8.16-2.08 16.39-8.74 16.31-17.78q-.06-5.38.15-10.77a.6.6 0 0 1 .6-.57h55.28a.48.48 0 0 1 .48.48c0 6.52.39 13.61-.64 19.66-4.79 28.33-30.79 49.51-57.14 56.76-33.57 9.23-72.29 6.12-101.21-14.69l-1.71-.46c-.11-.43-.25-.86-.61-1.16-39.98-32.99-49.74-88.43-38.97-136.74 13.82-61.96 67.46-99.9 131-86.35Zm-86.34 127.38 148.28-.18a.46.45-89.3 0 0 .45-.45c1.03-45.38-4.47-95.21-52.36-114.53-16.3-6.57-35.16-8.01-52.49-5.24-43.62 6.97-73.64 43.75-81.54 86.01-7.81 41.73.68 93.18 35.17 121.74 22.7 18.79 52.12 23.51 81.17 20.09 29.27-3.45 54.62-17.79 66.22-46.11q2.93-7.17 2.2-17.48a.51.51 0 0 0-.51-.48h-38.44a.82.82 0 0 0-.82.87c1.29 22.1-19.78 29.25-37.36 30.3-44.72 2.65-70.95-32.34-70.53-73.98a.56.56 0 0 1 .56-.56Z"/><path d="M232.81 674.19c-.42 41.64 25.81 76.63 70.53 73.98 17.58-1.05 38.65-8.2 37.36-30.3a.82.82 0 0 1 .82-.87h38.44a.51.51 0 0 1 .51.48q.73 10.31-2.2 17.48c-11.6 28.32-36.95 42.66-66.22 46.11-29.05 3.42-58.47-1.3-81.17-20.09-34.49-28.56-42.98-80.01-35.17-121.74 7.9-42.26 37.92-79.04 81.54-86.01 17.33-2.77 36.19-1.33 52.49 5.24 47.89 19.32 53.39 69.15 52.36 114.53a.46.45-89.3 0 1-.45.45l-148.28.18a.56.56 0 0 0-.56.56Zm3.11-31.78c35.76.2 71.51.41 107.27-.01a.51.51 0 0 0 .5-.5c.29-32.75-21.56-58.18-55.87-56.05-28.99 1.8-47.39 30.16-52.31 56.07a.42.42 0 0 0 .41.49ZM567.21 758.04c-28.07-25.84-34.65-66.24-32.49-102.35 3.15-52.67 27.8-95.45 84.7-102.63 31.94-4.02 64.14 1.71 86.71 25.28q15.26 15.94 14.36 38.15a.53.53 0 0 1-.53.51h-38.72a.83.82-87.7 0 1-.82-.89c2.22-26.45-28.83-31.82-47.8-30.13-26.3 2.34-45.76 19.5-52.72 45.1-4.46 16.4-4.88 34.14-3.41 51.67 1.29 15.3 4.97 30.56 14.19 42.6 16.15 21.1 41.79 26.73 67.06 20.61 13.34-3.23 23.87-13.9 22.71-28.39a.53.53 0 0 1 .53-.57h38.98a.52.52 0 0 1 .52.5c1.32 32.45-28.92 56.23-57.99 62-33.04 6.57-69.71 2.08-95.28-21.46ZM751.15 656.35c-16.8-14.29-21.5-37.76-14.2-58.2 15.36-43.03 63.73-50.47 102.8-44.58 20.15 3.03 35.83 10.92 46.33 29.12q7.09 12.28 6.47 26.05a.56.56 0 0 1-.56.54l-38.7.14a.81.81 0 0 1-.81-.91c.73-5.54-1.46-10.29-5.7-14.04-11.11-9.84-32.45-9.84-46.53-7.22-13.93 2.6-26.56 12.07-27.06 26.84-.51 14.93 15.08 21.22 27.59 24.79q37.95 10.84 49.9 14.71c21.37 6.91 41.18 16.43 45.85 41.74 6.9 37.47-14.89 72.38-51.52 82.44-19.28 5.3-42.1 5.88-61.96 1.81-30.58-6.28-57.74-29.64-56.35-63.3a.47.47 0 0 1 .47-.45l38.36-.32a.89.89 0 0 1 .9.91c-.63 31.69 35.16 34.55 57.57 30.55 17.04-3.03 35.42-16.36 33.46-35.46-1.2-11.66-12.67-19.33-23-22.53q-29.3-9.07-58.54-18.36-12.77-4.06-24.77-14.27Z"/><path fill="#fff" d="M343.19 642.4c-35.76.42-71.51.21-107.27.01a.42.42 0 0 1-.41-.49c4.92-25.91 23.32-54.27 52.31-56.07 34.31-2.13 56.16 23.3 55.87 56.05a.51.51 0 0 1-.5.5Zm-8.43-8.72c-3.05-26.49-22.52-41.96-49.06-39.36a1.96 1.94 12.3 0 0-1.48.94q-11.09 18.73-20.3 38.44a.39.39 0 0 0 .35.55h69.98a.52.51 87 0 0 .51-.57Z"/><path fill="#2daae1" d="m228.29 770.5 1.71.46-.54 2.04q-1.69-.55-1.17-2.5Z"/><path fill="#0f70b7" d="M633 827h-2.37a.63.63 0 0 1-.63-.63V821a.5.5 0 0 1 .5-.5h2.36a.64.63 1.4 0 0 .64-.6q.82-14.56 15.48-12.1a.7.69-83.6 0 1 .58.73l-.33 5.48a.67.65-89 0 1-.63.62c-3.78.14-6.82.07-6.02 5.29a.69.68 85.5 0 0 .67.58h4.25a.5.5 0 0 1 .5.5v5.38a.63.62 0 0 1-.63.62h-4.24a.63.62 0 0 0-.63.62V848a.5.5 0 0 1-.5.5h-8a.5.5 0 0 1-.5-.5v-20.5a.5.5 0 0 0-.5-.5ZM424.25 845.5a.4.4 0 0 0-.71-.26c-5.25 6.4-14.91 4.46-18.4-2.75q-3.43-7.1-.47-14.82c2.92-7.57 11.37-9.95 18.1-5.64a.32.31-73.8 0 0 .48-.27V808.5a.5.5 0 0 1 .5-.5h7.73a.49.48 89.4 0 1 .48.48l.14 39.59a.43.42 90 0 1-.42.43h-6.81a.63.62-90 0 1-.62-.63v-2.37Zm-6.276-3.43a7.72 5.59 89.9 0 0 5.576-7.73 7.72 5.59 89.9 0 0-5.603-7.71 7.72 5.59 89.9 0 0-5.577 7.73 7.72 5.59 89.9 0 0 5.603 7.71Z"/><ellipse fill="#0f70b7" rx="4.73" ry="4.44" transform="rotate(-4.2 11357 -7013.97)"/><path fill="#0f70b7" d="M728.25 848.03c-11.87-3.23-15.12-16.75-11.04-26.89 4.44-11.06 17.79-13.73 28.37-10.25a.58.58 0 0 1 .38.69l-1.59 6.11a.49.48-73.9 0 1-.61.34c-8.2-2.53-16.79-1.18-18.66 8.24-2.57 13 7.97 17.04 18.57 14.34a.59.59 0 0 1 .72.47l1.02 5.7a.71.71 0 0 1-.48.79q-8.27 2.75-16.68.46ZM981.7 834.15c-8.23-2.74-18.66-8.56-13.21-18.09 4.47-7.82 14.99-7.63 22.61-4.85a.71.71 0 0 1 .44.86l-1.64 5.91a.56.55 19.6 0 1-.76.36c-3.33-1.48-11.1-3.29-12.82 1.4a1.5 1.48 46.5 0 0-.02.95c1.11 3.39 7.45 5.01 10.5 6.5 9.59 4.7 7.97 17.75-1.82 20.77q-8.78 2.72-17.83-1.11a.58.58 0 0 1-.33-.68l1.61-6.34a.46.46 0 0 1 .65-.3c3.78 1.84 12.87 4.03 14.78-.59.73-1.76-.39-4.2-2.16-4.79ZM101.5 841.25H116a.5.5 0 0 1 .5.5V848a.5.5 0 0 1-.5.5H92.5a.5.5 0 0 1-.5-.5v-37.5a.5.5 0 0 1 .5-.5h22.75a.5.5 0 0 1 .5.5v6.25a.5.5 0 0 1-.5.5H101.5a.5.5 0 0 0-.5.5v6.75a.5.5 0 0 0 .5.5h13a.5.5 0 0 1 .5.5v6.25a.5.5 0 0 1-.5.5h-13a.5.5 0 0 0-.5.5v8a.5.5 0 0 0 .5.5ZM356.3 825.75h12.65a.55.55 0 0 1 .55.55v6.15a.55.55 0 0 1-.55.55H356.3a.55.55 0 0 0-.55.55v14.4a.55.55 0 0 1-.55.55h-7.65a.55.55 0 0 1-.55-.55v-37.4a.55.55 0 0 1 .55-.55h22.4a.55.55 0 0 1 .55.55v6.15a.55.55 0 0 1-.55.55H356.3a.55.55 0 0 0-.55.55v7.4a.55.55 0 0 0 .55.55ZM528.84 827.51c-.18 3.79-2.18 16.04 5.31 14.12a.49.49 0 0 1 .61.47l-.03 5.66a.68.68 0 0 1-.49.65c-6.49 1.89-13.88.03-13.93-7.92q-.05-6.46-.11-12.95a.55.55 0 0 0-.55-.54h-2.52a.63.63 0 0 1-.63-.63v-5.25a.63.62 0 0 1 .63-.62h2.62a.5.5 0 0 0 .5-.5v-3.96a.9.89 81.8 0 1 .64-.86l7.26-2.06a.47.47 0 0 1 .6.45V820a.5.5 0 0 0 .5.5h5.12a.63.62 0 0 1 .63.62v5.25a.63.63 0 0 1-.63.63h-4.99a.54.54 0 0 0-.54.51ZM1088.69 827h-2.57a.63.62-90 0 1-.62-.63v-5.25a.63.62 0 0 1 .63-.62h2.49a.63.63 0 0 0 .63-.63v-4.05a.68.68 0 0 1 .51-.66l7.36-1.96a.5.5 0 0 1 .63.48V820a.5.5 0 0 0 .5.5h5.13a.63.62-90 0 1 .62.63v5.24a.63.63 0 0 1-.63.63h-4.87a.66.66 0 0 0-.66.62c-.28 5.04-1.74 16.19 5.28 14a.48.48 0 0 1 .63.46v5.58a.8.8 0 0 1-.59.77c-16.67 4.63-13.87-11.43-13.97-20.93a.5.5 0 0 0-.5-.5ZM162.73 824.51q2.54-5.26 8.42-4.54a.69.68 3.3 0 1 .61.68l-.02 7.12a.5.5 0 0 1-.56.49q-7.94-1-7.92 6.96.02 6.41-.04 12.76a.52.52 0 0 1-.52.52h-7.55a.6.6 0 0 1-.6-.6l-.16-26.85a.56.55-.5 0 1 .56-.56l6.47.02a.56.55 0 0 1 .55.54l.06 3.31q.03 1.55.7.15ZM202.965 835.584a13.16 13.16 0 0 1-12.998 13.32l-2.54.03a13.16 13.16 0 0 1-13.32-12.998l-.032-2.7a13.16 13.16 0 0 1 12.998-13.32l2.54-.03a13.16 13.16 0 0 1 13.32 12.998l.032 2.7ZM188.54 842.7a8.26 5.5 90 0 0 5.5-8.26 8.26 5.5 90 0 0-5.5-8.26 8.26 5.5 90 0 0-5.5 8.26 8.26 5.5 90 0 0 5.5 8.26ZM286.51 828.79c-1.75-4.64-8.96-2.43-12.05-.94a.53.52 68.7 0 1-.73-.33l-1.32-4.55a.69.68 69.2 0 1 .36-.81c8.27-4.02 22.24-4 22.5 8.42q.18 8.7.38 17.43a.48.47 89.4 0 1-.47.49h-6.89a.51.51 0 0 1-.51-.47l-.12-1.41q-.07-.78-.68-.28c-6.33 5.23-17.6 2.86-16.57-7.12.76-7.38 9.17-9.55 15.42-9.46a.71.71 0 0 0 .68-.97Zm-6.46 8.5c-5.06 6.19 8.88 8.26 6.62-1.15a.76.76 0 0 0-.62-.57q-4.1-.61-6 1.72ZM476.74 824.64q2.5-5.21 8.43-4.77a.62.61-87.5 0 1 .56.62l.03 6.89a.92.91-84.8 0 1-1.08.9c-10.03-1.78-7.16 14-7.2 19.61a.62.62 0 0 1-.62.61h-7.73a.63.63 0 0 1-.63-.63v-26.74a.63.63 0 0 1 .63-.63h6.22a.66.65-2.4 0 1 .66.6l.3 3.46q.07.81.43.08ZM504.44 846.37c-.9.19-1.47 1.06-2.27 1.44-16.46 7.83-21.86-19.08 1.14-18.05a.45.45 0 0 0 .47-.48c-.46-5.38-9.18-2.83-12.02-1.33a.44.43 68 0 1-.62-.27l-1.34-4.83a.61.61 0 0 1 .33-.72c8.45-3.97 22.61-4.01 22.48 8.88q-.1 8.5.54 17a.45.45 0 0 1-.45.49h-6.89a.71.7-3.2 0 1-.7-.62l-.14-1.13a.44.44 0 0 0-.53-.38Zm-7.75-7.98c-2.49 5.63 9.21 6.33 7.54-2.34a.66.66 0 0 0-.61-.53c-2.41-.16-5.85.43-6.93 2.87ZM582.824 835.66a13.18 13.18 0 0 1-13.133 13.225l-2.6.01a13.18 13.18 0 0 1-13.226-13.135l-.01-2.6a13.18 13.18 0 0 1 13.135-13.225l2.6-.01a13.18 13.18 0 0 1 13.225 13.135l.01 2.6Zm-14.543 7.04a8.24 5.49 90.2 0 0 5.519-8.22 8.24 5.49 90.2 0 0-5.461-8.26 8.24 5.49 90.2 0 0-5.519 8.22 8.24 5.49 90.2 0 0 5.461 8.26ZM678.843 835.786a13.18 13.18 0 0 1-13.249 13.11l-2.6-.013a13.18 13.18 0 0 1-13.11-13.249l.013-2.6a13.18 13.18 0 0 1 13.249-13.11l2.6.013a13.18 13.18 0 0 1 13.11 13.249l-.013 2.6Zm-14.477 6.934a8.27 5.47 90.1 0 0 5.484-8.26 8.27 5.47 90.1 0 0-5.456-8.28 8.27 5.47 90.1 0 0-5.484 8.26 8.27 5.47 90.1 0 0 5.456 8.28ZM692.07 824.34c2.19-2.89 4.79-5.21 8.59-4.32a.76.75-83.8 0 1 .59.74v6.65a.91.9 5.2 0 1-1.08.89c-10.07-2-7.13 14.14-7.25 19.68a.54.53.5 0 1-.54.52h-7.37a1 .99 89.7 0 1-.99-.99l-.07-26.61a.4.4 0 0 1 .4-.4h6.62a.5.49 88.1 0 1 .49.47l.15 3.23q.04.7.46.14ZM777.127 835.634a13.18 13.18 0 0 1-13.111 13.249l-2.62.014a13.18 13.18 0 0 1-13.249-13.111l-.014-2.6a13.18 13.18 0 0 1 13.111-13.249l2.62-.014a13.18 13.18 0 0 1 13.249 13.111l.014 2.6Zm-14.53 7.076a8.27 5.48 90.3 0 0 5.523-8.241 8.27 5.48 90.3 0 0-5.437-8.299 8.27 5.48 90.3 0 0-5.523 8.241 8.27 5.48 90.3 0 0 5.437 8.299ZM815.77 831.51c.06-5.86-7.94-6.12-7.99.8q-.05 7.78-.04 15.57a.62.62 0 0 1-.62.62h-7.48a.62.62 0 0 1-.62-.61q-.04-8.26-.02-16.37c.01-6.14-7.92-5.93-7.97.84q-.05 7.75-.04 15.52a.62.62 0 0 1-.62.62h-7.48a.62.61 0 0 1-.62-.61l-.06-26.74a.64.64 0 0 1 .64-.65h6.27a.63.62 89.5 0 1 .62.62l.04 2.39a.36.36 0 0 0 .65.2c3.78-5.22 11.55-5.22 15.32-.03a.43.43 0 0 0 .65.06c7.44-6.93 17.54-4.61 17.92 6.79q.29 8.7.14 17.47a.51.5-89.4 0 1-.5.5h-7.6a.54.53 89.4 0 1-.53-.53q-.15-8.28-.06-16.46ZM879.27 828.8c-1.77-4.68-9.06-2.47-12.11-.83a.47.47 0 0 1-.67-.29l-1.3-4.78a.7.69-20.2 0 1 .38-.81c5.65-2.66 14.6-3.74 19.51.82 4.78 4.44 3.18 18.81 3.32 25.11a.46.46 0 0 1-.46.48h-6.81a.63.63 0 0 1-.63-.63v-1.12a.41.41 0 0 0-.64-.34q-4.89 3.26-9.54 2.48c-6.13-1.02-9.01-7.47-6.32-12.77 2.47-4.86 9.49-6.5 14.55-6.31a.75.74 80.6 0 0 .72-1.01Zm-7.31 9.86c-2.15 5.51 9.67 5.7 7.42-2.67a.71.7-5.7 0 0-.64-.52c-2.44-.13-5.8.69-6.78 3.19ZM1060.103 835.796a13.18 13.18 0 0 1-13.249 13.11l-2.62-.013a13.18 13.18 0 0 1-13.11-13.249l.013-2.62a13.18 13.18 0 0 1 13.249-13.11l2.62.013a13.18 13.18 0 0 1 13.11 13.249l-.013 2.62Zm-14.53 6.914a8.27 5.48 90.4 0 0 5.537-8.232 8.27 5.48 90.4 0 0-5.422-8.308 8.27 5.48 90.4 0 0-5.538 8.232 8.27 5.48 90.4 0 0 5.422 8.308ZM1073.64 824.4q2.51-5.04 8.22-4.49a.72.71 2.6 0 1 .65.71l-.02 7.16a.48.48 0 0 1-.56.47c-4.97-.83-7.67 1.63-7.67 6.58q0 6.6-.03 13.15a.53.53 0 0 1-.53.52h-7.81a.62.61 0 0 1-.62-.61l-.06-26.74a.64.64 0 0 1 .64-.65h6.24a.62.62 0 0 1 .62.59l.13 3.14q.07 1.65.8.17ZM216.43 823.38q7.08-5.9 14.2-1.89c13.23 7.44 4.58 35.6-13.05 25.43q-.59-.34-.59.34l.01 11.86a.63.62-90 0 1-.62.63h-7.61a.48.47 90 0 1-.47-.48l-.15-38.22a.55.54-.5 0 1 .55-.55h6.23a.81.8 85.8 0 1 .79.69l.29 2.03q.07.45.42.16Zm5.822 18.92a7.74 5.62 90.8 0 0 5.727-7.661 7.74 5.62 90.8 0 0-5.51-7.818 7.74 5.62 90.8 0 0-5.728 7.66 7.74 5.62 90.8 0 0 5.51 7.818Z"/><path fill="#0f70b7" d="M256.51 820.07c8.46.83 11.81 9.14 10.43 16.6a.71.71 0 0 1-.7.58h-16.29a.74.74 0 0 0-.66 1.06c2.66 5.33 10.09 4.32 14.72 3.08a.54.54 0 0 1 .67.42l.98 4.93a.6.6 0 0 1-.38.68c-30.24 10.94-32.03-29.63-8.77-27.35Zm2.36 10.57c-.07-6.49-8.91-6.09-9.55.09a.47.47 0 0 0 .47.52h8.47a.61.6-.5 0 0 .61-.61ZM309.81 823.69a.23.23 0 0 0 .41.14c4.47-5.36 13.6-5.46 16.92 1.07 2.58 5.1 1.4 16.94 1.33 23.09a.52.51-89.4 0 1-.51.51h-7.59a.54.53-.5 0 1-.54-.52q-.17-7.79-.05-15.47c.11-7.25-8.73-6.94-8.76-.32q-.03 7.84-.03 15.69a.62.62 0 0 1-.62.62h-7.73a.62.62 0 0 1-.62-.61l-.07-26.74a.65.65 0 0 1 .65-.65h6.5a.56.56 0 0 1 .56.53l.15 2.66ZM398.07 847.27c-6.61 2.79-18.76 3.09-22.54-4.71-5.27-10.88.63-24.18 13.97-22.47 8.41 1.07 11.7 9.16 10.22 16.69a.58.57-84.5 0 1-.56.47H382.7a.76.75 76.5 0 0-.67 1.1c2.68 5.26 10.16 4.31 14.77 3a.53.52-13.3 0 1 .66.4l.98 4.82a.63.63 0 0 1-.37.7Zm-6.39-16.55c-.01-6.35-8.24-6.43-9.56-.07a.5.49-83.8 0 0 .48.6h8.55a.53.53 0 0 0 .53-.53ZM445.89 837.75c1.23 6.04 10.34 4.8 14.61 3.6a.58.57-12.8 0 1 .72.45l.85 5.04a.63.62-13.9 0 1-.43.7c-32.07 10.57-30.52-31.85-7.54-27.35 7.81 1.53 10.56 9.41 9.31 16.69a.45.44 4.5 0 1-.44.37H446.3a.42.42 0 0 0-.41.5Zm9.48-7.11c-.01-6.27-8.45-6.3-9.69.16a.39.38 5 0 0 .38.45h8.7a.61.61 0 0 0 .61-.61ZM596.18 823.62c5.53-4.84 13.36-5.56 16.79 1.31 2.68 5.37 1.55 16.4 1.51 23.06a.52.51-89.4 0 1-.51.51h-7.6a.53.53 0 0 1-.53-.52c-.11-4.24.99-16.86-1.73-19.77-2.58-2.78-7.13.01-7.22 3.59q-.21 8.07-.19 16.15a.55.55 0 0 1-.55.55h-7.5a.6.6 0 0 1-.6-.6l-.16-26.84a.55.55 0 0 1 .55-.56h6.27a.81.81 0 0 1 .8.71l.28 2.27q.06.43.39.14ZM839.16 823.4q7.34-6 14.48-1.77c13.17 7.79 3.94 35.66-13.46 25.17q-.43-.26-.43.25v12.07a.63.62-90 0 1-.62.63h-7.49a.61.61 0 0 1-.61-.61l-.09-38.11a.53.53 0 0 1 .53-.53h6.6a.64.63 0 0 1 .64.63l.02 2.06q.01.56.43.21Zm5.899 18.889a7.73 5.62 90.9 0 0 5.74-7.64 7.73 5.62 90.9 0 0-5.498-7.818 7.73 5.62 90.9 0 0-5.74 7.64 7.73 5.62 90.9 0 0 5.498 7.818ZM902.54 823.66a.23.23 0 0 0 .4.15c6.5-7.53 18.04-3.87 18.26 6.46q.14 6.33.02 17.72a.52.52 0 0 1-.52.51h-7.59a.54.54 0 0 1-.54-.53q-.11-7.91-.1-15.7c.01-7.03-8.65-6.89-8.69.65q-.05 7.48-.04 14.96a.62.62 0 0 1-.62.62h-7.73a.62.62 0 0 1-.62-.61l-.07-26.74a.65.65 0 0 1 .65-.65h6.46a.65.65 0 0 1 .65.63l.08 2.53ZM1006.6 823.66c4.42-4.31 11.71-5.21 16.24-1.03 10.93 10.1.3 34.56-14.93 24.19q-.42-.28-.42.22l.01 12.08a.63.62-90 0 1-.62.63h-7.75a.62.61-90 0 1-.61-.62l-.05-37.99a.64.64 0 0 1 .64-.64h6.52a.55.55 0 0 1 .55.56l-.02 2.41q-.01.62.44.19Zm1.06 14.66c1.44 4.89 7.25 5.11 9.67.73 2.39-4.31-.36-15.91-7.24-11.36-2.97 1.97-3.29 7.7-2.43 10.63ZM139.61 845.41c-7.16 7.33-18.01 3.69-18.21-7.16q-.16-8.63-.15-17.25a.51.5 0 0 1 .51-.5h7.96a.51.5.6 0 1 .51.51c0 3.68-.95 17.75 1.54 19.84 3.1 2.63 7.16-.31 7.17-3.92q.05-7.93.13-15.88a.55.55 0 0 1 .55-.55h7.48a.6.6 0 0 1 .6.6l.15 26.97a.42.42 0 0 1-.42.43h-6.52a.68.67 86.7 0 1-.67-.6l-.27-2.37q-.05-.44-.36-.12Z"/><rect width="8.76" height="28" x="539.74" y="820.5" fill="#0f70b7" rx=".52"/><path fill="#0f70b7" d="m939.32 838.18 4.18-17.02a.86.86 0 0 1 .84-.66h8.32a.43.42 10.1 0 1 .4.57q-3.73 10.57-7.45 21.01c-2.89 8.1-7.11 17.15-16.56 18.81a.68.68 0 0 1-.78-.5l-1.7-6.55a.49.49 0 0 1 .38-.6q5.01-.98 7.26-5.47a1.15 1.11 48.3 0 0 .04-.93l-10.34-25.75a.43.43 0 0 1 .4-.59h8.63a.93.93 0 0 1 .89.66l5.05 17.03a.23.23 0 0 0 .44-.01Z"/></svg>