<svg xmlns="http://www.w3.org/2000/svg" viewBox="0 0 238 211"><g fill="none" stroke-width="2"><path stroke="#82bffc" d="M96.85 189.59c7.07 6.92 13.98 14.26 21.3 20.9a.52.52 0 0 0 .72-.02q11.12-11.06 22.19-22.15c.82-.83 2.24-.94 2.97-1.19q33-11.61 49.22-42.21c2.74-5.18 4.23-13.11 8.37-17.21q10.97-10.87 22.07-22.04a.42.41-45.5 0 0 0-.59q-11.75-11.77-23.47-23.79-.98-1-1.43-2.29-14.46-41.11-55.19-55.47-2.17-.77-3.74-2.32Q129.44 10.84 119.02.4a.74.74 0 0 0-1.04 0q-10.6 10.61-21.58 21.24c-1.03.99-1.56 1.41-3.01 1.89-24.24 8.06-43.13 25.01-52.7 48.73-1.56 3.87-2.43 7.95-5.5 10.98q-11 10.84-21.9 21.91a.51.5-45.4 0 0 0 .71q11.45 11.53 22.95 22.99c.98.98 1.6 2.13 2.03 3.37q14.15 41.09 54.8 55.07 2.2.75 3.78 2.3" vector-effect="non-scaling-stroke"/><path stroke="#80a8e8" d="m82.44 13.93-3.47-3.63a1.03 1.02-25.5 0 0-.88-.31l-.95.11q-1.11.13-.21.79 4.78 3.45 7.34 8.72c.16.32.56.49.88.39a.67.67 0 0 0 .44-.85l-1.03-3.2q-.14-.44-.09-.91l.75-7.56a.68.68 0 0 0-1.31-.32q-1.24 3.1-.85 6.47.12 1.07-.62.3M158 20.75c.18-1.17-3.39-1.99-4.49-2.86a.73.73 0 0 1-.22-.85l3.3-8.05a.61.61 0 0 0-.38-.81l-.53-.18a.68.67 19.6 0 0-.83.39l-3.77 9.45a.71.7 28.2 0 0 .26.84q2.71 1.87 5.91 2.59a.63.62 9.9 0 0 .75-.52M68.34 18.67l7.77 4.55a1.05 1.05 0 0 0 1.47-1.38q-2.18-4.29-4.75-9.15c-.39-.74-.94-.77-1.51-.17a.8.79-37.8 0 0-.12.92l3.75 6.9a.22.22 0 0 1-.3.29l-8.2-4.92a1.06 1.05-88.7 0 0-1.47 1.41l5.03 9.35a.52.52 0 0 0 .8.15l.44-.37a.7.7 0 0 0 .15-.88l-3.56-6.21q-.67-1.17.5-.49M163.09 21.99q2.28-.5 3.91 1.38a1.11 1.11 0 0 1 .26.88c-.1.82-.74 2.84.71 2.93a.61.6-82.6 0 0 .64-.5l2.13-10.99a1.24 1.24 0 0 0-2.04-1.16l-8.43 7.45a.57.57 0 0 0-.02.84q1.14 1.09 2.29-.33.16-.05.23-.22a.46.44-84.5 0 1 .32-.28M174.48 27.98l3.12-8.14a.93.93 0 0 0-.2-.99l-.43-.45a.48.48 0 0 0-.79.17l-3.9 10.8a.73.72 22.3 0 0 .38.9l1.06.47a.93.93 0 0 0 1-.15l3.2-2.87q.54-.48.39.23c-.4 1.9-2.74 5.06-.56 6.29a.76.76 0 0 0 .81-.05l8.92-6.56a.63.62-31.9 0 0 .19-.79c-1.04-2-7.46 4.31-8.47 5.21a.31.31 0 0 1-.5-.35l2.09-5.44a1.76 1.74-7.4 0 1 .63-.81l1.67-1.2a.6.6 0 0 0 .02-.95c-1.29-1.03-7.28 4.18-8.38 4.88q-.43.27-.25-.2M60.51 30.03l2.88-2.24a.57.57 0 0 1 .81.11q1.18 1.63 3.07 1.18a.43.43 0 0 0 .15-.77l-9.31-6.61a1.34 1.34 0 0 0-2.05 1.49l3.2 10.31a.67.66 72.4 0 0 .84.44l.56-.18a.55.55 0 0 0 .36-.71l-.76-2.17a.77.76-29 0 1 .25-.85M51.09 35.47l2.49-1.88a1.43 1.41 77.9 0 0 .54-.85q.4-1.84-1.22-3.64c-3.04-3.39-5.55.25-7.85 2.23a.6.6 0 0 0-.05.87l7.29 7.88a.64.64 0 0 0 .92.02l.33-.32a.59.59 0 0 0 .01-.83l-2.53-2.6a.59.59 0 0 1 .07-.88M190.24 36.97c.5-1.31 2.92-5.41 1.45-6.45a.48.48 0 0 0-.73.21l-2.67 6.71q-.19.49-.55.88l-2.37 2.56a.59.59 0 0 0 .08.87q.87.66 1.76-.32c2.41-2.66 6.64-3.24 9.92-4.41a.54.54 0 0 0 .12-.95c-1.25-.86-5.15.95-6.7 1.27q-.49.1-.31-.37" vector-effect="non-scaling-stroke"/><path stroke="#82bffc" d="m38.21 45 .08-.5" vector-effect="non-scaling-stroke"/><path stroke="#80a8e8" d="M38.29 44.5c1.52.59 7.74 4.44 8.61 2.46a1.02 1.01 39.6 0 0-.1-.99l-4.04-5.74a.39.39 0 0 1 .55-.54l5.68 4.16a.57.57 0 0 0 .8-.14l.31-.44a.64.64 0 0 0-.16-.88l-8.85-6.36a.62.61-54.1 0 0-.85.14l-.87 1.2a.85.84-45.4 0 0 0 .99l4.88 6.66a.27.27 0 0 1-.33.4l-7.49-3.74a.77.76-58.8 0 0-.95.24l-.82 1.15a.63.63 0 0 0 .07.82l7.64 7.62a.52.52 0 0 0 .76-.02l.45-.5a.59.59 0 0 0-.03-.83L38.21 45" vector-effect="non-scaling-stroke"/><path stroke="#0368e5" d="M38.29 44.5q-.57-.83-1.48-.93-.78-.09-.13.36L38.21 45" vector-effect="non-scaling-stroke"/><path stroke="#80a8e8" d="m197.27 43.98 2.08-1.42a.63.63 0 0 1 .87.16c.54.75 2.79 4.5 3.71 4.02a.57.56-26.1 0 0 .26-.73q-1.41-3.1-3.96-5.39a.81.8-41.8 0 0-1.01-.05l-7.94 5.76a.78.78 0 0 0-.16 1.1l3.88 5.14q.57.75.94-.11c.44-1.04-2.02-3.76-2.59-4.87a.62.62 0 0 1 .17-.78l1.63-1.28a.6.58-39.2 0 1 .81.07c.72.83 2.37 3.91 3.5 3.39a.61.61 0 0 0 .24-.91l-2.54-3.53a.41.4-34.3 0 1 .11-.57M39.199 57.57a3.84 3.84 0 0 0-1.12-5.315l-3.535-2.304a3.84 3.84 0 0 0-5.314 1.12l-.808 1.24a3.84 3.84 0 0 0 1.12 5.313l3.534 2.305a3.84 3.84 0 0 0 5.314-1.12l.809-1.24M201.86 54.71l.8 1.45a.75.73-43.3 0 1-.03.77l-2.61 3.98a.71.71 0 0 0 .11.92c1.38 1.25 2.56-2.11 3.28-3.02a.83.82 26.1 0 1 .85-.29q3.72.93 5.8-2.53a.99.97 46.7 0 0 .02-.96l-2.82-5.37a.68.67-30.1 0 0-.95-.25l-9.21 5.7a.68.67-34.9 0 0-.18.99l.21.28a.68.67 54.3 0 0 .91.16l3.06-2.02a.53.53 0 0 1 .76.19M32.11 67.41a1.36 1.36 0 0 1-1.43.84q-3.79-.48-6.45-3.14a.95.93-58.4 0 1-.22-.97c.2-.57 2.32-4.28 1.84-4.69a.67.67 0 0 0-.91.04q-2.05 2.1-2.75 4.97a1.32 1.31-57 0 0 .23 1.09q3.24 4.19 8.66 4.44a1.33 1.31 24 0 0 .99-.37q2.41-2.28 2.89-5.66a.41.41 0 0 0-.48-.47l-.28.06a1.06 1.05-83.8 0 0-.79.64l-1.3 3.22M206.19 69.5c-.24-.35-2.37-4.93-2.94-4.76a.72.7-13.7 0 0-.49.79q.47 3.14 2.57 5.5a1.2 1.19-22.4 0 0 .95.39q2.68-.17 4.49-2.19a.92.92 0 0 0 .17-.94l-1.44-3.59a.78.77 57.9 0 1 .19-.86c3.4-3.13 4.03 1.95 4.66 3.81a.44.44 0 0 0 .61.25l.25-.12a.78.76 74.7 0 0 .42-.75q-.21-2.57-1.65-4.74c-1.68-2.51-5.39-.76-6.3 1.39a1.33 1.33 0 0 0-.02.97l1.22 3.35a.68.67 65.1 0 1-.29.81l-1.53.9a.65.65 0 0 1-.87-.21M212.08 126.38q.5 4.11-3.3 4.01a.72.71-78.9 0 0-.68.46l-.28.75a.5.5 0 0 0 .51.68l11.52-.85a1.19 1.19 0 0 0 .57-2.18l-9.53-6.28a.63.62 37.8 0 0-.81.1c-.94 1.07.87 2.2 1.61 2.69a.87.86 13 0 1 .39.62M25.15 135.2l-5.98 6.88a.76.76 0 0 0-.06.93l.34.52a.82.81 63.6 0 0 .94.32l10.13-3.43a.68.68 0 0 0 .46-.71l-.03-.4a.58.57 78.3 0 0-.75-.5l-7.21 2.32q-.76.24-.25-.37l5.98-7.11a1.04 1.04 0 0 0-1.11-1.66l-10.23 3.26a.71.7 66.7 0 0-.4 1.01c.79 1.46 6.45-1.08 7.99-1.37q.54-.09.18.31M217.39 140.93c1.14-3.25-3.41-4.33-5.5-3.6a1.04 1.03-88 0 0-.62.58l-1.4 3.16a.83.82 20.2 0 1-.99.45l-1.82-.55a.62.62 0 0 1-.39-.83l1.81-4.44a.52.52 0 0 0-.34-.69c-1.82-.53-3.05 5.11-3.08 6.27a.91.9-78.8 0 0 .57.86l2.99 1.17a2.19 2.19 0 0 0 2.84-1.23l1.19-2.97a.72.71 21.3 0 1 .92-.4l2.07.81a.7.69 23 0 1 .38.93l-1.97 4.37a.48.48 0 0 0 .37.67c1.49.24 2.61-3.52 2.97-4.56M32.45 150.41l-1.68-3.18a.64.64 0 0 1 .17-.8l1.64-1.3a.77.77 0 0 0 .15-1.04l-.32-.46a.56.55-39.4 0 0-.84-.08l-8.12 7.85a1.31 1.31 0 0 0 1.08 2.24l10.95-1.45a.83.83 0 0 0 .61-1.25l-.2-.34a.67.66 67.9 0 0-.72-.31l-1.93.47a.71.69-20.3 0 1-.79-.35M211.56 148.44c-4.14-2.76-4.69.35-6.45 3.08a.64.64 0 0 1-.88.2l-1.71-1.06a.68.67-62.2 0 1-.26-.86c.05-.1 2.61-4.41 2.06-4.88a.65.64 41.1 0 0-.9.06q-1.97 2.22-2.83 5.06a1.15 1.13-53.7 0 0 .14.95q1.33 1.98 3.68 2.5a2.07 2.05-69.1 0 0 2.24-1.01l1.67-3.02a.7.7 0 0 1 1.01-.23l1.8 1.24a.75.75 0 0 1 .22 1.01l-2.14 3.57a.61.6 36 0 0 .13.78c1.24 1.02 5.74-5.05 2.22-7.39M34.8 163.32l-1.81 1.09a.64.64 0 0 1-.86-.2l-2.63-3.96a.53.53 0 0 0-.68-.18l-.34.17a.68.68 0 0 0-.25.99l3.41 4.99a.73.72 59.3 0 0 .92.24q4.59-2.3 8.62-5.5a.72.72 0 0 0 .16-.96l-3.41-5.19a.5.49 51.3 0 0-.75-.09l-.3.27a.66.66 0 0 0-.1.84l2.49 3.84a.63.62-32.8 0 1-.19.86l-1.94 1.28a.55.55 0 0 1-.79-.21c-.39-.75-2.05-3.86-3.07-3.54a.57.56 66.4 0 0-.32.82l2.06 3.6a.63.62-30.8 0 1-.22.84M205.958 163.944a3.94 3.94 0 0 0-.958-5.489l-3.29-2.312a3.94 3.94 0 0 0-5.488.958l-.84 1.195a3.94 3.94 0 0 0 .958 5.489l3.29 2.311a3.94 3.94 0 0 0 5.488-.958l.84-1.194M194.82 176.94c8.64-3.86 1.64-11.27-3.89-11.74a1.23 1.21 21.6 0 0-1.04.44l-3.23 3.89a.65.65 0 0 0 .17.98l.39.23a.42.42 0 0 0 .54-.09l2.91-3.54a.78.78 0 0 1 .93-.22q3.34 1.47 5.52 4.38a.92.92 0 0 1 .11.9c-.42 1.02-3.4 4.04-3.14 4.52a.57.57 0 0 0 .73.25M43.97 170.86l-2.75-3.46a.98.97-26.1 0 0-1.01-.34c-7.21 1.82-3.58 6.09-.75 9.4a.56.56 0 0 0 .79.07l8.28-6.83a.65.65 0 0 0 .1-.89l-.36-.47a.6.6 0 0 0-.89-.06l-2.67 2.62a.5.49-41.4 0 1-.74-.04M184.537 172.137a.69.69 0 0 0-.975-.03l-.35.33a.69.69 0 0 0-.028.975l7.379 7.831a.69.69 0 0 0 .975.03l.35-.33a.69.69 0 0 0 .029-.975l-7.38-7.831M55.133 180.542a3.63 3.63 0 0 0-.108-5.133l-1.357-1.3a3.63 3.63 0 0 0-5.132.107l-3.129 3.262a3.63 3.63 0 0 0 .108 5.133l1.357 1.3a3.63 3.63 0 0 0 5.132-.107l3.129-3.262M176.43 181.82q-1.27-1.87-3.11-.88a.41.4 47.7 0 0-.03.7l10.02 6.39a1.16 1.16 0 0 0 1.71-1.37l-4.03-11.02a.53.53 0 0 0-.91-.16q-1.25 1.49.13 3.14a.55.55 0 0 1-.05.76l-2.76 2.55a.65.65 0 0 1-.97-.11M61.82 187.19l-1.36-1.35a.85.85 0 0 1-.21-.85c.38-1.26 1.7-5.08-.43-5.42a.47.47 0 0 0-.54.45c-.04 1.8.05 4.27-1.81 4.5q-.49.06-.89.35c-5.49 4.08-.78 6.75 2.62 8.79a.55.55 0 0 0 .74-.15l6.29-8.86a.68.67 36.2 0 0-.15-.94c-1.3-.99-3.12 2.48-3.53 3.35a.45.45 0 0 1-.73.13M172.97 193.83q-1.53.38-2.01 1.78a.64.63 83.8 0 0 .93.75c1.02-.63 7.24-3.98 6.47-5.12a.66.66 0 0 0-.86-.22l-2.06 1.12a.63.62 59.9 0 1-.82-.22l-4.8-7.66a.7.7 0 0 0-1.13-.08l-.21.25a.75.75 0 0 0-.06.88l4.84 7.8a.48.48 0 0 1-.29.72M73.79 191.8q-1.53 3.71-3.76 7.07c-.51.77-.26 1.34.54 1.65a.66.66 0 0 0 .8-.26c1.06-1.69 4.93-7.74 4.12-9.59-1.4-3.22-5.59-4.86-7.86-1.61q-1.48 2.13-3.97 6.94a.57.57 0 0 0 .33.8l.43.15a.64.63 24.3 0 0 .76-.28l4.36-7.28a.94.94 0 0 1 .94-.45q2.05.28 3.22 1.98a.95.92-51.6 0 1 .09.88M162.86 188.363a.57.57 0 0 0-.77-.239l-.584.308a.57.57 0 0 0-.238.77l5.112 9.695a.57.57 0 0 0 .77.239l.584-.308a.57.57 0 0 0 .238-.77l-5.112-9.695M159.547 193.76a3.63 3.63 0 0 0-4.76-1.924l-1.712.727a3.63 3.63 0 0 0-1.923 4.76l1.781 4.197a3.63 3.63 0 0 0 4.76 1.924l1.712-.727a3.63 3.63 0 0 0 1.923-4.76l-1.781-4.197M80.75 202.89l-4.24-1.69a.68.68 0 0 0-.73.14l-.33.32a.53.53 0 0 0 .19.88l6.11 2.31a.72.71 21.3 0 0 .92-.4l3.47-8.73a1.5 1.5 0 0 0-.81-1.93c-1.18-.5-5.44-2.44-6.11-1.41a.49.48 29.2 0 0 .21.72l4.26 1.9a.84.84 0 0 1 .5.8q-.04 1.75-1.44 2.2a.95.93 51.6 0 1-.8-.1q-1.76-1.11-3.75-.8-1.4.23-.1.8l4.02 1.76a.6.6 0 0 1 .32.75l-.77 2.08a.7.7 0 0 1-.92.4M140.54 199.81l7.16 6.94a1.19 1.19 0 0 0 1.97-1.18l-2.93-10.16a.59.58-14.2 0 0-.69-.41l-.47.11a.66.65-14 0 0-.5.82l2 7.05q.21.75-.37.23l-6.97-6.24a1.02 1.01 13 0 0-1.66 1.03l3.01 10.52a.61.61 0 0 0 1.04.24l.37-.4a.73.71-32.4 0 0 .16-.68l-2.33-7.74q-.13-.46.21-.13" vector-effect="non-scaling-stroke"/><path stroke="#82bffc" d="M48.93 76.6c2.77-8.27 7.17-14.33 13.85-21.02q11.31-11.34 22.71-22.6a.16.16 0 0 0-.19-.26c-32.95 16.3-50.12 50.2-44.36 86.46a.4.39 18.8 0 1-.68.33l-5.4-5.66a1.58 1.57-69.9 0 1-.44-.96q-1.06-10.52.76-20.95a.29.29 0 0 0-.49-.25l-13.2 13.43a.54.54 0 0 0 .01.76l70.45 70.44q.44.44-.15.25-10.97-3.52-19.24-11.65-12.09-11.88-24.26-23.79-.37-.36-.15.1 7.38 15.27 19.75 25.64 25.52 21.42 59.67 17.78 1.49-.16 3.11-.21.75-.02.21.5l-5.71 5.52a1.46 1.41-67.9 0 1-.92.41q-8.92.62-17.72-.68a.28.28 0 0 0-.24.48l11.63 11.64a.61.61 0 0 0 .86 0l68.75-68.55a.18.18 0 0 1 .3.19c-3.92 9.84-8.87 16.46-16.95 24.56q-9.53 9.54-19.17 19a.21.21 0 0 0 .25.33c32.32-17.13 50.03-49.91 43.86-86.52a.33.33 0 0 1 .56-.29c3.39 3.27 6.31 5.63 6.38 10.73q.12 8.66-1.02 17.33-.08.61.36.17l13.34-13.32a.64.64 0 0 0 0-.9l-70.39-70.37a.21.21 0 0 1 .22-.35c9.68 3.74 15.88 8.2 23.76 16.1q9.62 9.63 19.12 19.1a.26.26 0 0 0 .42-.31c-16.17-30.79-47.38-47.75-82.36-42.84q-.89.13-.25-.51l5.33-5.35a1.54 1.53-69.6 0 1 .93-.43q8.91-.86 17.77.46 1.06.16.3-.6L118.94 8.56a.64.64 0 0 0-.9 0l-68.5 68.42q-1.11 1.1-.61-.38" vector-effect="non-scaling-stroke"/><path stroke="#fede82" d="M112.72 113.02c-3.61.28-11.96 1.72-12.63-3.08q-.84-5.99.56-11.93a.97.96-4.9 0 1 .58-.68c2.96-1.23 8.21-.45 11.48-.33a.52.52 0 0 0 .54-.52l.01-4.52a1.48 1.47-81.9 0 0-1.06-1.42c-6.2-1.84-17.12-3.04-19.41 5.01-1.55 5.47-2.27 17.19 1.9 22 3.88 4.48 12.13 3.45 17.41 2.31a1.46 1.45-6.4 0 0 1.15-1.43v-4.92a.49.49 0 0 0-.53-.49M72.31 89.94c-4.92.12-9.32.24-9.33 6.57q0 7.3.01 14.65c0 5.45.98 9.1 7.04 9.25q7.03.17 14.1-.52a.69.68-2.8 0 0 .62-.68v-5.42a.67.67 0 0 0-.64-.67c-2.22-.1-10.94.4-12.28-.68q-1.28-1.03-.52-2.93a.7.69-79.8 0 1 .63-.44l9.92-.34a.66.65-1.3 0 0 .64-.66l-.05-5.47a.56.56 0 0 0-.53-.56l-10.11-.6a.62.61 3.3 0 1-.58-.64l.1-2.67a.74.73 87.8 0 1 .65-.71q6.09-.73 12.18-.25a.57.56-88.2 0 0 .61-.58l-.07-5.9a.59.59 0 0 0-.56-.58q-6.01-.31-11.83-.17M131.15 112.85q-1.9-.05-1.9-1.94V90.25a.5.5 0 0 0-.5-.5h-7.22a.61.61 0 0 0-.61.62q.14 11.82.16 23.62c.01 8.5 12.22 6.69 18.83 6.47a.61.61 0 0 0 .59-.61v-6.19a.61.6 1 0 0-.59-.6l-8.76-.21M165.23 114.93a.66.66 0 0 1 .65.45l1.43 4.35a.66.66 0 0 0 .59.45l7.32.35a.66.66 0 0 0 .66-.85l-9.08-29.46a.66.66 0 0 0-.63-.47h-8.66a.66.66 0 0 0-.62.46l-9.23 29.45a.66.66 0 0 0 .64.86l7.16-.07a.66.66 0 0 0 .63-.47l1.25-4.33a.66.66 0 0 1 .61-.48l7.28-.24" vector-effect="non-scaling-stroke"/><path stroke="#80a8e8" d="m165.63 20.56 1.61 1.26a.39.39 0 0 0 .63-.22l.94-4.32q.1-.45-.31-.23-1.94 1.06-2.99 2.88a.5.49-56.1 0 0 .12.63M59.4 28.47a.33.33 0 0 0 .52.16l2.23-1.73a.33.33 0 0 0-.02-.54l-3.58-2.32a.33.33 0 0 0-.5.38l1.35 4.05M50.834 29.385a.72.72 0 0 0-1.016-.069l-2.291 1.998a.72.72 0 0 0-.07 1.016l1.75 2.005a.72.72 0 0 0 1.015.069l2.291-1.998a.72.72 0 0 0 .07-1.016l-1.75-2.005M37.614 57.434a4.61 3.09 33.5 0 0-2.139-5.12 4.61 3.09 33.5 0 0-5.55.032 4.61 3.09 33.5 0 0 2.14 5.12 4.61 3.09 33.5 0 0 5.55-.032M206.83 52.309a.88.88 0 0 0-1.205-.312l-1.844 1.086a.88.88 0 0 0-.311 1.205l1.38 2.344a.88.88 0 0 0 1.205.311l1.844-1.086a.88.88 0 0 0 .311-1.205l-1.38-2.343" vector-effect="non-scaling-stroke"/><path stroke="#fede82" d="M159.65 107.37a.37.37 0 0 0 .35.48l3.57.08a.37.37 0 0 0 .37-.46l-1.63-6.38a.37.37 0 0 0-.72-.01l-1.94 6.29" vector-effect="non-scaling-stroke"/><path stroke="#80a8e8" d="M214.05 126.94a.32.32 0 0 0-.49.18l-.73 2.66a.32.32 0 0 0 .33.4l4.29-.26a.32.32 0 0 0 .16-.58l-3.56-2.4M30.47 151.03a.31.31 0 0 0 .23-.44l-1.08-2.2a.31.31 0 0 0-.49-.09L26 151.19a.31.31 0 0 0 .26.54l4.21-.7M204.474 163.096a2.24 2.24 0 0 0-.55-3.12l-3.441-2.409a2.24 2.24 0 0 0-3.12.55l-.677.967a2.24 2.24 0 0 0 .55 3.12l3.441 2.409a2.24 2.24 0 0 0 3.12-.55l.677-.967M40.822 169.15a.89.89 0 0 0-1.252-.132l-1.865 1.51a.89.89 0 0 0-.131 1.253l1.724 2.129a.89.89 0 0 0 1.252.132l1.865-1.51a.89.89 0 0 0 .131-1.253l-1.724-2.129M53.88 179.337a2.2 2.2 0 0 0-.108-3.11l-.937-.872a2.2 2.2 0 0 0-3.109.108l-2.946 3.16a2.2 2.2 0 0 0 .108 3.11l.937.872a2.2 2.2 0 0 0 3.109-.108l2.946-3.16M181.28 181a.32.32 0 0 0-.49-.15l-2.15 1.64a.32.32 0 0 0 .01.52l3.53 2.41a.32.32 0 0 0 .49-.37l-1.39-4.05M60.956 189.061a.73.73 0 0 0-.14-1.023l-2.517-1.91a.73.73 0 0 0-1.023.14l-1.512 1.991a.73.73 0 0 0 .14 1.023l2.517 1.91a.73.73 0 0 0 1.023-.14l1.512-1.991M158.043 194.588a2.26 2.26 0 0 0-2.972-1.177l-1.138.493a2.26 2.26 0 0 0-1.176 2.972l1.66 3.836a2.26 2.26 0 0 0 2.972 1.177l1.138-.493a2.26 2.26 0 0 0 1.176-2.972l-1.66-3.836" vector-effect="non-scaling-stroke"/></g><path fill="#fff" d="M0 0h238v211H0V0Zm96.85 189.59c7.07 6.92 13.98 14.26 21.3 20.9a.52.52 0 0 0 .72-.02q11.12-11.06 22.19-22.15c.82-.83 2.24-.94 2.97-1.19q33-11.61 49.22-42.21c2.74-5.18 4.23-13.11 8.37-17.21q10.97-10.87 22.07-22.04a.42.41-45.5 0 0 0-.59q-11.75-11.77-23.47-23.79-.98-1-1.43-2.29-14.46-41.11-55.19-55.47-2.17-.77-3.74-2.32Q129.44 10.84 119.02.4a.74.74 0 0 0-1.04 0q-10.6 10.61-21.58 21.24c-1.03.99-1.56 1.41-3.01 1.89-24.24 8.06-43.13 25.01-52.7 48.73-1.56 3.87-2.43 7.95-5.5 10.98q-11 10.84-21.9 21.91a.51.5-45.4 0 0 0 .71q11.45 11.53 22.95 22.99c.98.98 1.6 2.13 2.03 3.37q14.15 41.09 54.8 55.07 2.2.75 3.78 2.3ZM82.44 13.93l-3.47-3.63a1.03 1.02-25.5 0 0-.88-.31l-.95.11q-1.11.13-.21.79 4.78 3.45 7.34 8.72c.16.32.56.49.88.39a.67.67 0 0 0 .44-.85l-1.03-3.2q-.14-.44-.09-.91l.75-7.56a.68.68 0 0 0-1.31-.32q-1.24 3.1-.85 6.47.12 1.07-.62.3ZM158 20.75c.18-1.17-3.39-1.99-4.49-2.86a.73.73 0 0 1-.22-.85l3.3-8.05a.61.61 0 0 0-.38-.81l-.53-.18a.68.67 19.6 0 0-.83.39l-3.77 9.45a.71.7 28.2 0 0 .26.84q2.71 1.87 5.91 2.59a.63.62 9.9 0 0 .75-.52Zm-89.66-2.08 7.77 4.55a1.05 1.05 0 0 0 1.47-1.38q-2.18-4.29-4.75-9.15c-.39-.74-.94-.77-1.51-.17a.8.79-37.8 0 0-.12.92l3.75 6.9a.22.22 0 0 1-.3.29l-8.2-4.92a1.06 1.05-88.7 0 0-1.47 1.41l5.03 9.35a.52.52 0 0 0 .8.15l.44-.37a.7.7 0 0 0 .15-.88l-3.56-6.21q-.67-1.17.5-.49Zm94.75 3.32q2.28-.5 3.91 1.38a1.11 1.11 0 0 1 .26.88c-.1.82-.74 2.84.71 2.93a.61.6-82.6 0 0 .64-.5l2.13-10.99a1.24 1.24 0 0 0-2.04-1.16l-8.43 7.45a.57.57 0 0 0-.02.84q1.14 1.09 2.29-.33.16-.05.23-.22a.46.44-84.5 0 1 .32-.28Zm11.39 5.99 3.12-8.14a.93.93 0 0 0-.2-.99l-.43-.45a.48.48 0 0 0-.79.17l-3.9 10.8a.73.72 22.3 0 0 .38.9l1.06.47a.93.93 0 0 0 1-.15l3.2-2.87q.54-.48.39.23c-.4 1.9-2.74 5.06-.56 6.29a.76.76 0 0 0 .81-.05l8.92-6.56a.63.62-31.9 0 0 .19-.79c-1.04-2-7.46 4.31-8.47 5.21a.31.31 0 0 1-.5-.35l2.09-5.44a1.76 1.74-7.4 0 1 .63-.81l1.67-1.2a.6.6 0 0 0 .02-.95c-1.29-1.03-7.28 4.18-8.38 4.88q-.43.27-.25-.2ZM60.51 30.03l2.88-2.24a.57.57 0 0 1 .81.11q1.18 1.63 3.07 1.18a.43.43 0 0 0 .15-.77l-9.31-6.61a1.34 1.34 0 0 0-2.05 1.49l3.2 10.31a.67.66 72.4 0 0 .84.44l.56-.18a.55.55 0 0 0 .36-.71l-.76-2.17a.77.76-29 0 1 .25-.85Zm-9.42 5.44 2.49-1.88a1.43 1.41 77.9 0 0 .54-.85q.4-1.84-1.22-3.64c-3.04-3.39-5.55.25-7.85 2.23a.6.6 0 0 0-.05.87l7.29 7.88a.64.64 0 0 0 .92.02l.33-.32a.59.59 0 0 0 .01-.83l-2.53-2.6a.59.59 0 0 1 .07-.88Zm139.15 1.5c.5-1.31 2.92-5.41 1.45-6.45a.48.48 0 0 0-.73.21l-2.67 6.71q-.19.49-.55.88l-2.37 2.56a.59.59 0 0 0 .08.87q.87.66 1.76-.32c2.41-2.66 6.64-3.24 9.92-4.41a.54.54 0 0 0 .12-.95c-1.25-.86-5.15.95-6.7 1.27q-.49.1-.31-.37ZM38.21 45l.08-.5c1.52.59 7.74 4.44 8.61 2.46a1.02 1.01 39.6 0 0-.1-.99l-4.04-5.74a.39.39 0 0 1 .55-.54l5.68 4.16a.57.57 0 0 0 .8-.14l.31-.44a.64.64 0 0 0-.16-.88l-8.85-6.36a.62.61-54.1 0 0-.85.14l-.87 1.2a.85.84-45.4 0 0 0 .99l4.88 6.66a.27.27 0 0 1-.33.4l-7.49-3.74a.77.76-58.8 0 0-.95.24l-.82 1.15a.63.63 0 0 0 .07.82l7.64 7.62a.52.52 0 0 0 .76-.02l.45-.5a.59.59 0 0 0-.03-.83L38.21 45Zm159.06-1.02 2.08-1.42a.63.63 0 0 1 .87.16c.54.75 2.79 4.5 3.71 4.02a.57.56-26.1 0 0 .26-.73q-1.41-3.1-3.96-5.39a.81.8-41.8 0 0-1.01-.05l-7.94 5.76a.78.78 0 0 0-.16 1.1l3.88 5.14q.57.75.94-.11c.44-1.04-2.02-3.76-2.59-4.87a.62.62 0 0 1 .17-.78l1.63-1.28a.6.58-39.2 0 1 .81.07c.72.83 2.37 3.91 3.5 3.39a.61.61 0 0 0 .24-.91l-2.54-3.53a.41.4-34.3 0 1 .11-.57ZM39.198 57.57a3.84 3.84 0 0 0-1.12-5.315l-3.534-2.304a3.84 3.84 0 0 0-5.314 1.12l-.808 1.24a3.84 3.84 0 0 0 1.12 5.313l3.534 2.305a3.84 3.84 0 0 0 5.314-1.12l.809-1.24Zm162.662-2.86.8 1.45a.75.73-43.3 0 1-.03.77l-2.61 3.98a.71.71 0 0 0 .11.92c1.38 1.25 2.56-2.11 3.28-3.02a.83.82 26.1 0 1 .85-.29q3.72.93 5.8-2.53a.99.97 46.7 0 0 .02-.96l-2.82-5.37a.68.67-30.1 0 0-.95-.25l-9.21 5.7a.68.67-34.9 0 0-.18.99l.21.28a.68.67 54.3 0 0 .91.16l3.06-2.02a.53.53 0 0 1 .76.19ZM32.11 67.41a1.36 1.36 0 0 1-1.43.84q-3.79-.48-6.45-3.14a.95.93-58.4 0 1-.22-.97c.2-.57 2.32-4.28 1.84-4.69a.67.67 0 0 0-.91.04q-2.05 2.1-2.75 4.97a1.32 1.31-57 0 0 .23 1.09q3.24 4.19 8.66 4.44a1.33 1.31 24 0 0 .99-.37q2.41-2.28 2.89-5.66a.41.41 0 0 0-.48-.47l-.28.06a1.06 1.05-83.8 0 0-.79.64l-1.3 3.22Zm174.08 2.09c-.24-.35-2.37-4.93-2.94-4.76a.72.7-13.7 0 0-.49.79q.47 3.14 2.57 5.5a1.2 1.19-22.4 0 0 .95.39q2.68-.17 4.49-2.19a.92.92 0 0 0 .17-.94l-1.44-3.59a.78.77 57.9 0 1 .19-.86c3.4-3.13 4.03 1.95 4.66 3.81a.44.44 0 0 0 .61.25l.25-.12a.78.76 74.7 0 0 .42-.75q-.21-2.57-1.65-4.74c-1.68-2.51-5.39-.76-6.3 1.39a1.33 1.33 0 0 0-.02.97l1.22 3.35a.68.67 65.1 0 1-.29.81l-1.53.9a.65.65 0 0 1-.87-.21Zm5.89 56.88q.5 4.11-3.3 4.01a.72.71-78.9 0 0-.68.46l-.28.75a.5.5 0 0 0 .51.68l11.52-.85a1.19 1.19 0 0 0 .57-2.18l-9.53-6.28a.63.62 37.8 0 0-.81.1c-.94 1.07.87 2.2 1.61 2.69a.87.86 13 0 1 .39.62ZM25.15 135.2l-5.98 6.88a.76.76 0 0 0-.06.93l.34.52a.82.81 63.6 0 0 .94.32l10.13-3.43a.68.68 0 0 0 .46-.71l-.03-.4a.58.57 78.3 0 0-.75-.5l-7.21 2.32q-.76.24-.25-.37l5.98-7.11a1.04 1.04 0 0 0-1.11-1.66l-10.23 3.26a.71.7 66.7 0 0-.4 1.01c.79 1.46 6.45-1.08 7.99-1.37q.54-.09.18.31Zm192.24 5.73c1.14-3.25-3.41-4.33-5.5-3.6a1.04 1.03-88 0 0-.62.58l-1.4 3.16a.83.82 20.2 0 1-.99.45l-1.82-.55a.62.62 0 0 1-.39-.83l1.81-4.44a.52.52 0 0 0-.34-.69c-1.82-.53-3.05 5.11-3.08 6.27a.91.9-78.8 0 0 .57.86l2.99 1.17a2.19 2.19 0 0 0 2.84-1.23l1.19-2.97a.72.71 21.3 0 1 .92-.4l2.07.81a.7.69 23 0 1 .38.93l-1.97 4.37a.48.48 0 0 0 .37.67c1.49.24 2.61-3.52 2.97-4.56Zm-184.94 9.48-1.68-3.18a.64.64 0 0 1 .17-.8l1.64-1.3a.77.77 0 0 0 .15-1.04l-.32-.46a.56.55-39.4 0 0-.84-.08l-8.12 7.85a1.31 1.31 0 0 0 1.08 2.24l10.95-1.45a.83.83 0 0 0 .61-1.25l-.2-.34a.67.66 67.9 0 0-.72-.31l-1.93.47a.71.69-20.3 0 1-.79-.35Zm179.11-1.97c-4.14-2.76-4.69.35-6.45 3.08a.64.64 0 0 1-.88.2l-1.71-1.06a.68.67-62.2 0 1-.26-.86c.05-.1 2.61-4.41 2.06-4.88a.65.64 41.1 0 0-.9.06q-1.97 2.22-2.83 5.06a1.15 1.13-53.7 0 0 .14.95q1.33 1.98 3.68 2.5a2.07 2.05-69.1 0 0 2.24-1.01l1.67-3.02a.7.7 0 0 1 1.01-.23l1.8 1.24a.75.75 0 0 1 .22 1.01l-2.14 3.57a.61.6 36 0 0 .13.78c1.24 1.02 5.74-5.05 2.22-7.39ZM34.8 163.32l-1.81 1.09a.64.64 0 0 1-.86-.2l-2.63-3.96a.53.53 0 0 0-.68-.18l-.34.17a.68.68 0 0 0-.25.99l3.41 4.99a.73.72 59.3 0 0 .92.24q4.59-2.3 8.62-5.5a.72.72 0 0 0 .16-.96l-3.41-5.19a.5.49 51.3 0 0-.75-.09l-.3.27a.66.66 0 0 0-.1.84l2.49 3.84a.63.62-32.8 0 1-.19.86l-1.94 1.28a.55.55 0 0 1-.79-.21c-.39-.75-2.05-3.86-3.07-3.54a.57.56 66.4 0 0-.32.82l2.06 3.6a.63.62-30.8 0 1-.22.84Zm171.158.624a3.94 3.94 0 0 0-.958-5.489l-3.29-2.312a3.94 3.94 0 0 0-5.488.958l-.84 1.195a3.94 3.94 0 0 0 .958 5.489l3.29 2.311a3.94 3.94 0 0 0 5.488-.958l.84-1.194ZM194.82 176.94c8.64-3.86 1.64-11.27-3.89-11.74a1.23 1.21 21.6 0 0-1.04.44l-3.23 3.89a.65.65 0 0 0 .17.98l.39.23a.42.42 0 0 0 .54-.09l2.91-3.54a.78.78 0 0 1 .93-.22q3.34 1.47 5.52 4.38a.92.92 0 0 1 .11.9c-.42 1.02-3.4 4.04-3.14 4.52a.57.57 0 0 0 .73.25Zm-150.85-6.08-2.75-3.46a.98.97-26.1 0 0-1.01-.34c-7.21 1.82-3.58 6.09-.75 9.4a.56.56 0 0 0 .79.07l8.28-6.83a.65.65 0 0 0 .1-.89l-.36-.47a.6.6 0 0 0-.89-.06l-2.67 2.62a.5.49-41.4 0 1-.74-.04Zm140.567 1.277a.69.69 0 0 0-.975-.03l-.35.33a.69.69 0 0 0-.028.975l7.379 7.831a.69.69 0 0 0 .975.03l.35-.33a.69.69 0 0 0 .029-.975l-7.38-7.831Zm-129.404 8.405a3.63 3.63 0 0 0-.108-5.133l-1.357-1.3a3.63 3.63 0 0 0-5.132.107l-3.129 3.262a3.63 3.63 0 0 0 .108 5.133l1.357 1.3a3.63 3.63 0 0 0 5.132-.107l3.129-3.262Zm121.297 1.278q-1.27-1.87-3.11-.88a.41.4 47.7 0 0-.03.7l10.02 6.39a1.16 1.16 0 0 0 1.71-1.37l-4.03-11.02a.53.53 0 0 0-.91-.16q-1.25 1.49.13 3.14a.55.55 0 0 1-.05.76l-2.76 2.55a.65.65 0 0 1-.97-.11Zm-114.61 5.37-1.36-1.35a.85.85 0 0 1-.21-.85c.38-1.26 1.7-5.08-.43-5.42a.47.47 0 0 0-.54.45c-.04 1.8.05 4.27-1.81 4.5q-.49.06-.89.35c-5.49 4.08-.78 6.75 2.62 8.79a.55.55 0 0 0 .74-.15l6.29-8.86a.68.67 36.2 0 0-.15-.94c-1.3-.99-3.12 2.48-3.53 3.35a.45.45 0 0 1-.73.13Zm111.15 6.64q-1.53.38-2.01 1.78a.64.63 83.8 0 0 .93.75c1.02-.63 7.24-3.98 6.47-5.12a.66.66 0 0 0-.86-.22l-2.06 1.12a.63.62 59.9 0 1-.82-.22l-4.8-7.66a.7.7 0 0 0-1.13-.08l-.21.25a.75.75 0 0 0-.06.88l4.84 7.8a.48.48 0 0 1-.29.72Zm-99.18-2.03q-1.53 3.71-3.76 7.07c-.51.77-.26 1.34.54 1.65a.66.66 0 0 0 .8-.26c1.06-1.69 4.93-7.74 4.12-9.59-1.4-3.22-5.59-4.86-7.86-1.61q-1.48 2.13-3.97 6.94a.57.57 0 0 0 .33.8l.43.15a.64.63 24.3 0 0 .76-.28l4.36-7.28a.94.94 0 0 1 .94-.45q2.05.28 3.22 1.98a.95.92-51.6 0 1 .09.88Zm89.07-3.437a.57.57 0 0 0-.77-.239l-.584.308a.57.57 0 0 0-.238.77l5.112 9.695a.57.57 0 0 0 .77.239l.584-.308a.57.57 0 0 0 .238-.77l-5.112-9.695Zm-3.313 5.397a3.63 3.63 0 0 0-4.76-1.924l-1.712.727a3.63 3.63 0 0 0-1.923 4.76l1.781 4.197a3.63 3.63 0 0 0 4.76 1.924l1.712-.727a3.63 3.63 0 0 0 1.923-4.76l-1.781-4.197Zm-78.797 9.13-4.24-1.69a.68.68 0 0 0-.73.14l-.33.32a.53.53 0 0 0 .19.88l6.11 2.31a.72.71 21.3 0 0 .92-.4l3.47-8.73a1.5 1.5 0 0 0-.81-1.93c-1.18-.5-5.44-2.44-6.11-1.41a.49.48 29.2 0 0 .21.72l4.26 1.9a.84.84 0 0 1 .5.8q-.04 1.75-1.44 2.2a.95.93 51.6 0 1-.8-.1q-1.76-1.11-3.75-.8-1.4.23-.1.8l4.02 1.76a.6.6 0 0 1 .32.75l-.77 2.08a.7.7 0 0 1-.92.4Zm59.79-3.08 7.16 6.94a1.19 1.19 0 0 0 1.97-1.18l-2.93-10.16a.59.58-14.2 0 0-.69-.41l-.47.11a.66.65-14 0 0-.5.82l2 7.05q.21.75-.37.23l-6.97-6.24a1.02 1.01 13 0 0-1.66 1.03l3.01 10.52a.61.61 0 0 0 1.04.24l.37-.4a.73.71-32.4 0 0 .16-.68l-2.33-7.74q-.13-.46.21-.13Z"/><path fill="#047ef8" d="M118.15 210.49c-7.32-6.64-14.23-13.98-21.3-20.9q-1.58-1.55-3.78-2.3-40.65-13.98-54.8-55.07c-.43-1.24-1.05-2.39-2.03-3.37q-11.5-11.46-22.95-22.99a.51.5-45.4 0 1 0-.71q10.9-11.07 21.9-21.91c3.07-3.03 3.94-7.11 5.5-10.98 9.57-23.72 28.46-40.67 52.7-48.73 1.45-.48 1.98-.9 3.01-1.89Q107.38 11.01 117.98.4a.74.74 0 0 1 1.04 0q10.42 10.44 20.84 20.81 1.57 1.55 3.74 2.32Q184.33 37.89 198.79 79q.45 1.29 1.43 2.29 11.72 12.02 23.47 23.79a.42.41-45.5 0 1 0 .59q-11.1 11.17-22.07 22.04c-4.14 4.1-5.63 12.03-8.37 17.21q-16.22 30.6-49.22 42.21c-.73.25-2.15.36-2.97 1.19q-11.07 11.09-22.19 22.15a.52.52 0 0 1-.72.02ZM48.93 76.6c2.77-8.27 7.17-14.33 13.85-21.02q11.31-11.34 22.71-22.6a.16.16 0 0 0-.19-.26c-32.95 16.3-50.12 50.2-44.36 86.46a.4.39 18.8 0 1-.68.33l-5.4-5.66a1.58 1.57-69.9 0 1-.44-.96q-1.06-10.52.76-20.95a.29.29 0 0 0-.49-.25l-13.2 13.43a.54.54 0 0 0 .01.76l70.45 70.44q.44.44-.15.25-10.97-3.52-19.24-11.65-12.09-11.88-24.26-23.79-.37-.36-.15.1 7.38 15.27 19.75 25.64 25.52 21.42 59.67 17.78 1.49-.16 3.11-.21.75-.02.21.5l-5.71 5.52a1.46 1.41-67.9 0 1-.92.41q-8.92.62-17.72-.68a.28.28 0 0 0-.24.48l11.63 11.64a.61.61 0 0 0 .86 0l68.75-68.55a.18.18 0 0 1 .3.19c-3.92 9.84-8.87 16.46-16.95 24.56q-9.53 9.54-19.17 19a.21.21 0 0 0 .25.33c32.32-17.13 50.03-49.91 43.86-86.52a.33.33 0 0 1 .56-.29c3.39 3.27 6.31 5.63 6.38 10.73q.12 8.66-1.02 17.33-.08.61.36.17l13.34-13.32a.64.64 0 0 0 0-.9l-70.39-70.37a.21.21 0 0 1 .22-.35c9.68 3.74 15.88 8.2 23.76 16.1q9.62 9.63 19.12 19.1a.26.26 0 0 0 .42-.31c-16.17-30.79-47.38-47.75-82.36-42.84q-.89.13-.25-.51l5.33-5.35a1.54 1.53-69.6 0 1 .93-.43q8.91-.86 17.77.46 1.06.16.3-.6L118.94 8.56a.64.64 0 0 0-.9 0l-68.5 68.42q-1.11 1.1-.61-.38Z"/><path fill="#0151d1" d="M83.06 13.63q-.39-3.37.85-6.47a.68.68 0 0 1 1.31.32l-.75 7.56q-.05.47.09.91l1.03 3.2a.67.67 0 0 1-.44.85c-.32.1-.72-.07-.88-.39q-2.56-5.27-7.34-8.72-.9-.66.21-.79l.95-.11a1.03 1.02-25.5 0 1 .88.31l3.47 3.63q.74.77.62-.3ZM153.51 17.89c1.1.87 4.67 1.69 4.49 2.86a.63.62 9.9 0 1-.75.52q-3.2-.72-5.91-2.59a.71.7 28.2 0 1-.26-.84l3.77-9.45a.68.67 19.6 0 1 .83-.39l.53.18a.61.61 0 0 1 .38.81l-3.3 8.05a.73.73 0 0 0 .22.85Z"/><path fill="#fff" d="M48.93 76.6q-.5 1.48.61.38l68.5-68.42a.64.64 0 0 1 .9 0l11.36 11.38q.76.76-.3.6-8.86-1.32-17.77-.46a1.54 1.53-69.6 0 0-.93.43l-5.33 5.35q-.64.64.25.51c34.98-4.91 66.19 12.05 82.36 42.84a.26.26 0 0 1-.42.31q-9.5-9.47-19.12-19.1c-7.88-7.9-14.08-12.36-23.76-16.1a.21.21 0 0 0-.22.35l70.39 70.37a.64.64 0 0 1 0 .9l-13.34 13.32q-.44.44-.36-.17 1.14-8.67 1.02-17.33c-.07-5.1-2.99-7.46-6.38-10.73a.33.33 0 0 0-.56.29c6.17 36.61-11.54 69.39-43.86 86.52a.21.21 0 0 1-.25-.33q9.64-9.46 19.17-19c8.08-8.1 13.03-14.72 16.95-24.56a.18.18 0 0 0-.3-.19l-68.75 68.55a.61.61 0 0 1-.86 0l-11.63-11.64a.28.28 0 0 1 .24-.48q8.8 1.3 17.72.68a1.46 1.41-67.9 0 0 .92-.41l5.71-5.52q.54-.52-.21-.5-1.62.05-3.11.21-34.15 3.64-59.67-17.78-12.37-10.37-19.75-25.64-.22-.46.15-.1 12.17 11.91 24.26 23.79 8.27 8.13 19.24 11.65.59.19.15-.25L21.5 105.88a.54.54 0 0 1-.01-.76l13.2-13.43a.29.29 0 0 1 .49.25q-1.82 10.43-.76 20.95a1.58 1.57-69.9 0 0 .44.96l5.4 5.66a.4.39 18.8 0 0 .68-.33C35.18 82.92 52.35 49.02 85.3 32.72a.16.16 0 0 1 .19.26q-11.4 11.26-22.71 22.6C56.1 62.27 51.7 68.33 48.93 76.6Zm63.79 36.42c-3.61.28-11.96 1.72-12.63-3.08q-.84-5.99.56-11.93a.97.96-4.9 0 1 .58-.68c2.96-1.23 8.21-.45 11.48-.33a.52.52 0 0 0 .54-.52l.01-4.52a1.48 1.47-81.9 0 0-1.06-1.42c-6.2-1.84-17.12-3.04-19.41 5.01-1.55 5.47-2.27 17.19 1.9 22 3.88 4.48 12.13 3.45 17.41 2.31a1.46 1.45-6.4 0 0 1.15-1.43v-4.92a.49.49 0 0 0-.53-.49ZM72.31 89.94c-4.92.12-9.32.24-9.33 6.57q0 7.3.01 14.65c0 5.45.98 9.1 7.04 9.25q7.03.17 14.1-.52a.69.68-2.8 0 0 .62-.68v-5.42a.67.67 0 0 0-.64-.67c-2.22-.1-10.94.4-12.28-.68q-1.28-1.03-.52-2.93a.7.69-79.8 0 1 .63-.44l9.92-.34a.66.65-1.3 0 0 .64-.66l-.05-5.47a.56.56 0 0 0-.53-.56l-10.11-.6a.62.61 3.3 0 1-.58-.64l.1-2.67a.74.73 87.8 0 1 .65-.71q6.09-.73 12.18-.25a.57.56-88.2 0 0 .61-.58l-.07-5.9a.59.59 0 0 0-.56-.58q-6.01-.31-11.83-.17Zm58.84 22.91q-1.9-.05-1.9-1.94V90.25a.5.5 0 0 0-.5-.5h-7.22a.61.61 0 0 0-.61.62q.14 11.82.16 23.62c.01 8.5 12.22 6.69 18.83 6.47a.61.61 0 0 0 .59-.61v-6.19a.61.6 1 0 0-.59-.6l-8.76-.21Zm34.08 2.08a.66.66 0 0 1 .65.45l1.43 4.35a.66.66 0 0 0 .59.45l7.32.35a.66.66 0 0 0 .66-.85l-9.08-29.46a.66.66 0 0 0-.63-.47h-8.66a.66.66 0 0 0-.62.46l-9.23 29.45a.66.66 0 0 0 .64.86l7.16-.07a.66.66 0 0 0 .63-.47l1.25-4.33a.66.66 0 0 1 .61-.48l7.28-.24Z"/><path fill="#0151d1" d="m67.84 19.16 3.56 6.21a.7.7 0 0 1-.15.88l-.44.37a.52.52 0 0 1-.8-.15l-5.03-9.35a1.06 1.05-88.7 0 1 1.47-1.41l8.2 4.92a.22.22 0 0 0 .3-.29l-3.75-6.9a.8.79-37.8 0 1 .12-.92c.57-.6 1.12-.57 1.51.17q2.57 4.86 4.75 9.15a1.05 1.05 0 0 1-1.47 1.38l-7.77-4.55q-1.17-.68-.5.49ZM162.77 22.27q-.07.17-.23.22-1.15 1.42-2.29.33a.57.57 0 0 1 .02-.84l8.43-7.45a1.24 1.24 0 0 1 2.04 1.16l-2.13 10.99a.61.6-82.6 0 1-.64.5c-1.45-.09-.81-2.11-.71-2.93a1.11 1.11 0 0 0-.26-.88q-1.63-1.88-3.91-1.38a.46.44-84.5 0 0-.32.28Zm2.86-1.71 1.61 1.26a.39.39 0 0 0 .63-.22l.94-4.32q.1-.45-.31-.23-1.94 1.06-2.99 2.88a.5.49-56.1 0 0 .12.63Z"/><path fill="#fff" d="M165.51 19.93q1.05-1.82 2.99-2.88.41-.22.31.23l-.94 4.32a.39.39 0 0 1-.63.22l-1.61-1.26a.5.49-56.1 0 1-.12-.63Z"/><path fill="#0151d1" d="M174.73 28.18c1.1-.7 7.09-5.91 8.38-4.88a.6.6 0 0 1-.02.95l-1.67 1.2a1.76 1.74-7.4 0 0-.63.81l-2.09 5.44a.31.31 0 0 0 .5.35c1.01-.9 7.43-7.21 8.47-5.21a.63.62-31.9 0 1-.19.79l-8.92 6.56a.76.76 0 0 1-.81.05c-2.18-1.23.16-4.39.56-6.29q.15-.71-.39-.23l-3.2 2.87a.93.93 0 0 1-1 .15l-1.06-.47a.73.72 22.3 0 1-.38-.9l3.9-10.8a.48.48 0 0 1 .79-.17l.43.45a.93.93 0 0 1 .2.99l-3.12 8.14q-.18.47.25.2ZM60.26 30.88l.76 2.17a.55.55 0 0 1-.36.71l-.56.18a.67.66 72.4 0 1-.84-.44l-3.2-10.31a1.34 1.34 0 0 1 2.05-1.49l9.31 6.61a.43.43 0 0 1-.15.77q-1.89.45-3.07-1.18a.57.57 0 0 0-.81-.11l-2.88 2.24a.77.76-29 0 0-.25.85Zm-.86-2.41a.33.33 0 0 0 .52.16l2.23-1.73a.33.33 0 0 0-.02-.54l-3.58-2.32a.33.33 0 0 0-.5.38l1.35 4.05Z"/><path fill="#fff" d="m59.4 28.47-1.35-4.05a.33.33 0 0 1 .5-.38l3.58 2.32a.33.33 0 0 1 .02.54l-2.23 1.73a.33.33 0 0 1-.52-.16Z"/><path fill="#0151d1" d="m51.02 36.35 2.53 2.6a.59.59 0 0 1-.01.83l-.33.32a.64.64 0 0 1-.92-.02L45 32.2a.6.6 0 0 1 .05-.87c2.3-1.98 4.81-5.62 7.85-2.23q1.62 1.8 1.22 3.64a1.43 1.41 77.9 0 1-.54.85l-2.49 1.88a.59.59 0 0 0-.07.88Zm-.186-6.965a.72.72 0 0 0-1.016-.069l-2.291 1.998a.72.72 0 0 0-.07 1.016l1.75 2.005a.72.72 0 0 0 1.015.069l2.291-1.998a.72.72 0 0 0 .07-1.016l-1.75-2.005Z"/><rect width="4.48" height="4.1" x="-2.24" y="-2.05" fill="#fff" rx=".72" transform="rotate(-41.1 67.504 -50.785)"/><path fill="#0151d1" d="M190.55 37.34c1.55-.32 5.45-2.13 6.7-1.27a.54.54 0 0 1-.12.95c-3.28 1.17-7.51 1.75-9.92 4.41q-.89.98-1.76.32a.59.59 0 0 1-.08-.87l2.37-2.56q.36-.39.55-.88l2.67-6.71a.48.48 0 0 1 .73-.21c1.47 1.04-.95 5.14-1.45 6.45q-.18.47.31.37ZM38.29 44.5q-.57-.83-1.48-.93-.78-.09-.13.36L38.21 45l5.34 5.16a.59.59 0 0 1 .03.83l-.45.5a.52.52 0 0 1-.76.02l-7.64-7.62a.63.63 0 0 1-.07-.82l.82-1.15a.77.76-58.8 0 1 .95-.24l7.49 3.74a.27.27 0 0 0 .33-.4l-4.88-6.66a.85.84-45.4 0 1 0-.99l.87-1.2a.62.61-54.1 0 1 .85-.14l8.85 6.36a.64.64 0 0 1 .16.88l-.31.44a.57.57 0 0 1-.8.14l-5.68-4.16a.39.39 0 0 0-.55.54l4.04 5.74a1.02 1.01 39.6 0 1 .1.99c-.87 1.98-7.09-1.87-8.61-2.46ZM197.16 44.55l2.54 3.53a.61.61 0 0 1-.24.91c-1.13.52-2.78-2.56-3.5-3.39a.6.58-39.2 0 0-.81-.07l-1.63 1.28a.62.62 0 0 0-.17.78c.57 1.11 3.03 3.83 2.59 4.87q-.37.86-.94.11l-3.88-5.14a.78.78 0 0 1 .16-1.1l7.94-5.76a.81.8-41.8 0 1 1.01.05q2.55 2.29 3.96 5.39a.57.56-26.1 0 1-.26.73c-.92.48-3.17-3.27-3.71-4.02a.63.63 0 0 0-.87-.16l-2.08 1.42a.41.4-34.3 0 0-.11.57Z"/><path fill="#047ef8" d="m38.29 44.5-.08.5-1.53-1.07q-.65-.45.13-.36.91.1 1.48.93Z"/><path fill="#0151d1" d="M38.39 58.81a3.84 3.84 0 0 1-5.314 1.119l-3.535-2.305a3.84 3.84 0 0 1-1.12-5.313l.809-1.24a3.84 3.84 0 0 1 5.314-1.12l3.535 2.304a3.84 3.84 0 0 1 1.12 5.314l-.809 1.24Zm-.776-1.376a4.61 3.09 33.5 0 0-2.139-5.12 4.61 3.09 33.5 0 0-5.55.032 4.61 3.09 33.5 0 0 2.14 5.12 4.61 3.09 33.5 0 0 5.55-.032ZM201.1 54.52l-3.06 2.02a.68.67 54.3 0 1-.91-.16l-.21-.28a.68.67-34.9 0 1 .18-.99l9.21-5.7a.68.67-30.1 0 1 .95.25l2.82 5.37a.99.97 46.7 0 1-.02.96q-2.08 3.46-5.8 2.53a.83.82 26.1 0 0-.85.29c-.72.91-1.9 4.27-3.28 3.02a.71.71 0 0 1-.11-.92l2.61-3.98a.75.73-43.3 0 0 .03-.77l-.8-1.45a.53.53 0 0 0-.76-.19Zm5.73-2.212a.88.88 0 0 0-1.205-.311l-1.844 1.086a.88.88 0 0 0-.311 1.205l1.38 2.344a.88.88 0 0 0 1.205.311l1.844-1.086a.88.88 0 0 0 .311-1.205l-1.38-2.343Z"/><ellipse fill="#fff" rx="4.61" ry="3.09" transform="rotate(33.5 -74.305 83.548)"/><rect width="3.9" height="4.48" x="-1.95" y="-2.24" fill="#fff" rx=".88" transform="rotate(-30.5 202.817 -350.271)"/><path fill="#0151d1" d="m32.11 67.41 1.3-3.22a1.06 1.05-83.8 0 1 .79-.64l.28-.06a.41.41 0 0 1 .48.47q-.48 3.38-2.89 5.66a1.33 1.31 24 0 1-.99.37q-5.42-.25-8.66-4.44a1.32 1.31-57 0 1-.23-1.09q.7-2.87 2.75-4.97a.67.67 0 0 1 .91-.04c.48.41-1.64 4.12-1.84 4.69a.95.93-58.4 0 0 .22.97q2.66 2.66 6.45 3.14a1.36 1.36 0 0 0 1.43-.84ZM207.06 69.71l1.53-.9a.68.67 65.1 0 0 .29-.81l-1.22-3.35a1.33 1.33 0 0 1 .02-.97c.91-2.15 4.62-3.9 6.3-1.39q1.44 2.17 1.65 4.74a.78.76 74.7 0 1-.42.75l-.25.12a.44.44 0 0 1-.61-.25c-.63-1.86-1.26-6.94-4.66-3.81a.78.77 57.9 0 0-.19.86l1.44 3.59a.92.92 0 0 1-.17.94q-1.81 2.02-4.49 2.19a1.2 1.19-22.4 0 1-.95-.39q-2.1-2.36-2.57-5.5a.72.7-13.7 0 1 .49-.79c.57-.17 2.7 4.41 2.94 4.76a.65.65 0 0 0 .87.21Z"/><path fill="#fcbd04" d="M100.09 109.94c.67 4.8 9.02 3.36 12.63 3.08a.49.49 0 0 1 .53.49v4.92a1.46 1.45-6.4 0 1-1.15 1.43c-5.28 1.14-13.53 2.17-17.41-2.31-4.17-4.81-3.45-16.53-1.9-22 2.29-8.05 13.21-6.85 19.41-5.01a1.48 1.47-81.9 0 1 1.06 1.42l-.01 4.52a.52.52 0 0 1-.54.52c-3.27-.12-8.52-.9-11.48.33a.97.96-4.9 0 0-.58.68q-1.4 5.94-.56 11.93ZM72.31 89.94q5.82-.14 11.83.17a.59.59 0 0 1 .56.58l.07 5.9a.57.56-88.2 0 1-.61.58q-6.09-.48-12.18.25a.74.73 87.8 0 0-.65.71l-.1 2.67a.62.61 3.3 0 0 .58.64l10.11.6a.56.56 0 0 1 .53.56l.05 5.47a.66.65-1.3 0 1-.64.66l-9.92.34a.7.69-79.8 0 0-.63.44q-.76 1.9.52 2.93c1.34 1.08 10.06.58 12.28.68a.67.67 0 0 1 .64.67v5.42a.69.68-2.8 0 1-.62.68q-7.07.69-14.1.52c-6.06-.15-7.04-3.8-7.04-9.25q-.01-7.35-.01-14.65c.01-6.33 4.41-6.45 9.33-6.57ZM131.15 112.85l8.76.21a.61.6 1 0 1 .59.6v6.19a.61.61 0 0 1-.59.61c-6.61.22-18.82 2.03-18.83-6.47q-.02-11.8-.16-23.62a.61.61 0 0 1 .61-.62h7.22a.5.5 0 0 1 .5.5v20.66q0 1.89 1.9 1.94ZM165.23 114.93l-7.28.24a.66.66 0 0 0-.61.48l-1.25 4.33a.66.66 0 0 1-.63.47l-7.16.07a.66.66 0 0 1-.64-.86l9.23-29.45a.66.66 0 0 1 .62-.46h8.66a.66.66 0 0 1 .63.47l9.08 29.46a.66.66 0 0 1-.66.85l-7.32-.35a.66.66 0 0 1-.59-.45l-1.43-4.35a.66.66 0 0 0-.65-.45Zm-5.58-7.56a.37.37 0 0 0 .35.48l3.57.08a.37.37 0 0 0 .37-.46l-1.63-6.38a.37.37 0 0 0-.72-.01l-1.94 6.29Z"/><path fill="#fff" d="m159.65 107.37 1.94-6.29a.37.37 0 0 1 .72.01l1.63 6.38a.37.37 0 0 1-.37.46l-3.57-.08a.37.37 0 0 1-.35-.48Z"/><path fill="#0151d1" d="M211.69 125.76c-.74-.49-2.55-1.62-1.61-2.69a.63.62 37.8 0 1 .81-.1l9.53 6.28a1.19 1.19 0 0 1-.57 2.18l-11.52.85a.5.5 0 0 1-.51-.68l.28-.75a.72.71-78.9 0 1 .68-.46q3.8.1 3.3-4.01a.87.86 13 0 0-.39-.62Zm2.36 1.18a.32.32 0 0 0-.49.18l-.73 2.66a.32.32 0 0 0 .33.4l4.29-.26a.32.32 0 0 0 .16-.58l-3.56-2.4Z"/><path fill="#fff" d="m214.05 126.94 3.56 2.4a.32.32 0 0 1-.16.58l-4.29.26a.32.32 0 0 1-.33-.4l.73-2.66a.32.32 0 0 1 .49-.18Z"/><path fill="#0151d1" d="M24.97 134.89c-1.54.29-7.2 2.83-7.99 1.37a.71.7 66.7 0 1 .4-1.01l10.23-3.26a1.04 1.04 0 0 1 1.11 1.66l-5.98 7.11q-.51.61.25.37l7.21-2.32a.58.57 78.3 0 1 .75.5l.03.4a.68.68 0 0 1-.46.71l-10.13 3.43a.82.81 63.6 0 1-.94-.32l-.34-.52a.76.76 0 0 1 .06-.93l5.98-6.88q.36-.4-.18-.31ZM211.89 137.33c2.09-.73 6.64.35 5.5 3.6-.36 1.04-1.48 4.8-2.97 4.56a.48.48 0 0 1-.37-.67l1.97-4.37a.7.69 23 0 0-.38-.93l-2.07-.81a.72.71 21.3 0 0-.92.4l-1.19 2.97a2.19 2.19 0 0 1-2.84 1.23l-2.99-1.17a.91.9-78.8 0 1-.57-.86c.03-1.16 1.26-6.8 3.08-6.27a.52.52 0 0 1 .34.69l-1.81 4.44a.62.62 0 0 0 .39.83l1.82.55a.83.82 20.2 0 0 .99-.45l1.4-3.16a1.04 1.03-88 0 1 .62-.58ZM33.24 150.76l1.93-.47a.67.66 67.9 0 1 .72.31l.2.34a.83.83 0 0 1-.61 1.25l-10.95 1.45a1.31 1.31 0 0 1-1.08-2.24l8.12-7.85a.56.55-39.4 0 1 .84.08l.32.46a.77.77 0 0 1-.15 1.04l-1.64 1.3a.64.64 0 0 0-.17.8l1.68 3.18a.71.69-20.3 0 0 .79.35Zm-2.77.27a.31.31 0 0 0 .23-.44l-1.08-2.2a.31.31 0 0 0-.49-.09L26 151.19a.31.31 0 0 0 .26.54l4.21-.7ZM211.56 148.44c3.52 2.34-.98 8.41-2.22 7.39a.61.6 36 0 1-.13-.78l2.14-3.57a.75.75 0 0 0-.22-1.01l-1.8-1.24a.7.7 0 0 0-1.01.23l-1.67 3.02a2.07 2.05-69.1 0 1-2.24 1.01q-2.35-.52-3.68-2.5a1.15 1.13-53.7 0 1-.14-.95q.86-2.84 2.83-5.06a.65.64 41.1 0 1 .9-.06c.55.47-2.01 4.78-2.06 4.88a.68.67-62.2 0 0 .26.86l1.71 1.06a.64.64 0 0 0 .88-.2c1.76-2.73 2.31-5.84 6.45-3.08Z"/><path fill="#fff" d="m30.47 151.03-4.21.7a.31.31 0 0 1-.26-.54l3.13-2.89a.31.31 0 0 1 .49.09l1.08 2.2a.31.31 0 0 1-.23.44Z"/><path fill="#0151d1" d="m35.02 162.48-2.06-3.6a.57.56 66.4 0 1 .32-.82c1.02-.32 2.68 2.79 3.07 3.54a.55.55 0 0 0 .79.21l1.94-1.28a.63.62-32.8 0 0 .19-.86l-2.49-3.84a.66.66 0 0 1 .1-.84l.3-.27a.5.49 51.3 0 1 .75.09l3.41 5.19a.72.72 0 0 1-.16.96q-4.03 3.2-8.62 5.5a.73.72 59.3 0 1-.92-.24l-3.41-4.99a.68.68 0 0 1 .25-.99l.34-.17a.53.53 0 0 1 .68.18l2.63 3.96a.64.64 0 0 0 .86.2l1.81-1.09a.63.62-30.8 0 0 .22-.84ZM205.118 165.138a3.94 3.94 0 0 1-5.489.958l-3.289-2.311a3.94 3.94 0 0 1-.958-5.489l.84-1.195a3.94 3.94 0 0 1 5.489-.958l3.289 2.312a3.94 3.94 0 0 1 .958 5.489l-.84 1.195Zm-.644-2.042a2.24 2.24 0 0 0-.55-3.12l-3.441-2.409a2.24 2.24 0 0 0-3.12.55l-.677.967a2.24 2.24 0 0 0 .55 3.12l3.441 2.409a2.24 2.24 0 0 0 3.12-.55l.677-.967Z"/><rect width="8.68" height="5.66" x="-4.34" y="-2.83" fill="#fff" rx="2.24" transform="rotate(35 -155.166 398.624)"/><path fill="#0151d1" d="M190.93 165.2c5.53.47 12.53 7.88 3.89 11.74a.57.57 0 0 1-.73-.25c-.26-.48 2.72-3.5 3.14-4.52a.92.92 0 0 0-.11-.9q-2.18-2.91-5.52-4.38a.78.78 0 0 0-.93.22l-2.91 3.54a.42.42 0 0 1-.54.09l-.39-.23a.65.65 0 0 1-.17-.98l3.23-3.89a1.23 1.21 21.6 0 1 1.04-.44ZM44.71 170.9l2.67-2.62a.6.6 0 0 1 .89.06l.36.47a.65.65 0 0 1-.1.89l-8.28 6.83a.56.56 0 0 1-.79-.07c-2.83-3.31-6.46-7.58.75-9.4a.98.97-26.1 0 1 1.01.34l2.75 3.46a.5.49-41.4 0 0 .74.04Zm-3.888-1.75a.89.89 0 0 0-1.252-.132l-1.865 1.51a.89.89 0 0 0-.131 1.253l1.724 2.129a.89.89 0 0 0 1.252.132l1.865-1.51a.89.89 0 0 0 .131-1.253l-1.724-2.129Z"/><rect width="4.18" height="4.52" x="-2.09" y="-2.26" fill="#fff" rx=".89" transform="rotate(-39 262.223 29.202)"/><rect width="1.86" height="12.14" x="-.93" y="-6.07" fill="#0151d1" rx=".69" transform="rotate(-43.3 316.341 -147.901)"/><path fill="#0151d1" d="M52.004 183.804a3.63 3.63 0 0 1-5.132.108l-1.357-1.301a3.63 3.63 0 0 1-.108-5.133l3.129-3.262a3.63 3.63 0 0 1 5.132-.108l1.357 1.301a3.63 3.63 0 0 1 .108 5.133l-3.129 3.262Zm1.876-4.467a2.2 2.2 0 0 0-.108-3.11l-.937-.872a2.2 2.2 0 0 0-3.109.108l-2.946 3.16a2.2 2.2 0 0 0 .108 3.11l.937.872a2.2 2.2 0 0 0 3.109-.108l2.946-3.16Z"/><rect width="5.68" height="8.72" x="-2.84" y="-4.36" fill="#fff" rx="2.2" transform="rotate(43 -202.019 153.375)"/><path fill="#0151d1" d="m177.4 181.93 2.76-2.55a.55.55 0 0 0 .05-.76q-1.38-1.65-.13-3.14a.53.53 0 0 1 .91.16l4.03 11.02a1.16 1.16 0 0 1-1.71 1.37l-10.02-6.39a.41.4 47.7 0 1 .03-.7q1.84-.99 3.11.88a.65.65 0 0 0 .97.11Zm3.88-.93a.32.32 0 0 0-.49-.15l-2.15 1.64a.32.32 0 0 0 .01.52l3.53 2.41a.32.32 0 0 0 .49-.37l-1.39-4.05ZM61.82 187.19a.45.45 0 0 0 .73-.13c.41-.87 2.23-4.34 3.53-3.35a.68.67 36.2 0 1 .15.94l-6.29 8.86a.55.55 0 0 1-.74.15c-3.4-2.04-8.11-4.71-2.62-8.79q.4-.29.89-.35c1.86-.23 1.77-2.7 1.81-4.5a.47.47 0 0 1 .54-.45c2.13.34.81 4.16.43 5.42a.85.85 0 0 0 .21.85l1.36 1.35Zm-.864 1.871a.73.73 0 0 0-.14-1.023l-2.517-1.91a.73.73 0 0 0-1.023.14l-1.512 1.991a.73.73 0 0 0 .14 1.023l2.517 1.91a.73.73 0 0 0 1.023-.14l1.512-1.991Z"/><path fill="#fff" d="m181.28 181 1.39 4.05a.32.32 0 0 1-.49.37l-3.53-2.41a.32.32 0 0 1-.01-.52l2.15-1.64a.32.32 0 0 1 .49.15Z"/><path fill="#0151d1" d="m173.26 193.11-4.84-7.8a.75.75 0 0 1 .06-.88l.21-.25a.7.7 0 0 1 1.13.08l4.8 7.66a.63.62 59.9 0 0 .82.22l2.06-1.12a.66.66 0 0 1 .86.22c.77 1.14-5.45 4.49-6.47 5.12a.64.63 83.8 0 1-.93-.75q.48-1.4 2.01-1.78a.48.48 0 0 0 .29-.72Z"/><rect width="4.62" height="3.96" x="-2.31" y="-1.98" fill="#fff" rx=".73" transform="rotate(37.2 -251.116 181.037)"/><path fill="#0151d1" d="M73.7 190.92q-1.17-1.7-3.22-1.98a.94.94 0 0 0-.94.45l-4.36 7.28a.64.63 24.3 0 1-.76.28l-.43-.15a.57.57 0 0 1-.33-.8q2.49-4.81 3.97-6.94c2.27-3.25 6.46-1.61 7.86 1.61.81 1.85-3.06 7.9-4.12 9.59a.66.66 0 0 1-.8.26c-.8-.31-1.05-.88-.54-1.65q2.23-3.36 3.76-7.07a.95.92-51.6 0 0-.09-.88Z"/><rect width="1.8" height="12.1" x="-.9" y="-6.05" fill="#0151d1" rx=".57" transform="rotate(-27.8 473.521 -235.784)"/><path fill="#0151d1" d="M161.328 197.957a3.63 3.63 0 0 1-1.923 4.76l-1.712.727a3.63 3.63 0 0 1-4.76-1.923l-1.781-4.198a3.63 3.63 0 0 1 1.923-4.76l1.712-.727a3.63 3.63 0 0 1 4.76 1.923l1.781 4.198Zm-3.285-3.369a2.26 2.26 0 0 0-2.972-1.177l-1.138.493a2.26 2.26 0 0 0-1.176 2.972l1.66 3.836a2.26 2.26 0 0 0 2.972 1.177l1.138-.493a2.26 2.26 0 0 0 1.176-2.972l-1.66-3.836ZM81.67 202.49l.77-2.08a.6.6 0 0 0-.32-.75l-4.02-1.76q-1.3-.57.1-.8 1.99-.31 3.75.8a.95.93 51.6 0 0 .8.1q1.4-.45 1.44-2.2a.84.84 0 0 0-.5-.8l-4.26-1.9a.49.48 29.2 0 1-.21-.72c.67-1.03 4.93.91 6.11 1.41a1.5 1.5 0 0 1 .81 1.93l-3.47 8.73a.72.71 21.3 0 1-.92.4l-6.11-2.31a.53.53 0 0 1-.19-.88l.33-.32a.68.68 0 0 1 .73-.14l4.24 1.69a.7.7 0 0 0 .92-.4Z"/><rect width="5.76" height="8.7" x="-2.88" y="-4.35" fill="#fff" rx="2.26" transform="rotate(-23.4 555.323 -278.378)"/><path fill="#0151d1" d="m140.33 199.94 2.33 7.74a.73.71-32.4 0 1-.16.68l-.37.4a.61.61 0 0 1-1.04-.24L138.08 198a1.02 1.01 13 0 1 1.66-1.03l6.97 6.24q.58.52.37-.23l-2-7.05a.66.65-14 0 1 .5-.82l.47-.11a.59.58-14.2 0 1 .69.41l2.93 10.16a1.19 1.19 0 0 1-1.97 1.18l-7.16-6.94q-.34-.33-.21.13Z"/></svg>