<svg width="81" height="24" viewBox="0 0 81 24" fill="none" xmlns="http://www.w3.org/2000/svg">
<g clip-path="url(#clip0_674_464)">
<path d="M32.5813 5.76916L31.7486 6.55802C31.1497 5.96881 30.4922 5.52326 29.7764 5.22134C29.0655 4.91456 28.3716 4.76117 27.6947 4.76117C26.8523 4.76117 26.0488 4.96813 25.2843 5.38203C24.5247 5.79595 23.9354 6.35837 23.5167 7.06932C23.0979 7.77539 22.8885 8.52284 22.8885 9.31169C22.8885 10.1201 23.1052 10.8895 23.5386 11.6198C23.972 12.3454 24.5709 12.9176 25.3354 13.3363C26.0999 13.7502 26.9375 13.9572 27.8481 13.9572C28.9535 13.9572 29.8884 13.6456 30.6529 13.0223C31.4174 12.399 31.8703 11.5906 32.0115 10.5973H28.5858V9.56009H33.2167C33.207 11.2205 32.7128 12.5402 31.734 13.519C30.76 14.4928 29.4551 14.9798 27.8189 14.9798C25.8321 14.9798 24.2593 14.3029 23.1004 12.9492C22.2092 11.9072 21.7637 10.702 21.7637 9.3336C21.7637 8.31591 22.0193 7.36879 22.5306 6.49228C23.0419 5.61577 23.7431 4.93161 24.6343 4.43979C25.5253 3.9431 26.5334 3.69476 27.6582 3.69476C28.5688 3.69476 29.4258 3.86031 30.2293 4.19145C31.0328 4.5177 31.8167 5.04361 32.5813 5.76916ZM34.9478 6.76254H36.9492V7.67557C37.29 7.30061 37.6674 7.02062 38.0813 6.83558C38.5002 6.65054 38.9554 6.55802 39.4472 6.55802C39.9439 6.55802 40.3919 6.67975 40.7912 6.92323C41.1905 7.16671 41.5119 7.52218 41.7554 7.98965C42.0719 7.52218 42.459 7.16671 42.9167 6.92323C43.3794 6.67975 43.8833 6.55802 44.4287 6.55802C44.9936 6.55802 45.4903 6.6895 45.9188 6.95244C46.3473 7.2154 46.6541 7.5587 46.8392 7.98235C47.0291 8.406 47.124 9.09501 47.124 10.0494V14.7095H45.1153V10.6776C45.1153 9.77677 45.0033 9.1681 44.7793 8.85155C44.5554 8.53014 44.2193 8.36947 43.7714 8.36947C43.4305 8.36947 43.1237 8.46686 42.851 8.66164C42.5832 8.85642 42.3836 9.12665 42.2521 9.4724C42.1206 9.81328 42.0549 10.3635 42.0549 11.1232V14.7095H40.0462V10.8602C40.0462 10.1493 39.9926 9.63554 39.8855 9.31899C39.7832 8.99766 39.6274 8.75899 39.418 8.60323C39.2086 8.44739 38.9554 8.36947 38.6584 8.36947C38.3273 8.36947 38.0253 8.4693 37.7527 8.66894C37.4848 8.86372 37.2827 9.13882 37.1464 9.4943C37.0149 9.84979 36.9492 10.4098 36.9492 11.1743V14.7095H34.9478V6.76254ZM52.7628 6.55802C53.5128 6.55802 54.2164 6.7455 54.8738 7.12044C55.5361 7.4954 56.0522 8.00426 56.4223 8.64704C56.7924 9.28979 56.9774 9.98372 56.9774 10.7288C56.9774 11.4787 56.7899 12.1798 56.415 12.8324C56.0449 13.4849 55.5385 13.9962 54.8957 14.3663C54.2529 14.7314 53.5444 14.914 52.7701 14.914C51.6308 14.914 50.6568 14.5099 49.8485 13.7016C49.045 12.8884 48.6433 11.9023 48.6433 10.7434C48.6433 9.5016 49.0985 8.46686 50.0092 7.63905C50.8078 6.91836 51.7257 6.55802 52.7628 6.55802ZM52.7921 8.43522C52.1736 8.43522 51.6575 8.65191 51.2436 9.08527C50.8345 9.51377 50.63 10.064 50.63 10.7361C50.63 11.4275 50.8321 11.9875 51.2363 12.416C51.6454 12.8446 52.1615 13.0588 52.7848 13.0588C53.4081 13.0588 53.9267 12.8421 54.3406 12.4087C54.7545 11.9753 54.9615 11.4178 54.9615 10.7361C54.9615 10.0543 54.757 9.5016 54.3479 9.07797C53.9437 8.64947 53.4251 8.43522 52.7921 8.43522ZM58.6136 6.76254H60.6003V7.57331C61.0532 7.19349 61.4622 6.93053 61.8274 6.78445C62.1975 6.6335 62.5749 6.55802 62.9596 6.55802C63.7484 6.55802 64.418 6.83314 64.9682 7.3834C65.4309 7.85087 65.6622 8.54231 65.6622 9.4578V14.7095H63.69V11.2254C63.69 10.2759 63.6462 9.64527 63.5585 9.3336C63.4758 9.022 63.3272 8.78584 63.113 8.62514C62.9036 8.45956 62.643 8.37677 62.3314 8.37677C61.9273 8.37677 61.5791 8.5131 61.2869 8.78584C60.9996 9.05363 60.8 9.42616 60.688 9.90333C60.6295 10.1517 60.6003 10.6897 60.6003 11.5176V14.7095H58.6136V6.76254ZM68.3793 3.49023C68.7299 3.49023 69.0294 3.61684 69.2778 3.87006C69.531 4.12327 69.6576 4.43005 69.6576 4.7904C69.6576 5.14587 69.5334 5.45021 69.2851 5.70342C69.0367 5.95177 68.7397 6.07594 68.3939 6.07594C68.0385 6.07594 67.7341 5.94934 67.4809 5.69612C67.2326 5.43803 67.1084 5.12639 67.1084 4.76117C67.1084 4.41057 67.2326 4.11109 67.4809 3.86276C67.7293 3.61441 68.0287 3.49023 68.3793 3.49023ZM67.3787 6.76254H69.38V14.7095H67.3787V6.76254ZM79.1533 11.3131H72.7473C72.8398 11.878 73.0857 12.3284 73.485 12.6644C73.8892 12.9955 74.4029 13.161 75.0262 13.161C75.7712 13.161 76.4116 12.9005 76.9472 12.3795L78.6273 13.1683C78.2084 13.7624 77.7068 14.2032 77.1225 14.4904C76.5382 14.7729 75.8443 14.914 75.0408 14.914C73.7942 14.914 72.7789 14.5221 71.995 13.7381C71.211 12.9492 70.819 11.9632 70.819 10.7799C70.819 9.56739 71.2085 8.56178 71.9877 7.76322C72.7716 6.95975 73.7528 6.55802 74.9313 6.55802C76.1827 6.55802 77.2004 6.95975 77.9844 7.76322C78.7687 8.56178 79.1604 9.6185 79.1604 10.9333L79.1533 11.3131ZM77.1517 9.7427C77.0203 9.29952 76.7597 8.93917 76.3701 8.66164C75.9855 8.38408 75.5375 8.2453 75.0262 8.2453C74.4711 8.2453 73.9841 8.40112 73.5654 8.71275C73.3024 8.90753 73.0589 9.25085 72.8349 9.7427H77.1517Z" fill="#016DDD"/>
<path d="M8.91904 18.4636C13.793 18.4636 17.7441 14.4598 17.7441 9.52085C17.7441 4.58192 13.793 0.578125 8.91904 0.578125C4.0451 0.578125 0.0939941 4.58192 0.0939941 9.52085C0.0939941 14.4598 4.0451 18.4636 8.91904 18.4636Z" fill="#016DDD"/>
<path d="M13.2957 7.88368C13.3915 7.98929 13.476 8.10367 13.5488 8.22682C13.6215 8.34998 13.6814 8.47941 13.7278 8.61523C13.7745 8.75097 13.8071 8.89032 13.8254 9.03273C13.8437 9.17554 13.8479 9.31835 13.8375 9.46186L13.8347 9.49695L13.8285 9.53134C13.7447 10.0169 13.6176 10.4906 13.448 10.9523C13.2787 11.4144 13.0692 11.8564 12.8199 12.2792C12.5702 12.702 12.2853 13.0981 11.9643 13.4676C11.6437 13.8371 11.2926 14.1735 10.911 14.4774L8.8973 16.0829L6.88393 14.4774C6.64779 14.2893 6.42308 14.0879 6.2098 13.8739C5.99616 13.6599 5.79535 13.4339 5.60699 13.1967C5.41863 12.9596 5.24379 12.7122 5.08313 12.4547C4.92247 12.1975 4.77635 11.9315 4.64513 11.6572C4.51391 11.3831 4.39826 11.1021 4.29854 10.8147C4.19848 10.5271 4.11504 10.2348 4.04787 9.93762C3.98035 9.64047 3.9298 9.34041 3.89587 9.03729C3.86194 8.73448 3.84497 8.43065 3.84497 8.12577V6.77603C3.84532 6.69743 3.84912 6.61884 3.85674 6.54025C3.86435 6.46201 3.87613 6.38412 3.89102 6.30693C3.90625 6.22939 3.92529 6.15325 3.9478 6.07782C3.97031 6.00238 3.99627 5.92836 4.02605 5.85573C4.05583 5.78275 4.08907 5.71152 4.12543 5.64205C4.16212 5.57258 4.20194 5.50522 4.24488 5.43961C4.28781 5.37435 4.33386 5.31119 4.38303 5.25015C4.43219 5.1891 4.48413 5.13085 4.53884 5.07506C4.59389 5.01963 4.65102 4.96665 4.71092 4.91648C4.77082 4.86666 4.83279 4.81964 4.89719 4.77578C4.96159 4.73193 5.02808 4.69157 5.09628 4.65439C5.16449 4.6172 5.23443 4.58352 5.30611 4.55334C5.37743 4.52317 5.45014 4.4965 5.52424 4.4737C5.59834 4.45054 5.67347 4.43159 5.74929 4.41615C5.82547 4.40036 5.90198 4.38878 5.97885 4.38107C6.05606 4.37335 6.13328 4.36914 6.21049 4.36914H11.5817C11.6589 4.36914 11.7365 4.373 11.8133 4.38072C11.8906 4.38844 11.9671 4.40002 12.0433 4.41545C12.1191 4.43089 12.1943 4.45018 12.2683 4.47299C12.3428 4.4958 12.4155 4.52247 12.4872 4.55264C12.5589 4.58281 12.6287 4.6165 12.697 4.65369C12.7656 4.69052 12.8317 4.73122 12.8964 4.77508C12.9608 4.81859 13.0228 4.8656 13.0831 4.91578C13.143 4.9656 13.2 5.01858 13.2551 5.07437C13.3098 5.1298 13.3618 5.18839 13.4109 5.24909C13.4604 5.31014 13.5064 5.37329 13.5494 5.4389C13.5927 5.50451 13.6325 5.57188 13.6692 5.64135C13.7055 5.71082 13.7388 5.78205 13.7686 5.85502C13.7983 5.92765 13.8243 6.00204 13.8472 6.07747C13.8697 6.1529 13.8884 6.22903 13.9036 6.30658C13.9189 6.38377 13.9303 6.46165 13.9382 6.54025C13.9459 6.61849 13.9497 6.69743 13.9497 6.77603C13.6176 6.05571 12.6468 5.83432 11.7334 5.7859C11.6835 5.77819 11.6336 5.77432 11.5835 5.77432H6.21049C6.14609 5.77468 6.08203 5.78099 6.01867 5.79397C5.95531 5.80696 5.89402 5.82626 5.83412 5.85117C5.77457 5.87642 5.71779 5.9073 5.66412 5.94379C5.61045 5.98063 5.56094 6.02203 5.51524 6.06834C5.46953 6.11501 5.42867 6.16553 5.39267 6.22027C5.357 6.27465 5.32653 6.33254 5.30161 6.39324C5.27702 6.45394 5.25832 6.51639 5.24551 6.58095C5.2327 6.64515 5.22647 6.71042 5.22612 6.77603V8.12577C5.22612 10.1874 6.14089 12.0996 7.73568 13.3714L8.8973 14.2973L10.059 13.3714C10.3716 13.1223 10.6593 12.8469 10.9225 12.5448C11.1857 12.2424 11.42 11.9185 11.6254 11.5729C11.8307 11.2274 12.0035 10.8656 12.144 10.4881C12.2846 10.1103 12.3905 9.7229 12.4619 9.32573C12.4632 9.27972 12.4602 9.23411 12.4526 9.1892C12.4449 9.14398 12.4332 9.10009 12.4168 9.05731C12.4006 9.01452 12.3802 8.97417 12.3559 8.93554C12.3317 8.89699 12.304 8.86119 12.2725 8.82822C12.2413 8.79556 12.2071 8.76612 12.17 8.74013C12.1326 8.71415 12.0935 8.6924 12.0519 8.6745C12.0107 8.6566 11.9678 8.64325 11.9238 8.63415C11.8795 8.62504 11.8352 8.62049 11.7902 8.62049H8.02861C8.02861 11.1656 8.55383 12.5234 8.56184 12.5445L8.16396 12.1199C7.19693 11.0863 6.59586 9.47623 6.59586 7.91736V7.21495H11.7902C11.9314 7.2153 12.071 7.23003 12.2095 7.2595C12.3476 7.28898 12.4816 7.33249 12.6111 7.39002C12.7406 7.44757 12.8632 7.51774 12.9785 7.60089C13.0937 7.68405 13.1994 7.77843 13.2957 7.88368Z" fill="white"/>
<path d="M22.2219 19.4043V18.9042H25.2016V19.4043H24.0004V22.7543H23.4213V19.4043H22.2219ZM26.1247 22.7543V18.9042H28.5385V19.4043H26.7057V20.5773H28.4126V21.0755H26.7057V22.2542H28.5612V22.7543H26.1247ZM32.777 20.1562H32.1904C32.1679 20.0309 32.1259 19.9206 32.0645 19.8254C32.003 19.7301 31.9279 19.6493 31.8389 19.5829C31.7499 19.5164 31.6503 19.4663 31.54 19.4324C31.431 19.3986 31.315 19.3817 31.1922 19.3817C30.9703 19.3817 30.7717 19.4375 30.5963 19.549C30.422 19.6605 30.2842 19.8241 30.1827 20.0396C30.0824 20.2552 30.0322 20.5185 30.0322 20.8293C30.0322 21.1425 30.0824 21.407 30.1827 21.6226C30.2842 21.8381 30.4227 22.0011 30.5981 22.1113C30.7736 22.2216 30.971 22.2768 31.1903 22.2768C31.3119 22.2768 31.4272 22.2605 31.5362 22.2279C31.6465 22.1941 31.7462 22.1445 31.8351 22.0794C31.9241 22.0142 31.9993 21.9347 32.0607 21.8406C32.1234 21.7454 32.1667 21.6363 32.1904 21.5135L32.777 21.5154C32.7457 21.7046 32.6849 21.8788 32.5946 22.0381C32.5057 22.1959 32.391 22.3325 32.2506 22.4479C32.1115 22.5619 31.9523 22.6503 31.7731 22.7129C31.5939 22.7756 31.3984 22.8069 31.1866 22.8069C30.8532 22.8069 30.5561 22.728 30.2955 22.57C30.0348 22.4109 29.8292 22.1834 29.6789 21.8876C29.5297 21.5918 29.4551 21.2391 29.4551 20.8293C29.4551 20.4181 29.5303 20.0654 29.6808 19.7708C29.8311 19.4751 30.0366 19.2482 30.2974 19.0903C30.558 18.9311 30.8545 18.8516 31.1866 18.8516C31.3908 18.8516 31.5814 18.881 31.758 18.9399C31.936 18.9976 32.0958 19.0828 32.2375 19.1956C32.379 19.3071 32.4962 19.4438 32.5889 19.6054C32.6817 19.7658 32.7444 19.9494 32.777 20.1562ZM33.7367 22.7543V18.9042H34.3177V20.5773H36.2371V18.9042H36.8198V22.7543H36.2371V21.0755H34.3177V22.7543H33.7367ZM41.038 18.9042V22.7543H40.5042L38.5471 19.9307H38.5114V22.7543H37.9305V18.9042H38.4682L40.4271 21.7316H40.4628V18.9042H41.038ZM45.4945 20.8293C45.4945 21.2403 45.4193 21.5937 45.2689 21.8895C45.1185 22.184 44.9123 22.4109 44.6504 22.57C44.3897 22.728 44.0933 22.8069 43.7612 22.8069C43.4278 22.8069 43.1302 22.728 42.8682 22.57C42.6076 22.4109 42.402 22.1834 42.2516 21.8876C42.1013 21.5918 42.026 21.2391 42.026 20.8293C42.026 20.4181 42.1013 20.0654 42.2516 19.7708C42.402 19.4751 42.6076 19.2482 42.8682 19.0903C43.1302 18.9311 43.4278 18.8516 43.7612 18.8516C44.0933 18.8516 44.3897 18.9311 44.6504 19.0903C44.9123 19.2482 45.1185 19.4751 45.2689 19.7708C45.4193 20.0654 45.4945 20.4181 45.4945 20.8293ZM44.9192 20.8293C44.9192 20.5159 44.8684 20.2521 44.7669 20.0377C44.6667 19.8222 44.5288 19.6593 44.3533 19.549C44.1791 19.4375 43.9818 19.3817 43.7612 19.3817C43.5394 19.3817 43.3414 19.4375 43.1672 19.549C42.993 19.6593 42.8551 19.8222 42.7536 20.0377C42.6533 20.2521 42.6032 20.5159 42.6032 20.8293C42.6032 21.1425 42.6533 21.407 42.7536 21.6226C42.8551 21.8368 42.993 21.9998 43.1672 22.1113C43.3414 22.2216 43.5394 22.2768 43.7612 22.2768C43.9818 22.2768 44.1791 22.2216 44.3533 22.1113C44.5288 21.9998 44.6667 21.8368 44.7669 21.6226C44.8684 21.407 44.9192 21.1425 44.9192 20.8293ZM46.4834 22.7543V18.9042H47.0643V22.2542H48.8089V22.7543H46.4834ZM52.9307 20.8293C52.9307 21.2403 52.8555 21.5937 52.7051 21.8895C52.5547 22.184 52.3486 22.4109 52.0867 22.57C51.8259 22.728 51.5296 22.8069 51.1975 22.8069C50.864 22.8069 50.5664 22.728 50.3044 22.57C50.0438 22.4109 49.8383 22.1834 49.6878 21.8876C49.5375 21.5918 49.4623 21.2391 49.4623 20.8293C49.4623 20.4181 49.5375 20.0654 49.6878 19.7708C49.8383 19.4751 50.0438 19.2482 50.3044 19.0903C50.5664 18.9311 50.864 18.8516 51.1975 18.8516C51.5296 18.8516 51.8259 18.9311 52.0867 19.0903C52.3486 19.2482 52.5547 19.4751 52.7051 19.7708C52.8555 20.0654 52.9307 20.4181 52.9307 20.8293ZM52.3555 20.8293C52.3555 20.5159 52.3047 20.2521 52.2032 20.0377C52.1029 19.8222 51.965 19.6593 51.7896 19.549C51.6154 19.4375 51.418 19.3817 51.1975 19.3817C50.9756 19.3817 50.7776 19.4375 50.6034 19.549C50.4292 19.6593 50.2913 19.8222 50.1898 20.0377C50.0896 20.2521 50.0394 20.5159 50.0394 20.8293C50.0394 21.1425 50.0896 21.407 50.1898 21.6226C50.2913 21.8368 50.4292 21.9998 50.6034 22.1113C50.7776 22.2216 50.9756 22.2768 51.1975 22.2768C51.418 22.2768 51.6154 22.2216 51.7896 22.1113C51.965 21.9998 52.1029 21.8368 52.2032 21.6226C52.3047 21.407 52.3555 21.1425 52.3555 20.8293ZM56.5252 20.1205C56.4888 20.0064 56.44 19.9043 56.3786 19.8141C56.3184 19.7226 56.2463 19.6449 56.1624 19.581C56.0784 19.5158 55.9826 19.4663 55.8748 19.4324C55.7682 19.3986 55.6511 19.3817 55.5232 19.3817C55.3064 19.3817 55.1109 19.4375 54.9367 19.549C54.7625 19.6605 54.6246 19.8241 54.5231 20.0396C54.4228 20.254 54.3727 20.5166 54.3727 20.8274C54.3727 21.1395 54.4235 21.4032 54.525 21.6188C54.6265 21.8343 54.7656 21.9979 54.9423 22.1094C55.119 22.221 55.3202 22.2768 55.5458 22.2768C55.7551 22.2768 55.9374 22.2342 56.0929 22.1489C56.2495 22.0637 56.3705 21.9434 56.4556 21.788C56.5422 21.6313 56.5854 21.4471 56.5854 21.2353L56.7358 21.2635H55.6341V20.7841H57.1475V21.2221C57.1475 21.5455 57.0785 21.8262 56.9407 22.0644C56.8041 22.3012 56.6149 22.4842 56.373 22.6133C56.1323 22.7424 55.8566 22.8069 55.5458 22.8069C55.1974 22.8069 54.8916 22.7267 54.6284 22.5663C54.3665 22.4059 54.1622 22.1784 54.0155 21.8839C53.8689 21.5881 53.7955 21.2372 53.7955 20.8311C53.7955 20.524 53.8382 20.2483 53.9234 20.0039C54.0086 19.7595 54.1283 19.5522 54.2825 19.3817C54.4379 19.21 54.6203 19.079 54.8296 18.9888C55.0401 18.8973 55.2701 18.8516 55.5195 18.8516C55.7276 18.8516 55.9212 18.8823 56.1004 18.9437C56.2808 19.005 56.4413 19.0922 56.5816 19.205C56.7233 19.3177 56.8404 19.4518 56.9332 19.6073C57.0259 19.7614 57.0886 19.9325 57.1212 20.1205H56.5252ZM58.7305 18.9042V22.7543H58.1496V18.9042H58.7305ZM59.8412 22.7543V18.9042H62.255V19.4043H60.422V20.5773H62.129V21.0755H60.422V22.2542H62.2775V22.7543H59.8412ZM65.3955 19.9156C65.3754 19.7376 65.2927 19.5997 65.1473 19.502C65.002 19.403 64.819 19.3535 64.5984 19.3535C64.4405 19.3535 64.3039 19.3786 64.1886 19.4287C64.0732 19.4776 63.9836 19.5453 63.9197 19.6317C63.8571 19.717 63.8258 19.8141 63.8258 19.9231C63.8258 20.0146 63.847 20.0936 63.8897 20.16C63.9335 20.2264 63.9906 20.2821 64.0607 20.3273C64.1322 20.3712 64.2087 20.4081 64.2901 20.4382C64.3716 20.467 64.4499 20.4908 64.525 20.5097L64.901 20.6074C65.0239 20.6375 65.1498 20.6782 65.279 20.7296C65.408 20.781 65.5277 20.8487 65.638 20.9327C65.7483 21.0166 65.8372 21.1206 65.9049 21.2447C65.9738 21.3688 66.0083 21.5173 66.0083 21.6903C66.0083 21.9083 65.9519 22.102 65.8391 22.2711C65.7276 22.4403 65.5653 22.5738 65.3522 22.6715C65.1405 22.7693 64.8841 22.8182 64.5834 22.8182C64.2951 22.8182 64.0457 22.7724 63.8351 22.681C63.6245 22.5895 63.4598 22.4597 63.3407 22.2918C63.2216 22.1226 63.1559 21.9221 63.1433 21.6903H63.7261C63.7374 21.8294 63.7825 21.9453 63.8615 22.0381C63.9416 22.1295 64.0438 22.1978 64.1679 22.243C64.2932 22.2868 64.4304 22.3088 64.5796 22.3088C64.7438 22.3088 64.8898 22.283 65.0176 22.2317C65.1467 22.179 65.2482 22.1064 65.3221 22.0136C65.3961 21.9196 65.4331 21.8099 65.4331 21.6846C65.4331 21.5705 65.4005 21.4772 65.3353 21.4045C65.2714 21.3318 65.1843 21.2717 65.074 21.224C64.965 21.1764 64.8415 21.1344 64.7037 21.0981L64.2487 20.974C63.9404 20.89 63.696 20.7665 63.5156 20.6036C63.3363 20.4407 63.2467 20.2251 63.2467 19.957C63.2467 19.7351 63.3069 19.5415 63.4272 19.3761C63.5475 19.2106 63.7104 19.0821 63.916 18.9907C64.1215 18.8979 64.3533 18.8516 64.6116 18.8516C64.8722 18.8516 65.1022 18.8973 65.3015 18.9888C65.502 19.0803 65.6599 19.2063 65.7752 19.3667C65.8905 19.5258 65.9507 19.7088 65.9557 19.9156H65.3955ZM68.6329 22.7543V18.9042H69.2138V22.2542H70.9583V22.7543H68.6329ZM71.1944 19.4043V18.9042H74.1741V19.4043H72.9728V22.7543H72.3938V19.4043H71.1944ZM76.3436 22.7543H75.0972V18.9042H76.3831C76.7603 18.9042 77.0843 18.9813 77.355 19.1354C77.6257 19.2883 77.8332 19.5083 77.9773 19.7952C78.1226 20.081 78.1953 20.4238 78.1953 20.8236C78.1953 21.2246 78.122 21.5693 77.9754 21.8576C77.83 22.1458 77.6194 22.3676 77.3437 22.523C77.068 22.6772 76.7347 22.7543 76.3436 22.7543ZM75.6781 22.2467H76.3117C76.6049 22.2467 76.8487 22.1915 77.043 22.0812C77.2372 21.9697 77.3826 21.8087 77.4791 21.5981C77.5756 21.3863 77.6238 21.1281 77.6238 20.8236C77.6238 20.5215 77.5756 20.2653 77.4791 20.0547C77.3838 19.8441 77.2416 19.6844 77.0523 19.5753C76.8631 19.4663 76.6281 19.4118 76.3474 19.4118H75.6781V22.2467ZM79.265 22.79C79.1621 22.79 79.0734 22.7537 78.9996 22.681C78.9258 22.607 78.8889 22.5181 78.8889 22.414C78.8889 22.3113 78.9258 22.2235 78.9996 22.1508C79.0734 22.0768 79.1621 22.0399 79.265 22.0399C79.367 22.0399 79.4558 22.0768 79.5296 22.1508C79.6034 22.2235 79.6403 22.3113 79.6403 22.414C79.6403 22.483 79.623 22.5462 79.5877 22.6039C79.5539 22.6602 79.5091 22.7054 79.4526 22.7392C79.3961 22.7731 79.3333 22.79 79.265 22.79Z" fill="#757575"/>
</g>
<defs>
<clipPath id="clip0_674_464">
<rect width="80" height="22.8459" fill="white" transform="translate(0.0939941 0.578125)"/>
</clipPath>
</defs>
</svg>
