<svg width="19" height="20" viewBox="0 0 19 20" fill="none" xmlns="http://www.w3.org/2000/svg">
<path fill-rule="evenodd" clip-rule="evenodd" d="M4.43662 1.08177C7.91266 0.696701 11.4206 0.696701 14.8966 1.08177C16.7956 1.29377 18.3266 2.78877 18.5496 4.69477C18.9616 8.21944 18.9616 11.7801 18.5496 15.3048C18.3266 17.2108 16.7956 18.7058 14.8976 18.9188C11.4213 19.3039 7.91299 19.3039 4.43662 18.9188C2.53762 18.7058 1.00662 17.2108 0.783623 15.3058C0.371605 11.7808 0.371605 8.21977 0.783623 4.69477C1.00662 2.78877 2.53762 1.29377 4.43662 1.08177ZM14.6666 3.99977C14.4014 3.99977 14.1471 4.10513 13.9595 4.29267C13.772 4.4802 13.6666 4.73456 13.6666 4.99977C13.6666 5.26499 13.772 5.51934 13.9595 5.70688C14.1471 5.89441 14.4014 5.99977 14.6666 5.99977C14.9318 5.99977 15.1862 5.89441 15.3737 5.70688C15.5613 5.51934 15.6666 5.26499 15.6666 4.99977C15.6666 4.73456 15.5613 4.4802 15.3737 4.29267C15.1862 4.10513 14.9318 3.99977 14.6666 3.99977ZM4.91662 9.99977C4.91662 8.73999 5.41707 7.53181 6.30787 6.64102C7.19866 5.75022 8.40684 5.24977 9.66662 5.24977C10.9264 5.24977 12.1346 5.75022 13.0254 6.64102C13.9162 7.53181 14.4166 8.73999 14.4166 9.99977C14.4166 11.2596 13.9162 12.4677 13.0254 13.3585C12.1346 14.2493 10.9264 14.7498 9.66662 14.7498C8.40684 14.7498 7.19866 14.2493 6.30787 13.3585C5.41707 12.4677 4.91662 11.2596 4.91662 9.99977Z" fill="white"/>
</svg>
