<svg width="42" height="42" viewBox="0 0 42 42" fill="none" xmlns="http://www.w3.org/2000/svg">
<path d="M21.1575 22.8669C23.9885 22.8669 26.2834 20.572 26.2834 17.741C26.2834 14.9101 23.9885 12.6152 21.1575 12.6152C18.3266 12.6152 16.0317 14.9101 16.0317 17.741C16.0317 20.572 18.3266 22.8669 21.1575 22.8669Z" stroke="#DF1A1D" stroke-width="2.05032" stroke-linecap="round" stroke-linejoin="round"/>
<path d="M21.1576 4.07227C17.5324 4.07227 14.0557 5.51237 11.4923 8.07577C8.92887 10.6392 7.48877 14.1159 7.48877 17.7411C7.48877 20.9738 8.17563 23.089 10.0517 25.4298L21.1576 38.2443L32.2635 25.4298C34.1396 23.089 34.8264 20.9738 34.8264 17.7411C34.8264 14.1159 33.3863 10.6392 30.8229 8.07577C28.2595 5.51237 24.7828 4.07227 21.1576 4.07227Z" stroke="#DF1A1D" stroke-width="2.05032" stroke-linecap="round" stroke-linejoin="round"/>
</svg>
