<svg width="49" height="36" viewBox="0 0 49 36" fill="none" xmlns="http://www.w3.org/2000/svg">
<path d="M8.41679 2.77077C9.63711 1.29816 10.9044 0.475225 12.2186 0.301974C13.6266 0.128727 14.8 0.3886 15.7387 1.08159C16.7713 1.68796 17.3345 2.64083 17.4284 3.9402C17.6162 5.15294 17.0529 6.49562 15.7387 7.96824C14.5184 9.35423 13.5328 10.7402 12.7818 12.1262C12.1247 13.4256 11.6553 14.7249 11.3737 16.0243C14.3776 16.2842 16.7713 17.2804 18.5549 19.0128C20.3384 20.6587 21.2302 22.8676 21.2302 25.6396C21.2302 28.4116 20.2915 30.7072 18.4141 32.5263C16.5366 34.2588 14.0021 35.125 10.8105 35.125C7.52501 35.125 4.94356 34.0855 3.06613 32.0065C1.18871 29.9275 0.25 27.0256 0.25 23.3008C0.25 20.1823 0.766291 16.9339 1.79887 13.5555C2.92533 10.0905 5.1313 6.49562 8.41679 2.77077ZM35.8741 2.77077C37.0944 1.29816 38.3617 0.475225 39.6759 0.301974C41.0839 0.128727 42.2573 0.3886 43.196 1.08159C44.2286 1.68796 44.7918 2.64083 44.8857 3.9402C45.0735 5.15294 44.5102 6.49562 43.196 7.96824C41.9757 9.35423 40.9901 10.7402 40.2391 12.1262C39.582 13.4256 39.1126 14.7249 38.831 16.0243C41.8349 16.2842 44.2286 17.2804 46.0122 19.0128C47.7957 20.6587 48.6875 22.8676 48.6875 25.6396C48.6875 28.4116 47.7488 30.7072 45.8714 32.5263C43.9939 34.2588 41.4594 35.125 38.2678 35.125C34.9823 35.125 32.4009 34.0855 30.5234 32.0065C28.646 29.9275 27.7073 27.0256 27.7073 23.3008C27.7073 20.1823 28.2236 16.9339 29.2562 13.5555C30.3826 10.0905 32.5886 6.49562 35.8741 2.77077Z" fill="#E22E35"/>
</svg>
