<svg width="85" height="84" viewBox="0 0 85 84" fill="none" xmlns="http://www.w3.org/2000/svg">
<rect x="-15" y="-16" width="100" height="100" rx="50" fill="#E22E35"/>
<path d="M29.836 28.136C29.932 25.568 30.772 23.588 32.356 22.196C33.94 20.804 36.088 20.108 38.8 20.108C40.6 20.108 42.136 20.42 43.408 21.044C44.704 21.668 45.676 22.52 46.324 23.6C46.996 24.68 47.332 25.892 47.332 27.236C47.332 28.82 46.936 30.116 46.144 31.124C45.352 32.108 44.428 32.78 43.372 33.14V33.284C44.74 33.74 45.82 34.496 46.612 35.552C47.404 36.608 47.8 37.964 47.8 39.62C47.8 41.108 47.452 42.428 46.756 43.58C46.084 44.708 45.088 45.596 43.768 46.244C42.472 46.892 40.924 47.216 39.124 47.216C36.244 47.216 33.94 46.508 32.212 45.092C30.508 43.676 29.608 41.54 29.512 38.684H35.488C35.512 39.74 35.812 40.58 36.388 41.204C36.964 41.804 37.804 42.104 38.908 42.104C39.844 42.104 40.564 41.84 41.068 41.312C41.596 40.76 41.86 40.04 41.86 39.152C41.86 38 41.488 37.172 40.744 36.668C40.024 36.14 38.86 35.876 37.252 35.876H36.1V30.872H37.252C38.476 30.872 39.46 30.668 40.204 30.26C40.972 29.828 41.356 29.072 41.356 27.992C41.356 27.128 41.116 26.456 40.636 25.976C40.156 25.496 39.496 25.256 38.656 25.256C37.744 25.256 37.06 25.532 36.604 26.084C36.172 26.636 35.92 27.32 35.848 28.136H29.836Z" fill="white"/>
</svg>
