<svg width="85" height="84" viewBox="0 0 85 84" fill="none" xmlns="http://www.w3.org/2000/svg">
<rect x="-15" y="-16" width="100" height="100" rx="50" fill="#E22E35"/>
<path d="M29.404 42.068C30.22 41.42 30.592 41.12 30.52 41.168C32.872 39.224 34.72 37.628 36.064 36.38C37.432 35.132 38.584 33.824 39.52 32.456C40.456 31.088 40.924 29.756 40.924 28.46C40.924 27.476 40.696 26.708 40.24 26.156C39.784 25.604 39.1 25.328 38.188 25.328C37.276 25.328 36.556 25.676 36.028 26.372C35.524 27.044 35.272 28.004 35.272 29.252H29.332C29.38 27.212 29.812 25.508 30.628 24.14C31.468 22.772 32.56 21.764 33.904 21.116C35.272 20.468 36.784 20.144 38.44 20.144C41.296 20.144 43.444 20.876 44.884 22.34C46.348 23.804 47.08 25.712 47.08 28.064C47.08 30.632 46.204 33.02 44.452 35.228C42.7 37.412 40.468 39.548 37.756 41.636H47.476V46.64H29.404V42.068Z" fill="white"/>
</svg>
